<svg width="752" height="529" viewBox="0 0 752 529" fill="none" xmlns="http://www.w3.org/2000/svg">
<g opacity="0.13">
<path opacity="0.13" d="M751.36 470.707H0V479.54H751.36V470.707Z" fill="#333333"/>
<path opacity="0.13" d="M406.281 133.511C410.636 152.195 392.873 249.474 386.637 273.901C370.32 272.603 354.143 273.315 337.862 271.262C340.124 221.689 361.455 159.488 406.281 133.511Z" fill="#7A7A7A"/>
<path opacity="0.13" d="M363.807 273.432L361.914 273.165C362.292 270.646 362.809 268.15 363.462 265.688C364.194 262.95 364.749 260.169 365.122 257.36C365.493 254.393 365.527 251.093 365.564 247.601C365.605 243.647 365.649 239.557 366.191 235.652C366.293 234.936 366.388 234.231 366.485 233.533C367.374 227.077 368.142 221.5 370.008 214.283L370.409 212.723C372.281 205.454 373.758 199.715 377.634 190.755C378.246 189.341 378.917 187.774 379.636 186.094C383.767 176.44 389.441 163.213 394.192 154.596L395.866 155.52C391.162 164.054 385.514 177.23 381.393 186.848C380.664 188.527 380.001 190.097 379.388 191.513C375.573 200.337 374.113 206.013 372.261 213.199L371.86 214.761C370.021 221.872 369.26 227.398 368.38 233.796C368.283 234.493 368.186 235.198 368.086 235.917C367.559 239.701 367.518 243.727 367.476 247.62C367.437 251.168 367.403 254.522 367.02 257.596C366.637 260.48 366.069 263.338 365.319 266.149C364.678 268.547 364.174 270.978 363.807 273.432V273.432Z" fill="#F2F2F2"/>
<path opacity="0.13" d="M377.33 192.118C374.171 184.068 371.333 176.231 368.922 168.829L370.74 168.236C373.138 175.604 375.955 183.404 379.109 191.419L377.33 192.118Z" fill="#F2F2F2"/>
<path opacity="0.13" d="M370.016 215.272C365.192 207.253 361.285 198.49 357.715 187.662L359.533 187.064C363.054 197.756 366.905 206.402 371.654 214.28L370.016 215.272Z" fill="#F2F2F2"/>
<path opacity="0.13" d="M366.332 236.471C359.683 228.285 353.971 219.382 349.302 209.926L351.003 209.07C355.609 218.399 361.245 227.183 367.804 235.259L366.332 236.471Z" fill="#F2F2F2"/>
<path opacity="0.13" d="M365.506 258.526C356.908 252.427 350.097 244.303 343.424 232.182L345.098 231.261C351.625 243.115 358.262 251.042 366.614 256.966L365.506 258.526Z" fill="#F2F2F2"/>
<path opacity="0.13" d="M378.65 192.624L377.789 190.923C382.703 188.451 387.789 186.141 392.707 183.907C395.823 182.493 399.042 181.033 402.184 179.533L403.003 181.261C399.844 182.755 396.622 184.221 393.502 185.635C388.598 187.868 383.529 190.17 378.65 192.624Z" fill="#F2F2F2"/>
<path opacity="0.13" d="M371.323 215.588L370.351 213.947C372.49 212.672 374.633 211.357 376.708 210.086C383.31 206.04 390.139 201.855 397.46 198.507L398.255 200.244C391.038 203.544 384.562 207.515 377.707 211.717C375.622 212.99 373.471 214.3 371.323 215.588Z" fill="#F2F2F2"/>
<path opacity="0.13" d="M367.632 236.641L366.512 235.091L368.091 233.951C375.583 228.542 383.33 222.951 391.395 218.078L392.384 219.714C384.384 224.545 376.672 230.117 369.211 235.509L367.632 236.641Z" fill="#F2F2F2"/>
<path opacity="0.13" d="M366.597 258.526L365.523 256.944C370.169 253.785 374.409 249.943 378.509 246.218C381.75 243.27 385.104 240.226 388.666 237.511L389.825 239.033C386.328 241.706 383.007 244.714 379.794 247.632C375.646 251.414 371.355 255.311 366.597 258.526Z" fill="#F2F2F2"/>
<path opacity="0.13" d="M313.544 95.6997C309.19 122.095 326.953 259.513 333.189 294.017C349.506 292.185 365.683 293.188 381.964 290.289C379.702 220.261 358.371 132.408 313.544 95.6997Z" fill="#777777"/>
<path opacity="0.13" d="M355.837 293.276C355.438 289.295 354.894 286.207 354.318 282.936C353.693 279.398 353.049 275.738 352.617 270.915C352.235 266.601 352.201 261.88 352.162 256.884C352.123 251.367 352.08 245.662 351.55 240.282C351.451 239.267 351.353 238.27 351.256 237.288C350.374 228.233 349.611 220.411 347.766 210.339L347.365 208.132C345.511 197.96 344.048 189.927 340.221 177.429C339.609 175.429 338.936 173.213 338.216 170.841C334.085 157.233 328.445 138.624 323.731 126.549L325.85 125.723C330.593 137.873 336.258 156.55 340.391 170.192C341.12 172.562 341.784 174.775 342.394 176.775C346.26 189.397 347.74 197.491 349.601 207.736L350.002 209.938C351.863 220.107 352.631 227.971 353.518 237.076C353.615 238.061 353.713 239.058 353.812 240.068C354.352 245.55 354.396 251.309 354.437 256.876C354.473 261.826 354.507 266.502 354.879 270.727C355.297 275.456 355.934 279.065 356.549 282.557C357.107 285.716 357.686 288.999 358.089 293.064L355.837 293.276Z" fill="#F2F2F2"/>
<path opacity="0.13" d="M342.702 178.301L340.515 177.691C343.674 166.36 346.491 155.335 348.892 144.917L351.105 145.428C348.707 155.877 345.869 166.938 342.702 178.301Z" fill="#F2F2F2"/>
<path opacity="0.13" d="M350.038 210.929L347.946 210.037C352.707 198.874 356.566 186.627 360.096 171.497L362.315 172.017C358.748 187.275 354.85 199.642 350.038 210.929Z" fill="#F2F2F2"/>
<path opacity="0.13" d="M353.739 240.857L351.771 239.72C358.252 228.491 363.756 216.37 368.599 202.667L370.742 203.425C365.851 217.259 360.291 229.504 353.739 240.857Z" fill="#F2F2F2"/>
<path opacity="0.13" d="M354.57 271.996L352.962 270.392C361.321 262.016 367.967 250.796 374.506 234.017L376.625 234.843C369.965 251.929 363.163 263.386 354.57 271.996Z" fill="#F2F2F2"/>
<path opacity="0.13" d="M340.948 178.923C336.076 175.458 331.009 172.212 326.11 169.07C322.987 167.065 319.758 164.994 316.604 162.883L317.867 160.995C321.005 163.094 324.224 165.16 327.344 167.155C332.265 170.314 337.354 173.575 342.272 177.072L340.948 178.923Z" fill="#F2F2F2"/>
<path opacity="0.13" d="M348.26 211.352C346.112 209.542 343.961 207.68 341.883 205.882C335.033 199.95 328.562 194.349 321.359 189.696L322.594 187.788C329.928 192.527 336.761 198.441 343.37 204.162C345.443 205.957 347.589 207.807 349.725 209.615L348.26 211.352Z" fill="#F2F2F2"/>
<path opacity="0.13" d="M351.944 241.086L350.362 239.47C342.904 231.864 335.191 224 327.199 217.179L328.674 215.452C336.744 222.336 344.491 230.238 351.982 237.881L353.567 239.494L351.944 241.086Z" fill="#F2F2F2"/>
<path opacity="0.13" d="M352.981 272.015C348.218 267.457 343.927 261.948 339.779 256.621C336.566 252.49 333.245 248.238 329.748 244.471L331.412 242.925C334.977 246.76 338.328 251.061 341.57 255.224C345.672 260.485 349.91 265.916 354.554 270.37L352.981 272.015Z" fill="#F2F2F2"/>
<path opacity="0.13" d="M290.116 194.859C285.234 215.801 305.144 324.834 312.135 352.214C330.423 350.756 348.554 351.555 366.811 349.254C364.259 293.691 340.36 223.976 290.116 194.859Z" fill="#7A7A7A"/>
<path opacity="0.13" d="M337.723 351.686C337.308 348.936 336.741 346.211 336.022 343.524C335.32 340.705 334.593 337.789 334.115 333.935C333.684 330.489 333.646 326.732 333.604 322.757C333.558 318.383 333.512 313.88 332.921 309.635C332.807 308.83 332.7 308.041 332.591 307.258C331.604 300.087 330.751 293.893 328.691 285.922L328.239 284.173C326.166 276.117 324.528 269.755 320.251 259.872C319.566 258.286 318.81 256.526 318.006 254.643C313.389 243.861 307.059 229.096 301.783 219.529L303.659 218.496C308.986 228.153 315.338 242.976 319.974 253.8C320.781 255.681 321.534 257.445 322.22 259.022C326.562 269.065 328.217 275.498 330.314 283.643L330.766 285.39C332.856 293.482 333.718 299.727 334.715 306.971C334.822 307.751 334.931 308.541 335.043 309.345C335.653 313.719 335.701 318.303 335.747 322.735C335.789 326.65 335.828 330.348 336.233 333.67C336.698 337.398 337.407 340.248 338.095 343.006C338.828 345.766 339.407 348.564 339.83 351.387L337.723 351.686Z" fill="#F2F2F2"/>
<path opacity="0.13" d="M322.567 260.548L320.572 259.763C324.11 250.772 327.264 242.036 329.952 233.781L331.991 234.445C329.288 242.731 326.12 251.525 322.567 260.548Z" fill="#F2F2F2"/>
<path opacity="0.13" d="M330.766 286.486L328.929 285.381C334.251 276.542 338.566 266.847 342.515 254.869L344.551 255.54C340.552 267.675 336.17 277.507 330.766 286.486Z" fill="#F2F2F2"/>
<path opacity="0.13" d="M334.895 310.259L333.232 308.906C340.486 300.007 346.646 290.406 352.065 279.553L353.982 280.511C348.493 291.507 342.248 301.236 334.895 310.259Z" fill="#F2F2F2"/>
<path opacity="0.13" d="M335.828 334.977L334.588 333.23C343.949 326.589 351.387 317.702 358.701 304.415L360.58 305.45C353.081 319.034 345.455 328.139 335.828 334.977Z" fill="#F2F2F2"/>
<path opacity="0.13" d="M321.087 261.114C315.617 258.363 309.938 255.783 304.444 253.29C300.945 251.7 297.329 250.058 293.793 248.383L294.712 246.439C298.23 248.106 301.839 249.744 305.331 251.331C310.842 253.834 316.543 256.422 322.052 259.192L321.087 261.114Z" fill="#F2F2F2"/>
<path opacity="0.13" d="M329.298 286.853C326.89 285.417 324.482 283.937 322.151 282.513C314.468 277.804 307.209 273.354 299.122 269.656L300.014 267.712C308.218 271.466 315.87 276.156 323.272 280.691C325.597 282.115 328 283.587 330.397 285.018L329.298 286.853Z" fill="#F2F2F2"/>
<path opacity="0.13" d="M333.437 310.451L331.667 309.173C323.306 303.137 314.657 296.894 305.693 291.477L306.801 289.643C315.843 295.105 324.526 301.373 332.921 307.435L334.69 308.714L333.437 310.451Z" fill="#F2F2F2"/>
<path opacity="0.13" d="M334.596 334.99C329.264 331.376 324.455 327.007 319.804 322.781C316.203 319.51 312.48 316.128 308.56 313.141L309.86 311.44C313.853 314.483 317.612 317.897 321.245 321.199C325.84 325.374 330.593 329.692 335.798 333.22L334.596 334.99Z" fill="#F2F2F2"/>
<path opacity="0.13" d="M415.834 211.821C420.189 230.506 402.425 327.785 396.19 352.214C379.872 350.916 363.695 351.626 347.414 349.575C349.679 300 371.007 237.798 415.834 211.821Z" fill="#7A7A7A"/>
<path opacity="0.13" d="M373.359 351.742L371.466 351.475C371.843 348.956 372.36 346.461 373.014 344C373.746 341.262 374.301 338.48 374.674 335.67C375.044 332.703 375.08 329.403 375.116 325.911C375.158 321.957 375.199 317.868 375.743 313.963C375.842 313.245 375.94 312.539 376.037 311.846C376.927 305.387 377.695 299.81 379.561 292.593L379.962 291.033C381.833 283.767 383.31 278.025 387.186 269.065C387.796 267.651 388.469 266.084 389.189 264.407C393.32 254.75 398.991 241.526 403.745 232.906L405.419 233.83C400.712 242.364 395.067 255.54 390.946 265.158C390.217 266.839 389.553 268.409 388.941 269.823C385.126 278.647 383.663 284.323 381.814 291.511L381.413 293.072C379.573 300.182 378.812 305.708 377.93 312.106C377.835 312.803 377.738 313.51 377.639 314.227C377.111 318.011 377.068 322.037 377.026 325.93C376.99 329.478 376.956 332.832 376.572 335.894C376.191 338.779 375.623 341.637 374.871 344.45C374.232 346.85 373.727 349.285 373.359 351.742V351.742Z" fill="#222222"/>
<path opacity="0.13" d="M386.883 270.433C383.724 262.38 380.883 254.546 378.475 247.142L380.292 246.551C382.691 253.916 385.505 261.717 388.661 269.734L386.883 270.433Z" fill="#222222"/>
<path opacity="0.13" d="M379.568 293.572C374.747 285.553 370.837 276.788 367.27 265.96L369.085 265.362C372.609 276.054 376.46 284.7 381.208 292.578L379.568 293.572Z" fill="#222222"/>
<path opacity="0.13" d="M375.882 314.781C369.234 306.597 363.522 297.695 358.852 288.241L360.553 287.385C365.16 296.714 370.796 305.498 377.354 313.574L375.882 314.781Z" fill="#222222"/>
<path opacity="0.13" d="M375.058 336.836C366.458 330.735 359.649 322.611 352.976 310.49L354.651 309.569C361.178 321.423 367.812 329.352 376.164 335.276L375.058 336.836Z" fill="#222222"/>
<path opacity="0.13" d="M388.202 270.934L387.342 269.233C392.255 266.762 397.341 264.453 402.26 262.22C405.375 260.806 408.595 259.343 411.737 257.846L412.556 259.574C409.397 261.068 406.175 262.533 403.054 263.948C398.148 266.178 393.082 268.489 388.202 270.934Z" fill="#222222"/>
<path opacity="0.13" d="M380.876 293.9L379.904 292.257C382.042 290.982 384.185 289.667 386.258 288.396C392.863 284.35 399.691 280.166 407.011 276.817L407.808 278.557C400.59 281.857 394.114 285.825 387.259 290.027C385.172 291.3 383.024 292.617 380.876 293.9Z" fill="#222222"/>
<path opacity="0.13" d="M377.182 314.954L376.064 313.401L377.644 312.261C385.135 306.852 392.882 301.261 400.948 296.389L401.937 298.024C393.937 302.857 386.224 308.427 378.764 313.819L377.182 314.954Z" fill="#222222"/>
<path opacity="0.13" d="M376.149 336.846L375.075 335.264C379.721 332.105 383.962 328.263 388.061 324.538C391.303 321.593 394.656 318.546 398.219 315.831L399.378 317.352C395.881 320.025 392.559 323.034 389.347 325.952C385.196 329.726 380.907 333.614 376.149 336.846Z" fill="#222222"/>
<path opacity="0.13" d="M416.505 491.133H295.219L275.779 368.514C274.025 357.458 279.456 348.134 287.978 348.134H423.775C432.297 348.134 437.729 357.458 435.974 368.514L416.505 491.133Z" fill="#333333"/>
<path opacity="0.13" d="M432.361 391.245L416.505 491.134H295.224L292.362 473.098C360.857 457.118 406.094 420.123 432.361 391.245Z" fill="#777777"/>
<path opacity="0.13" d="M567.473 273.77C517.723 220.066 551.046 211.576 541.126 177.519C531.207 143.462 511.519 114.632 528.896 93.5929C546.273 72.5537 535.819 53.0114 537.401 20.7551C538.983 -11.5011 591.622 -1.95107 589.814 20.8499C588.006 43.6509 583.389 61.8202 599.943 75.6641C616.496 89.508 631.195 106.768 615.959 145.831C600.723 184.894 641.178 175.567 636.481 215.879C631.783 256.191 614.946 243.735 619.242 287.495C578.318 292.812 567.473 273.77 567.473 273.77Z" fill="#222222"/>
<path opacity="0.13" d="M596.759 288.26C596.699 287.983 590.65 259.938 583.88 217.724C577.642 178.763 569.502 119.417 566.16 57.9322L568.027 57.8325C571.366 119.227 579.494 178.5 585.725 217.415C592.475 259.581 598.516 287.587 598.577 287.864L596.759 288.26Z" fill="#7A7A7A"/>
<path opacity="0.13" d="M572.889 130.06L572.095 129.229C561.439 118.092 545.075 101.196 543.663 100.312C543.849 100.408 544.062 100.436 544.266 100.392C544.47 100.347 544.652 100.233 544.781 100.069L543.323 98.9122L544.025 98.5525C544.543 98.5282 544.718 98.5185 549.558 103.357C551.976 105.787 555.289 109.145 559.398 113.378C565.016 119.164 570.629 125.011 572.658 127.13C574.41 124.588 579.441 117.315 584.529 110.144C588.218 104.943 591.216 100.812 593.442 97.86C594.769 96.0982 595.838 94.7398 596.614 93.8213C597.829 92.3802 598.356 91.9234 599.044 92.0595L598.669 93.8917C598.844 93.9317 599.028 93.9075 599.187 93.8237C597.391 94.9925 582.512 116.102 573.555 129.132L572.889 130.06Z" fill="#7A7A7A"/>
<path opacity="0.13" d="M579.377 184.005L578.515 183.147C564.34 169.053 542.861 147.773 541.797 146.939L542.954 145.481C544.358 146.587 573.426 175.468 578.972 180.979L603.483 138.39L605.102 139.324L579.377 184.005Z" fill="#7A7A7A"/>
<path opacity="0.13" d="M587.513 234.469L586.694 233.662C574.058 221.216 554.875 202.4 553.782 201.586C553.925 201.682 554.092 201.735 554.264 201.74C554.436 201.746 554.606 201.702 554.754 201.615L554.29 200.811L553.359 200.92L553.877 199.967C554.467 199.678 554.885 200.055 555.335 200.453C555.59 200.682 555.959 201.024 556.433 201.474C557.31 202.303 558.586 203.527 560.221 205.119C562.977 207.792 566.8 211.512 571.579 216.198C578.226 222.705 584.918 229.295 587.2 231.541L611.862 193.372L613.432 194.386L587.513 234.469Z" fill="#7A7A7A"/>
<path opacity="0.13" d="M591.09 349.395C562.882 287.947 594.565 290.102 595.656 257.355C596.747 224.608 587.761 193.654 609.06 180.192C630.359 166.729 626.799 146.577 637.479 118.712C648.159 90.8469 691.589 114.382 683.443 133.871C675.298 153.359 666.022 167.974 676.566 184.882C687.11 201.79 695.035 221.169 670.44 251.061C645.846 280.953 684.014 284.408 668.299 318.431C652.584 352.454 641.389 336.681 632.578 376.317C595.131 369.221 591.09 349.395 591.09 349.395Z" fill="#777777"/>
<path opacity="0.13" d="M613.48 371.557H613.383C613.137 371.531 612.911 371.408 612.754 371.216C612.598 371.024 612.525 370.778 612.55 370.531C612.576 370.269 615.337 343.917 621.541 304.92C627.273 268.936 637.2 214.523 651.95 159.605C651.978 159.482 652.031 159.366 652.105 159.264C652.179 159.162 652.272 159.076 652.38 159.012C652.488 158.947 652.608 158.904 652.732 158.887C652.857 158.869 652.984 158.877 653.105 158.91C653.227 158.943 653.341 159 653.44 159.077C653.539 159.155 653.621 159.252 653.682 159.362C653.742 159.472 653.78 159.594 653.793 159.719C653.806 159.844 653.793 159.97 653.756 160.091C639.027 214.922 629.113 269.269 623.38 305.205C617.176 344.148 614.421 370.458 614.389 370.721C614.366 370.947 614.26 371.157 614.093 371.31C613.926 371.464 613.708 371.552 613.48 371.557V371.557Z" fill="#4D4D4D"/>
<path opacity="0.13" d="M637.496 224.45C637.423 224.451 637.349 224.442 637.278 224.423C637.143 224.391 637.017 224.329 636.909 224.242C636.801 224.155 636.713 224.045 636.653 223.92C630.619 211.318 621.344 192.242 620.092 190.446C620.014 190.385 619.946 190.311 619.891 190.228C619.823 190.126 619.775 190.011 619.751 189.89C619.728 189.77 619.728 189.646 619.752 189.525C619.776 189.405 619.824 189.29 619.892 189.188C619.961 189.086 620.048 188.998 620.151 188.93C620.265 188.856 620.393 188.807 620.528 188.785C620.662 188.764 620.799 188.771 620.931 188.806C621.417 188.942 621.577 188.986 624.447 194.653C625.873 197.469 627.81 201.379 630.199 206.276C633.431 212.898 636.641 219.57 637.841 222.071C640.174 220.297 646.614 215.413 653.075 210.633C657.809 207.131 661.629 204.366 664.431 202.417C666.105 201.253 667.434 200.366 668.38 199.783C669.893 198.852 670.496 198.597 671.082 198.93C671.297 199.053 671.455 199.256 671.521 199.495C671.586 199.734 671.554 199.99 671.432 200.205C671.348 200.349 671.227 200.468 671.083 200.551C670.938 200.634 670.774 200.677 670.608 200.677C668.27 201.542 649.498 215.522 638.063 224.248C637.901 224.376 637.702 224.447 637.496 224.45V224.45ZM621.181 190.485C621.137 190.515 621.089 190.54 621.04 190.561C621.089 190.539 621.136 190.514 621.181 190.485V190.485Z" fill="#4D4D4D"/>
<path opacity="0.13" d="M627.613 273.592C627.556 273.593 627.499 273.587 627.443 273.575C627.303 273.55 627.17 273.494 627.055 273.409C626.94 273.325 626.846 273.216 626.78 273.089C618.404 256.658 605.685 231.825 604.98 230.758C604.843 230.552 604.793 230.3 604.842 230.057C604.891 229.814 605.034 229.6 605.24 229.463C605.446 229.326 605.699 229.276 605.942 229.325C606.185 229.374 606.398 229.517 606.535 229.723C607.454 231.103 624.131 263.778 627.893 271.158L661.583 240.899C661.769 240.748 662.006 240.674 662.246 240.693C662.485 240.712 662.708 240.822 662.868 241C663.028 241.179 663.114 241.412 663.107 241.652C663.101 241.892 663.002 242.12 662.832 242.289L628.238 273.349C628.067 273.505 627.844 273.591 627.613 273.592V273.592Z" fill="#4D4D4D"/>
<path opacity="0.13" d="M619.983 319.474C614.72 309.268 600.92 282.586 600.285 281.779C600.321 281.82 600.368 281.849 600.42 281.865C600.472 281.881 600.527 281.882 600.579 281.869L600.506 281.57L600.198 281.507L600.463 281.264C600.766 281.223 600.771 281.22 603.981 287.312C605.631 290.445 607.913 294.814 610.761 300.298C615.609 309.635 620.481 319.1 620.537 319.194L619.983 319.474Z" fill="#4D4D4D"/>
<path opacity="0.13" d="M612.637 362.466C623.687 295.764 593.683 306.167 584.021 274.868C574.359 243.569 574.879 211.335 550.788 203.95C526.697 196.565 524.826 176.187 507.203 152.123C489.581 128.058 453.859 162.178 466.845 178.838C479.831 195.499 492.623 207.158 486.898 226.243C481.173 245.329 478.619 266.113 510.226 288.481C541.833 310.85 505.901 324.225 530.011 352.916C554.122 381.607 560.773 363.443 579.705 399.363C613.954 382.657 612.637 362.466 612.637 362.466Z" fill="#222222"/>
<path opacity="0.13" d="M596.618 390.275C596.328 390.275 596.044 390.187 595.805 390.022C595.566 389.858 595.382 389.625 595.277 389.354C595.182 389.111 585.606 364.458 569.383 328.528C554.414 295.378 530.561 245.572 501.94 196.577C501.746 196.248 501.692 195.855 501.788 195.486C501.884 195.116 502.123 194.8 502.452 194.607C502.782 194.413 503.174 194.359 503.544 194.455C503.913 194.551 504.23 194.79 504.423 195.119C533.112 244.24 557.014 294.15 572.014 327.371C588.266 363.365 597.865 388.076 597.96 388.321C598.044 388.539 598.074 388.775 598.048 389.007C598.021 389.239 597.938 389.461 597.805 389.654C597.673 389.847 597.496 390.005 597.289 390.114C597.083 390.223 596.852 390.28 596.618 390.28V390.275Z" fill="#7A7A7A"/>
<path opacity="0.13" d="M534.752 254.665C534.567 254.665 534.383 254.63 534.21 254.56C521.134 249.251 499.685 240.826 496.824 240.423C496.521 240.483 496.207 240.445 495.927 240.313C495.648 240.181 495.418 239.962 495.273 239.69C495.127 239.417 495.073 239.105 495.119 238.799C495.165 238.493 495.308 238.211 495.527 237.992C496.256 237.263 497.269 237.506 498.856 237.975C499.932 238.291 501.456 238.802 503.385 239.487C506.608 240.632 511.025 242.296 516.508 244.432C523.528 247.161 530.551 249.982 533.644 251.236C534.215 248.135 535.467 241.341 536.752 234.586C537.77 229.24 538.609 224.943 539.245 221.85C540.567 215.408 540.686 215.34 541.338 214.953C541.517 214.847 541.717 214.78 541.924 214.758C542.131 214.735 542.34 214.757 542.538 214.822C542.9 214.943 543.199 215.202 543.37 215.542C543.541 215.883 543.569 216.278 543.449 216.64C543.411 216.758 543.357 216.87 543.289 216.973C542.509 219.352 538.531 240.461 536.157 253.489C536.096 253.82 535.922 254.119 535.663 254.334C535.405 254.55 535.079 254.668 534.743 254.667L534.752 254.665ZM541.651 217.551C541.839 217.614 542.037 217.636 542.234 217.617C542.037 217.636 541.839 217.613 541.651 217.551V217.551Z" fill="#7A7A7A"/>
<path opacity="0.13" d="M557.203 299.475C556.979 299.475 556.758 299.422 556.557 299.322L515.004 278.445C514.67 278.27 514.419 277.97 514.304 277.612C514.189 277.253 514.219 276.864 514.388 276.527C514.557 276.19 514.851 275.933 515.208 275.811C515.564 275.689 515.954 275.712 516.294 275.874L556.171 295.912C558.09 286.71 565.242 252.463 565.76 250.906C565.814 250.721 565.905 250.548 566.028 250.399C566.151 250.25 566.302 250.127 566.473 250.038C566.644 249.948 566.831 249.894 567.024 249.879C567.216 249.863 567.41 249.887 567.593 249.948C567.776 250.008 567.945 250.105 568.09 250.233C568.235 250.36 568.352 250.516 568.436 250.69C568.52 250.864 568.567 251.053 568.576 251.246C568.585 251.438 568.555 251.631 568.488 251.812C568.056 253.202 562.34 280.394 558.606 298.33C558.561 298.546 558.467 298.749 558.331 298.922C558.196 299.096 558.022 299.236 557.823 299.331C557.63 299.426 557.418 299.475 557.203 299.475V299.475Z" fill="#7A7A7A"/>
<path opacity="0.13" d="M576.583 342.571C576.384 342.572 576.187 342.531 576.005 342.45L536.619 325.136C536.269 324.982 535.995 324.696 535.857 324.34C535.719 323.984 535.727 323.588 535.881 323.239C536.035 322.89 536.321 322.616 536.677 322.478C537.032 322.339 537.428 322.348 537.778 322.502L575.545 339.106C576.274 335.704 577.953 327.833 579.64 320.028C580.945 313.984 581.997 309.168 582.765 305.71C583.224 303.654 583.584 302.065 583.839 300.974C583.98 300.374 584.082 299.929 584.169 299.616C584.315 299.054 584.536 298.204 585.525 298.077C585.782 298.044 586.043 298.081 586.281 298.184C586.518 298.287 586.724 298.451 586.876 298.661C587.028 298.871 587.12 299.117 587.144 299.375C587.168 299.633 587.121 299.892 587.01 300.126C586.398 302.23 581.314 325.821 577.99 341.436C577.945 341.644 577.854 341.839 577.724 342.007C577.594 342.175 577.428 342.312 577.239 342.408C577.037 342.515 576.811 342.571 576.583 342.571V342.571Z" fill="#7A7A7A"/>
<path opacity="0.13" d="M681.402 319.683H676.95H515.011H510.559V338.523H515.011V490.144H676.95V338.523H681.402V319.683Z" fill="#666666"/>
<path opacity="0.13" d="M676.945 379V490.144H515.006V448.537C565.908 456.817 600.861 449.527 676.945 379Z" fill="#7A7A7A"/>
<path opacity="0.13" d="M113.191 417.261C113.191 417.261 117.915 217.269 140.356 153.666C165.162 250.716 160.438 417.261 160.438 417.261H113.191Z" fill="#676767"/>
<path opacity="0.13" d="M136.993 427.302C136.993 427.302 155.704 302.687 206.492 250.716C171.742 367.652 179.326 427.302 179.326 427.302H136.993Z" fill="#777777"/>
<path opacity="0.13" d="M123.82 451.638C84.8421 225.913 43.4951 179.847 43.4951 179.847C43.4951 179.847 165.334 314.745 171.74 451.638C130.908 457.422 123.82 451.638 123.82 451.638Z" fill="#777777"/>
<path opacity="0.13" d="M169.82 492.419H124.938C124.937 487.532 123.974 482.693 122.104 478.179C120.233 473.664 117.492 469.562 114.036 466.107C110.58 462.652 106.478 459.911 101.963 458.041C97.4475 456.172 92.6084 455.21 87.7216 455.21V373.119H207.036V455.21C207.036 480.196 186.138 492.419 169.82 492.419Z" fill="#333333"/>
<path opacity="0.13" d="M183.278 489.906C178.987 491.571 174.425 492.422 169.823 492.417H124.935C120.049 492.418 115.21 491.456 110.695 489.587C106.18 487.718 102.078 484.977 98.6225 481.523C95.1668 478.068 92.4255 473.966 90.5552 469.452C88.6848 464.938 87.7219 460.099 87.7216 455.213V428.018C104.946 448.251 135.226 474.86 183.278 489.906Z" fill="#666666"/>
</g>
<path d="M431.59 522.702C445.405 522.189 469.909 521.244 477.19 520.965L474.942 501.126H449.534C443.281 505.634 437.626 509.427 432.881 512.598C430.995 513.857 429.257 515.028 427.688 516.088C429.5 517.655 431.201 519.842 431.59 522.702Z" fill="#E6E6E6"/>
<path d="M431.59 522.702C431.201 519.842 429.5 517.655 427.688 516.088C414.685 524.933 413.095 527.426 434.771 526.78C465.657 525.871 477.695 525.416 477.695 525.416L477.19 520.955C469.909 521.246 445.405 522.184 431.59 522.702Z" fill="#4D4D4D"/>
<path d="M437.794 516.957C437.119 514.384 433.636 512.489 433.602 512.469L434.198 511.359C434.361 511.444 438.197 513.529 439.014 516.637L437.794 516.957Z" fill="#4D4D4D"/>
<path d="M443.867 513.602C442.822 510.686 439.396 508.571 439.362 508.552L440.015 507.471C440.171 507.565 443.857 509.825 445.055 513.179L443.867 513.602Z" fill="#4D4D4D"/>
<path d="M448.53 509.699C448.132 507.045 444.248 505.325 444.207 505.301L444.712 504.144C444.9 504.227 449.278 506.178 449.779 509.512L448.53 509.699Z" fill="#4D4D4D"/>
<path d="M544.008 522.702C530.196 522.189 505.689 521.244 498.411 520.965L500.659 501.126H526.067C532.32 505.634 537.975 509.427 542.72 512.598C544.604 513.857 546.341 515.028 547.913 516.088C546.098 517.655 544.4 519.842 544.008 522.702Z" fill="#E6E6E6"/>
<path d="M544.008 522.702C544.4 519.842 546.098 517.655 547.913 516.088C560.914 524.933 562.506 527.426 540.83 526.78C509.942 525.871 497.906 525.416 497.906 525.416L498.411 520.955C505.687 521.246 530.196 522.184 544.008 522.702Z" fill="#4D4D4D"/>
<path d="M537.807 516.957L536.592 516.637C537.411 513.529 541.245 511.444 541.408 511.359L542.003 512.469L541.707 511.913L542.006 512.469C541.962 512.489 538.492 514.384 537.807 516.957Z" fill="#4D4D4D"/>
<path d="M531.734 513.602L530.546 513.179C531.741 509.825 535.428 507.565 535.586 507.471L536.237 508.552C536.203 508.576 532.779 510.678 531.734 513.602Z" fill="#4D4D4D"/>
<path d="M527.071 509.699L525.824 509.512C526.325 506.178 530.704 504.227 530.889 504.144L531.394 505.301L531.151 504.722L531.394 505.301C531.353 505.318 527.467 507.055 527.071 509.699Z" fill="#4D4D4D"/>
<path d="M452.581 259.938C443.291 420.731 449.422 499.082 448.059 502.489C470.544 503.852 476.043 502.489 476.043 502.489C476.043 502.489 491.352 332.839 496.963 300.816C502.574 268.793 502.567 259.938 502.567 259.938H452.581Z" fill="#4D4D4D"/>
<g opacity="0.3">
<path opacity="0.3" d="M502.567 259.938C502.567 259.938 502.567 268.793 496.963 300.816C491.359 332.839 476.04 502.501 476.04 502.501C475.181 502.671 474.31 502.782 473.435 502.834C474.59 466.709 479.102 330.324 482.332 301.304C485.279 274.817 485.576 263.522 485.573 259.95L502.567 259.938Z" fill="black"/>
</g>
<path d="M523.654 259.938C532.947 420.731 526.813 499.082 528.177 502.489C505.694 503.852 500.195 502.489 500.195 502.489C500.195 502.489 484.886 332.839 479.272 300.816C473.659 268.793 473.671 259.938 473.671 259.938H523.654Z" fill="#4D4D4D"/>
<path d="M471.725 259.938C472.194 263.425 472.507 266.92 472.765 270.416C473.022 273.913 473.222 277.412 473.367 280.912C473.513 284.411 473.61 287.917 473.623 291.424C473.635 294.93 473.623 298.437 473.435 301.951C472.966 298.464 472.65 294.969 472.393 291.473C472.135 287.976 471.936 284.479 471.793 280.977C471.649 277.476 471.55 273.971 471.55 270.465C471.55 266.958 471.542 263.452 471.725 259.938Z" fill="#353535"/>
<path d="M504.958 265.615C505.597 266.638 506.185 267.683 506.775 268.723C507.06 269.25 507.361 269.768 507.658 270.285C507.954 270.803 508.246 271.328 508.535 271.85C508.824 272.373 509.113 272.895 509.407 273.413L510.282 274.973C510.566 275.498 510.865 276.013 511.164 276.525L512.046 278.078C513.261 280.129 514.454 282.18 515.754 284.153L516.748 285.628C517.093 286.114 517.424 286.6 517.791 287.069C518.158 287.538 518.52 288.005 518.904 288.457C519.1 288.678 519.295 288.906 519.509 289.113C519.61 289.223 519.717 289.327 519.83 289.424C519.938 289.527 520.054 289.622 520.175 289.711C519.629 289.443 519.12 289.107 518.661 288.71C518.194 288.321 517.749 287.905 517.324 287.475C516.899 287.045 516.503 286.586 516.095 286.136C515.686 285.687 515.327 285.201 514.945 284.729C513.491 282.803 512.159 280.789 510.955 278.698C510.374 277.646 509.772 276.601 509.232 275.539L508.425 273.928L508.027 273.119L507.653 272.297C507.167 271.201 506.668 270.11 506.221 268.992C505.774 267.875 505.334 266.754 504.958 265.615Z" fill="#353535"/>
<path d="M480.597 309.557C482.526 316.74 484.351 323.947 486.186 331.15C487.116 334.747 488.02 338.35 488.971 341.942C489.921 345.533 490.851 349.127 491.855 352.702C492.859 356.277 493.865 359.846 494.968 363.394C496.071 366.942 497.252 370.441 498.591 373.892C499.264 375.615 499.996 377.311 500.8 378.973C501.198 379.804 501.621 380.623 502.076 381.423C502.53 382.222 503.009 383.007 503.534 383.76C504.576 385.264 505.791 386.676 507.308 387.699C508.066 388.214 508.909 388.591 509.798 388.812C510.7 389.024 511.634 389.068 512.552 388.941C511.632 389.132 510.686 389.152 509.759 388.999C508.828 388.823 507.936 388.483 507.123 387.996C505.49 387.024 504.175 385.612 503.033 384.125C502.462 383.374 501.944 382.589 501.451 381.789C500.958 380.99 500.499 380.174 500.061 379.345C499.182 377.69 498.411 375.984 497.68 374.264C494.788 367.367 492.65 360.211 490.633 353.045C489.661 349.453 488.72 345.853 487.811 342.243C486.927 338.63 486.047 335.016 485.228 331.388C483.573 324.132 482.029 316.855 480.597 309.557Z" fill="#353535"/>
<path d="M481.525 334.99C481.219 338.496 480.854 341.998 480.495 345.502L480.21 348.126L479.885 350.746L479.197 355.983C478.954 357.727 478.755 359.479 478.468 361.217L477.637 366.434L477.214 369.042C477.071 369.911 476.93 370.781 476.76 371.644L475.788 376.839L475.282 379.435L474.716 382.018L473.567 387.179C472.677 390.593 471.866 394.027 470.791 397.385L470.41 398.654C470.281 399.074 470.167 399.5 470.011 399.915L469.144 402.418C468.595 404.097 467.89 405.723 467.241 407.363C466.542 408.988 465.76 410.576 464.899 412.121C464.792 412.313 464.687 412.507 464.578 412.699L464.213 413.256L463.851 413.81C463.737 413.999 463.612 414.181 463.477 414.357L463.066 414.879C462.935 415.057 462.793 415.226 462.641 415.387L462.179 415.873C462.097 415.948 462.009 416.014 461.924 416.084L461.795 416.189C461.752 416.221 461.703 416.25 461.657 416.279C461.701 416.245 461.747 416.216 461.788 416.179L461.91 416.067C461.988 415.99 462.07 415.919 462.153 415.839L462.576 415.336C462.714 415.165 462.842 414.987 462.959 414.801L463.326 414.26C463.569 413.895 463.769 413.501 463.99 413.125L464.313 412.556C464.413 412.362 464.503 412.16 464.6 411.963C465.39 410.401 466.036 408.77 466.675 407.142C467.251 405.485 467.89 403.854 468.376 402.165L469.156 399.655C469.292 399.24 469.399 398.812 469.516 398.389L469.861 397.121C470.816 393.745 471.603 390.316 472.417 386.914L473.525 381.765L474.074 379.189L474.56 376.601L475.566 371.43C475.741 370.568 475.887 369.702 476.033 368.835L476.483 366.24L477.399 361.047C477.559 360.184 477.685 359.314 477.824 358.447L478.242 355.844L479.085 350.636L479.513 348.034L479.899 345.424C480.414 341.942 480.942 338.474 481.525 334.99Z" fill="#353535"/>
<path d="M469.479 419.09C468.691 421.226 467.755 423.304 466.677 425.309C465.61 427.327 464.416 429.275 463.1 431.141C461.791 433.037 460.265 434.774 458.554 436.317C457.682 437.097 456.699 437.743 455.638 438.234C455.098 438.472 454.524 438.625 453.937 438.686C453.355 438.739 452.769 438.641 452.236 438.402C452.783 438.504 453.345 438.483 453.883 438.341C454.407 438.194 454.907 437.972 455.368 437.683C456.293 437.093 457.141 436.391 457.893 435.593C459.419 433.972 460.822 432.239 462.09 430.41C463.387 428.587 464.622 426.711 465.839 424.82L469.479 419.09Z" fill="#353535"/>
<path d="M401.839 171.363C392.734 145.294 388.309 162.734 365.097 155.921C341.886 149.107 359.598 168.413 372.997 171.363C386.397 174.314 384.353 169.32 388.895 186.58C393.436 203.841 397.485 255.836 453.373 204.524C448.851 187.718 441.357 182.719 441.357 182.719C441.357 182.719 418.419 218.829 401.839 171.363Z" fill="#FCC0A9"/>
<path d="M453.371 204.524C450.491 207.17 447.75 209.537 445.14 211.651C441.252 202.796 435.379 194.684 433.124 191.725C438.086 187.873 441.357 182.734 441.357 182.734C441.357 182.734 448.851 187.718 453.371 204.524Z" fill="#FC9A74"/>
<path d="M434.543 188.398C443.4 200.662 453.373 212.244 453.373 212.244C453.373 212.244 470.055 190.918 472.699 169.32C475.343 147.722 485.795 123.822 470.048 139.187C454.301 154.553 439.767 187.489 434.543 188.398Z" fill="#EF4444"/>
<g opacity="0.15">
<path opacity="0.15" d="M472.699 169.32C470.055 190.918 453.371 212.244 453.371 212.244C453.371 212.244 450.899 209.372 447.325 204.973C451.599 198.959 462.877 181.708 465.006 164.287C466.089 155.41 468.498 146.142 469.866 139.375C469.929 139.311 469.987 139.251 470.05 139.19C485.795 123.822 475.341 147.717 472.699 169.32Z" fill="black"/>
</g>
<path d="M483.902 128.896C456.547 143.43 463.387 164.778 461.788 177.951C460.189 191.125 448.841 209.299 448.841 224.508C448.841 239.718 452.486 249.943 449.978 264.251C510.843 264.025 527.649 264.251 527.649 264.251C527.649 264.251 539.722 151.705 514.406 135.81C488.071 119.271 483.902 128.896 483.902 128.896Z" fill="#EF4444"/>
<g opacity="0.15">
<path opacity="0.15" d="M526.794 157.362C534.701 196.444 527.659 264.251 527.659 264.251C527.659 264.251 519.049 264.135 491.838 264.154C493.668 252.361 498.29 243.256 501.174 229.879C504.591 214.054 497.57 192.762 498.97 178.726C499.48 173.638 501.313 167.667 502.324 161.126L526.794 157.362Z" fill="black"/>
</g>
<path d="M453.375 230.685L417.212 236.969C413.965 237.536 410.148 235.497 408.685 232.418L388.073 188.991C386.615 185.912 388.059 182.96 391.305 182.393L427.469 176.109C430.718 175.543 434.535 177.582 435.996 180.661L456.6 224.088C458.07 227.179 456.624 230.119 453.375 230.685Z" fill="#0E1D73"/>
<path d="M421.107 214.696C425.441 214.696 428.954 212.154 428.954 209.019C428.954 205.884 425.441 203.343 421.107 203.343C416.774 203.343 413.261 205.884 413.261 209.019C413.261 212.154 416.774 214.696 421.107 214.696Z" fill="#F2F2F2"/>
<g opacity="0.3">
<path opacity="0.3" d="M453.375 230.683L417.212 236.969C413.965 237.536 410.148 235.497 408.685 232.418L405.742 226.224C414.369 217.704 429.053 212.006 441.106 191.438L456.6 224.088C458.073 227.179 456.624 230.119 453.375 230.683Z" fill="black"/>
</g>
<path d="M425.496 219.437C414.009 222.55 425.301 247.183 456.175 243.667C487.048 240.15 515.626 250.483 528.716 244.046C541.807 237.609 533.212 195.044 533.212 195.044C533.212 195.044 515.429 199.506 509.371 199.506C509.371 230.768 523.001 224.712 463.2 230.379C430.487 233.48 446.411 213.77 425.496 219.437Z" fill="#FCC0A9"/>
<path d="M535.632 213.085C530.881 213.364 516.078 214.246 510.374 214.708C510.131 212.455 509.82 209.768 509.611 206.548H534.988C535.231 208.575 535.457 210.781 535.632 213.085Z" fill="#FC9A74"/>
<path d="M429.982 218.526C430.4 219.255 430.764 219.984 431.129 220.713C431.493 221.442 431.913 222.141 432.295 222.853C433.086 224.249 433.961 225.595 434.915 226.885C435.853 228.168 436.923 229.35 438.108 230.411C438.416 230.654 438.713 230.926 439.029 231.167C439.344 231.407 439.665 231.653 440.001 231.859C440.673 232.316 441.395 232.694 442.154 232.987C441.316 232.938 440.493 232.742 439.724 232.408C439.332 232.249 438.949 232.066 438.579 231.862C438.392 231.762 438.21 231.654 438.035 231.536L437.498 231.193C436.119 230.209 434.907 229.009 433.909 227.641C432.91 226.292 432.072 224.833 431.41 223.291C431.104 222.516 430.818 221.733 430.56 220.946C430.356 220.132 430.137 219.337 429.982 218.526Z" fill="#FC9A74"/>
<path d="M425.496 219.437C426.053 221.061 426.697 222.654 427.425 224.209C428.135 225.741 428.962 227.215 429.899 228.62C430.362 229.319 430.863 229.992 431.398 230.637C431.656 230.967 431.947 231.269 432.22 231.587C432.492 231.905 432.793 232.199 433.102 232.486C434.331 233.672 435.684 234.721 437.138 235.616C435.431 235.147 433.836 234.337 432.451 233.234C431.75 232.689 431.1 232.082 430.507 231.422C430.2 231.098 429.923 230.749 429.641 230.403C429.36 230.058 429.107 229.694 428.861 229.325C427.878 227.851 427.091 226.255 426.519 224.579C425.928 222.924 425.583 221.192 425.496 219.437V219.437Z" fill="#FC9A74"/>
<path d="M422.337 221.415C422.58 222.258 422.823 223.082 423.109 223.891C423.396 224.7 423.705 225.492 424.04 226.272C424.705 227.823 425.503 229.312 426.426 230.724C426.538 230.902 426.669 231.072 426.779 231.244C426.888 231.417 427.022 231.589 427.148 231.755C427.391 232.097 427.656 232.42 427.916 232.748C428.45 233.397 429.018 234.016 429.617 234.605C430.853 235.791 432.194 236.861 433.624 237.803C431.932 237.281 430.352 236.45 428.963 235.351L428.446 234.931C428.276 234.785 428.115 234.632 427.96 234.481L427.717 234.255L427.474 234.012C427.318 233.852 427.16 233.696 427.01 233.526C426.412 232.863 425.865 232.156 425.372 231.412C424.396 229.924 423.635 228.307 423.109 226.608C422.573 224.93 422.312 223.176 422.337 221.415V221.415Z" fill="#FC9A74"/>
<path d="M518.403 138.842C545.146 180.904 546.28 212.244 546.28 212.244L504.899 214.3C504.899 214.3 496.317 154.57 503.585 145.486C510.853 136.403 518.403 138.842 518.403 138.842Z" fill="#EF4444"/>
<path d="M486.246 99.9765C490.788 125.11 493.799 125.735 498.795 127.847C472.755 160.246 471.409 146.458 470.046 139.19C474.133 133.892 472.772 125.11 470.954 115.572C481.253 99.9765 486.246 99.9765 486.246 99.9765Z" fill="#FCC0A9"/>
<path d="M482.536 101.87C480.366 109.288 476.373 116.029 471.878 120.722C471.606 119.043 471.292 117.32 470.957 115.572C476.155 107.699 480.004 103.799 482.536 101.87Z" fill="#FC9A74"/>
<path d="M487.461 77.2655C491.758 99.4541 472.019 124.96 460.512 120.265C449.006 115.57 454.758 75.9022 455.213 72.8793C455.667 69.8563 482.917 53.7987 487.461 77.2655Z" fill="#FCC0A9"/>
<path d="M475.972 86.3513C487.328 86.8058 481.102 98.6133 481.102 98.6133C481.102 98.6133 486.465 103.211 488.3 110.387C497.454 101.036 508.051 99.3715 503.509 93.6196C498.968 87.8677 501.541 89.0778 502.904 88.169C504.268 87.2602 506.537 87.2602 503.055 83.3235C499.573 79.3869 499.874 79.8413 501.692 75.4527C503.509 71.064 500.783 70.1528 496.846 68.7895C492.91 67.4263 491.396 70.9085 491.549 63.6427C491.702 56.3769 487.904 60.6149 482.315 61.2127C476.726 61.8105 477.319 63.0279 472.169 58.6393C467.02 54.2507 467.023 56.8216 462.33 61.3634C457.638 65.9051 454.311 64.7022 449.828 68.3278C443.947 73.0907 448.097 81.8023 455.818 78.9276C463.538 76.0529 460.512 81.9554 467.931 79.9871C475.35 78.0188 475.654 78.4732 475.805 80.1378C475.955 81.8023 475.972 86.3513 475.972 86.3513Z" fill="#FC9A74"/>
<path d="M453.655 88.9612C453.64 89.0049 453.548 88.9612 453.575 88.8907C453.593 88.849 453.623 88.813 453.66 88.7862L453.808 88.6623C453.905 88.581 454.01 88.5093 454.122 88.4485C454.34 88.3227 454.573 88.2255 454.816 88.1593C455.306 88.0254 455.818 87.9947 456.32 88.0692C456.822 88.1436 457.303 88.3216 457.732 88.5918C458.169 88.859 458.519 89.2474 458.739 89.7096C458.216 89.6562 457.784 89.5784 457.361 89.5128L456.146 89.3184L454.931 89.1435L454.277 89.0511L453.93 88.9976L453.747 88.9661C453.725 88.9631 453.704 88.9548 453.687 88.9418C453.648 88.9102 453.621 88.9612 453.655 88.9612Z" fill="#333333"/>
<path d="M464.391 89.9867C464.821 89.2446 465.412 88.6085 466.121 88.1253C466.83 87.6281 467.621 87.2611 468.459 87.0415C469.313 86.7964 470.212 86.7523 471.086 86.9127C471.53 87.001 471.954 87.1725 472.335 87.4181C472.709 87.6544 473.015 87.9845 473.222 88.3756C472.528 88.0282 471.758 87.861 470.983 87.8895C470.237 87.9254 469.498 88.0469 468.779 88.2516C468.035 88.4456 467.304 88.6891 466.592 88.9806C465.873 89.2795 465.161 89.6222 464.391 89.9867Z" fill="#333333"/>
<path d="M459.929 91.6197C460.455 91.9004 460.899 92.3133 461.217 92.8177C461.549 93.3354 461.775 93.9134 461.883 94.5187C462.076 95.7254 461.93 96.9619 461.463 98.0908C461.356 98.3679 461.237 98.64 461.108 98.9049C460.979 99.1698 460.836 99.4225 460.702 99.6606C460.439 100.092 460.229 100.554 460.078 101.036C459.953 101.491 459.998 101.975 460.204 102.399C460.454 102.89 460.75 103.357 461.088 103.792C460.558 103.531 460.081 103.172 459.684 102.735C459.468 102.488 459.303 102.202 459.198 101.891C459.095 101.567 459.058 101.226 459.088 100.888C459.165 100.272 459.346 99.6748 459.626 99.1212C459.869 98.6011 460.092 98.137 460.279 97.6388C460.676 96.6834 460.885 95.6602 460.894 94.6256C460.894 93.5475 460.556 92.4965 459.929 91.6197V91.6197Z" fill="#333333"/>
<path d="M459.249 106.965C459.849 107.347 460.369 107.772 460.875 107.903C461.387 108.037 461.927 108.024 462.432 107.864C462.698 107.788 462.957 107.688 463.205 107.566C463.471 107.43 463.729 107.279 463.978 107.114C464.5 106.781 465.028 106.368 465.654 106.025C465.437 106.701 465.084 107.327 464.619 107.864C464.38 108.142 464.106 108.387 463.803 108.593C463.481 108.809 463.128 108.973 462.755 109.079C462.372 109.187 461.973 109.223 461.577 109.186C461.177 109.154 460.791 109.025 460.452 108.81C460.113 108.595 459.832 108.3 459.633 107.952C459.458 107.643 459.329 107.311 459.249 106.965Z" fill="#333333"/>
<path d="M475.535 95.3983C475.182 95.1155 474.747 94.9544 474.296 94.9391C473.095 94.8214 471.887 95.0759 470.835 95.6681C470.419 95.8879 470.057 96.1965 469.773 96.572C469.633 96.7603 469.533 96.9756 469.48 97.2044C469.427 97.4331 469.422 97.6704 469.465 97.9013C469.53 98.1381 469.645 98.3583 469.802 98.5473C469.96 98.7362 470.155 98.8896 470.376 98.9972C470.819 99.2099 471.301 99.3283 471.793 99.3447C472.952 99.4253 474.114 99.2451 475.195 98.8174C475.63 98.667 476.027 98.4231 476.359 98.103C476.523 97.9418 476.648 97.7447 476.724 97.5271C476.799 97.3096 476.823 97.0775 476.794 96.8491C476.758 96.6211 476.642 96.4132 476.467 96.2628C476.292 96.1123 476.069 96.029 475.839 96.0277" fill="#FC9A74"/>
<path d="M453.553 96.487C454.109 96.3984 454.677 96.429 455.22 96.5769C455.512 96.6873 455.778 96.8563 456.002 97.0737C456.226 97.291 456.403 97.552 456.522 97.8405C456.757 98.4215 456.816 99.0588 456.69 99.6728C456.638 100.027 456.515 100.368 456.328 100.674C456.141 100.98 455.895 101.245 455.604 101.454C455.001 101.838 454.131 101.84 453.621 101.337" fill="#FC9A74"/>
<path d="M465.377 93.1627C465.431 92.8256 465.533 92.4981 465.681 92.1907C465.844 91.859 466.078 91.567 466.366 91.3353C466.975 90.8758 467.732 90.6569 468.493 90.7205C468.863 90.7491 469.226 90.8361 469.569 90.9781C469.899 91.1165 470.207 91.3006 470.485 91.5249C471.023 91.9547 471.433 92.5236 471.671 93.17C471.052 92.8784 470.512 92.5868 469.97 92.3729C469.469 92.1616 468.939 92.0288 468.398 91.9793C467.883 91.9354 467.365 92.0034 466.879 92.1785C466.619 92.2802 466.374 92.4159 466.15 92.5819C465.91 92.7545 465.662 92.9683 465.377 93.1627Z" fill="#333333"/>
<path d="M454.727 93.5053C454.568 93.2227 454.475 92.9079 454.454 92.5844C454.443 92.4036 454.466 92.2224 454.52 92.0497C454.579 91.8619 454.672 91.6864 454.795 91.5322C455.047 91.2347 455.377 91.0139 455.748 90.895C456.119 90.776 456.516 90.7635 456.894 90.859C457.582 91.037 458.176 91.4717 458.554 92.0741C458.89 92.6099 459.083 93.2233 459.113 93.8553C458.61 93.4689 458.214 93.0436 457.805 92.7277C457.456 92.4308 457.046 92.2128 456.605 92.0886C456.419 92.0411 456.226 92.0296 456.036 92.0546C455.844 92.0779 455.659 92.1399 455.492 92.2369C455.305 92.3453 455.154 92.5069 455.059 92.701C454.933 92.9625 454.822 93.231 454.727 93.5053V93.5053Z" fill="#333333"/>
<path d="M456.651 91.4787C456.564 91.4292 456.464 91.4078 456.364 91.4174C456.265 91.427 456.171 91.467 456.095 91.5321C455.931 91.6759 455.815 91.8656 455.762 92.0765C455.632 92.555 455.64 93.0606 455.786 93.5345C455.931 93.9966 456.144 94.4347 456.418 94.8346C456.488 94.9631 456.591 95.0705 456.717 95.1456C456.828 95.1825 456.949 95.1805 457.06 95.1399C457.17 95.0993 457.263 95.0225 457.324 94.922C457.501 94.657 457.587 94.3411 457.567 94.0229C457.546 93.7061 457.487 93.3929 457.392 93.0898C457.212 92.441 456.999 91.7679 456.544 91.328" fill="#333333"/>
<path d="M467.557 91.5832C467.567 91.561 467.571 91.5369 467.57 91.5128C467.569 91.4887 467.562 91.4651 467.55 91.444C467.538 91.4229 467.522 91.4047 467.502 91.3909C467.482 91.3772 467.46 91.3681 467.436 91.3645C467.386 91.3675 467.338 91.3826 467.296 91.4084C467.253 91.4342 467.218 91.4701 467.193 91.5127C466.923 91.87 466.896 92.3875 466.93 92.8565C466.967 93.3873 467.063 93.9123 467.217 94.4215C467.293 94.7161 467.425 94.9933 467.606 95.238C467.688 95.352 467.798 95.4429 467.926 95.5021C468.054 95.5612 468.195 95.5866 468.335 95.5757C468.442 95.5559 468.544 95.5128 468.634 95.4494C469.074 95.1529 469.27 94.509 469.212 93.9282C469.133 93.3595 468.919 92.8179 468.588 92.3487C468.325 91.9356 468.004 91.5346 467.574 91.3937C467.528 91.3725 467.478 91.3627 467.428 91.3653C467.377 91.3678 467.328 91.3826 467.285 91.4083" fill="#333333"/>
<g opacity="0.07">
<path opacity="0.07" d="M503.5 93.6171C508.041 99.3714 497.444 101.036 488.29 110.384C486.988 105.281 483.899 101.483 482.215 99.7141C482.536 94.2659 485.333 91.7436 482.614 90.6233C482.471 89.9378 482.182 89.2914 481.765 88.7291C481.347 88.1668 480.813 87.702 480.198 87.3671C479.18 86.7936 477.802 86.4218 475.953 86.3465C475.953 86.3465 475.953 83.5446 475.865 81.535C480.83 77.3238 483.032 80.7234 486.684 83.377C490.771 86.3465 496.372 78.0552 497.736 79.5521C498.795 80.7161 501.23 84.2688 502.839 83.0878L503.043 83.3162C506.525 87.2529 504.258 87.2529 502.892 88.1617C501.526 89.0705 498.968 87.8652 503.5 93.6171Z" fill="black"/>
</g>
<g opacity="0.15">
<path opacity="0.15" d="M482.633 90.6282L480.218 87.3719C480.832 87.7069 481.367 88.1717 481.784 88.734C482.201 89.2963 482.491 89.9427 482.633 90.6282V90.6282Z" fill="black"/>
</g>
<path d="M480.193 97.7506C483.902 88.621 488.212 88.1326 490.336 92.7691C492.46 97.4056 485.272 108.321 480.949 104.518C478.376 102.249 480.193 97.7506 480.193 97.7506Z" fill="#FDAF91"/>
<path d="M204.256 415.735H182.908C182.979 422.604 183.098 428.857 183.249 434.584H202.203C203.167 423.387 204.256 415.735 204.256 415.735Z" fill="#FC9A74"/>
<path d="M203.148 496.477C199.561 477.457 200.733 451.823 202.21 434.584H183.256C185.02 501.787 191.107 493.374 174.751 509.529L174.231 510.034C175.655 511.468 177.045 513.356 177.696 515.657C189.465 500.902 198.096 497.124 203.148 496.477Z" fill="#FCC0A9"/>
<path d="M203.148 496.477C198.098 497.124 189.467 500.902 177.686 515.662C177.035 513.361 175.645 511.473 174.221 510.039C157.194 526.957 154.581 535.28 179.297 521.339C193.812 512.255 191.994 514.071 191.994 514.071C191.994 514.071 190.859 521.932 190.859 527.766H198.58C198.58 527.766 196.536 514.753 205.167 504.761C204.338 502.04 203.663 499.275 203.148 496.477V496.477Z" fill="#4D4D4D"/>
<path d="M214.628 415.735H235.975C235.905 422.604 235.786 428.857 235.635 434.584H216.681C215.716 423.387 214.628 415.735 214.628 415.735Z" fill="#FC9A74"/>
<path d="M215.736 496.477C219.322 477.457 218.166 451.823 216.676 434.584H235.63C233.864 501.787 227.779 493.374 244.135 509.529L244.651 510.039C243.227 511.473 241.837 513.361 241.183 515.662C229.417 500.902 220.788 497.124 215.736 496.477Z" fill="#FCC0A9"/>
<path d="M215.736 496.477C220.788 497.124 229.417 500.902 241.197 515.662C241.851 513.361 243.241 511.473 244.665 510.039C261.69 526.957 264.302 535.28 239.589 521.339C225.074 512.255 226.889 514.071 226.889 514.071C226.889 514.071 228.027 521.932 228.027 527.766H220.304C220.304 527.766 222.348 514.753 213.719 504.761C214.548 502.04 215.221 499.275 215.736 496.477Z" fill="#4D4D4D"/>
<path d="M181.091 183.173C155.201 214.278 167.011 220.193 143.846 191.576C134.988 180.221 129.594 189.232 117.047 183.173C96.6059 173.308 95.2426 186.354 115.456 196.633C128.962 203.503 123.633 189.078 139.075 218.603C154.518 248.128 158.834 239.951 188.585 209.291L181.091 183.173Z" fill="#FCC0A9"/>
<path d="M188.585 209.291C158.834 239.951 154.518 248.128 139.075 218.603C137.941 216.431 136.925 214.472 136.014 212.706C137.127 213.882 138.342 215.159 139.659 216.538C162.562 240.498 164.542 231.665 184.33 194.456L188.585 209.291Z" fill="#FC9A74"/>
<path d="M184.286 194.859L183.295 191.411L184.826 193.841L184.782 193.921L184.573 194.31L184.286 194.859ZM184.199 193.438L184.374 194.038C184.403 193.98 184.434 193.921 184.466 193.863L184.199 193.438Z" fill="#4D4D4D"/>
<path d="M248.769 193.849C256.038 229.959 256.038 232 269.208 225.417C265.806 215.877 272.161 210.881 275.568 207.702C278.975 204.524 288.967 202.478 288.513 214.062C288.058 225.646 288.967 227.461 283.745 233.366C278.523 239.271 240.138 269.476 236.731 217.24L248.769 193.849Z" fill="#FCC0A9"/>
<path d="M274.209 240.979C260.997 249.382 239.258 255.955 236.731 217.24L248.769 193.849C249.134 195.671 249.483 197.408 249.817 199.059L241.773 208.742C239.078 242.415 258.339 244.828 274.209 240.979Z" fill="#FC9A74"/>
<path d="M172.136 228.596C172.136 228.596 163.145 208.611 161.332 207.248C177.684 178.406 191.666 160.691 214.2 162.96C236.734 165.23 247.635 175.453 256.264 215.651C248.769 222.455 236.731 225.643 236.731 225.643C236.731 225.643 236.488 239.453 250.582 272.611C264.676 305.768 243.778 420.731 244.002 429.814C173.825 428.679 174.053 427.542 174.053 427.542C174.053 427.542 158.611 305.812 165.876 283.101C173.142 260.39 180.867 250.828 184.5 236.986C188.133 223.145 188.587 211.789 188.587 211.789L172.136 228.596Z" fill="#08B952"/>
<path d="M186.789 276.227C189.31 280.238 192.181 284.019 195.369 287.524C195.749 287.973 196.179 288.377 196.584 288.8L197.8 290.063L199.08 291.278C199.503 291.682 199.921 292.09 200.373 292.466L201.695 293.621L202.025 293.91L202.368 294.184L203.056 294.731C203.515 295.096 203.962 295.46 204.424 295.83L205.843 296.865L206.548 297.387C206.791 297.562 207.034 297.715 207.277 297.873L208.735 298.845L209.097 299.088L209.471 299.317L210.219 299.774C210.72 300.077 211.216 300.391 211.721 300.687C213.752 301.858 215.841 302.926 217.978 303.888C218.518 304.131 219.045 304.374 219.59 304.617L221.23 305.268L222.049 305.598C222.319 305.703 222.583 305.793 222.856 305.878C223.399 306.05 223.954 306.187 224.515 306.286C225.632 306.515 226.784 306.521 227.903 306.303C228.458 306.188 228.982 305.956 229.441 305.623C229.673 305.451 229.882 305.25 230.063 305.025C230.24 304.789 230.392 304.535 230.515 304.267C230.449 304.563 230.345 304.849 230.206 305.12C230.059 305.393 229.877 305.645 229.664 305.87C229.217 306.318 228.68 306.664 228.087 306.886C227.5 307.111 226.886 307.256 226.26 307.316C225.639 307.383 225.014 307.398 224.391 307.363C223.769 307.324 223.151 307.243 222.54 307.12C222.236 307.061 221.927 306.983 221.631 306.901L220.763 306.643L219.028 306.116C218.452 305.931 217.889 305.713 217.327 305.506L216.474 305.19L216.049 305.032C215.908 304.976 215.77 304.913 215.631 304.855L213.967 304.126C213.689 304.002 213.408 303.883 213.135 303.754L212.326 303.346L210.703 302.522C210.168 302.238 209.651 301.919 209.126 301.618L208.339 301.161L207.945 300.933L207.563 300.69L206.045 299.689C205.802 299.518 205.534 299.36 205.289 299.181L204.56 298.644L203.102 297.56C202.616 297.183 202.159 296.794 201.692 296.408C200.745 295.65 199.86 294.819 198.973 293.995C198.524 293.589 198.103 293.152 197.68 292.717L196.419 291.409C196.016 290.96 195.622 290.501 195.226 290.044C194.83 289.587 194.424 289.137 194.062 288.649C191.037 284.89 188.586 280.704 186.789 276.227Z" fill="#027370"/>
<path d="M206.271 315.89C208.718 316.259 211.092 316.648 213.476 316.913C215.86 317.177 218.226 317.365 220.603 317.44C222.98 317.515 225.359 317.488 227.75 317.367C230.141 317.245 232.542 317.022 235.006 316.813C232.772 317.89 230.401 318.657 227.959 319.092C223.048 319.99 218.003 319.824 213.162 318.606C210.752 318.018 208.434 317.104 206.271 315.89V315.89Z" fill="#2291F2"/>
<path d="M195.948 248.32C198.847 248.446 201.685 248.527 204.506 248.42C207.317 248.325 210.119 248.067 212.9 247.647C215.679 247.222 218.432 246.639 221.145 245.9C223.874 245.171 226.559 244.25 229.295 243.275C226.974 245.047 224.416 246.484 221.696 247.545C216.226 249.711 210.334 250.602 204.468 250.15C201.556 249.94 198.688 249.324 195.948 248.32Z" fill="#027370"/>
<path d="M206.246 253.472C207.408 253.185 208.492 253.037 209.561 252.874L212.72 252.444C213.765 252.303 214.812 252.167 215.879 252.036C216.946 251.904 218.037 251.776 219.237 251.754C218.411 252.586 217.428 253.246 216.346 253.698C214.205 254.624 211.849 254.935 209.541 254.594C208.38 254.439 207.261 254.058 206.246 253.472Z" fill="#027370"/>
<g opacity="0.3">
<path opacity="0.3" d="M183.645 428.3C174.109 427.853 174.051 427.549 174.051 427.542C174.051 427.535 158.608 305.812 165.874 283.101C166.17 282.178 166.467 281.275 166.763 280.392C166.729 318.004 179.876 404.328 183.645 428.3Z" fill="black"/>
</g>
<g opacity="0.3">
<path opacity="0.3" d="M195.046 198.874C195.046 198.874 191.644 214.054 187.999 227.896C187.3 230.625 186.233 233.246 184.826 235.686C188.155 222.443 188.58 211.79 188.58 211.79L172.131 228.596L195.046 198.874Z" fill="black"/>
</g>
<path d="M292.942 223.735H258.963C257.462 223.735 256.835 222.52 257.561 221.007L280.078 174.335C280.807 172.826 282.612 171.604 284.114 171.604H318.088C319.59 171.604 320.217 172.819 319.488 174.335L296.974 221.007C296.25 222.513 294.444 223.735 292.942 223.735Z" fill="#EF4444"/>
<g opacity="0.3">
<path opacity="0.3" d="M307.839 198.505L296.979 221.014C296.25 222.523 294.442 223.743 292.943 223.743H258.963C257.462 223.743 256.835 222.528 257.564 221.014L261.209 213.454C282.367 210.922 299.443 203.039 307.839 198.505Z" fill="black"/>
</g>
<path d="M221.524 99.3301C202.929 97.4153 177.907 118.107 189.409 119.286C200.91 120.464 188.663 125.939 182.24 130.08C175.817 134.22 168.498 138.801 177.46 139.836C186.422 140.871 185.525 143.384 176.265 146.932C167.004 150.48 170.739 153.736 214.504 160.385C261.104 146.341 260.509 146.636 251.396 143.681C242.284 140.726 243.778 140.427 246.779 136.582C249.78 132.738 251.396 133.479 244.089 131.261C236.782 129.042 241.688 101.401 221.524 99.3301Z" fill="#4D4D4D"/>
<path d="M213.111 136.011C210.538 150.091 208.416 158.873 201.906 163.869C218.863 182.947 230.372 167.201 230.372 167.201C220.831 156.3 226.282 145.549 226.282 145.549L213.111 136.011Z" fill="#FCC0A9"/>
<path d="M224.749 153.848C222.502 152.74 220.384 151.389 218.431 149.821C215.877 147.808 213.649 145.414 211.823 142.723C212.253 140.635 212.683 138.398 213.116 136.011L226.287 145.549C226.287 145.549 224.566 148.944 224.749 153.848Z" fill="#FC9A74"/>
<path d="M217.05 103.157C193.43 114.513 201.182 135.103 212.961 144.339C224.739 153.576 232.342 150.545 236.731 145.095C241.12 139.644 238.823 113.575 230.979 106.032C223.135 98.4894 217.05 103.157 217.05 103.157Z" fill="#FCC0A9"/>
<path d="M218.943 122.005C218.919 121.934 218.904 121.864 218.885 121.793V121.774L218.938 121.728C219.466 121.256 220.214 121.081 220.882 121.047C221.217 121.033 221.552 121.04 221.886 121.069C222.236 121.097 222.582 121.161 222.919 121.259C223.623 121.467 224.249 121.883 224.714 122.452C225.153 122.981 225.465 123.602 225.628 124.27C225.045 123.903 224.554 123.492 224.056 123.174C223.599 122.858 223.093 122.619 222.559 122.466C222.294 122.389 222.015 122.328 221.716 122.27L220.812 122.075C220.217 121.93 219.606 121.863 218.994 121.874L219.04 121.81C219.004 121.876 218.972 121.942 218.943 122.005Z" fill="#333333"/>
<path d="M223.495 122.578C223.281 122.49 223.046 122.466 222.818 122.509C222.591 122.552 222.381 122.661 222.214 122.821C221.886 123.153 221.695 123.597 221.679 124.063C221.651 124.617 221.796 125.167 222.095 125.635C222.393 126.103 222.83 126.467 223.344 126.675C223.721 126.819 224.19 126.86 224.486 126.588C224.824 126.279 224.775 125.742 224.7 125.293C224.53 124.279 224.287 123.149 223.424 122.593" fill="#333333"/>
<path d="M235.749 118.979C235.424 119.395 235.135 119.723 234.877 120.053C234.619 120.384 234.391 120.697 234.184 121.025C233.978 121.353 233.779 121.694 233.584 122.063L232.95 123.293C232.687 122.845 232.573 122.325 232.624 121.808C232.669 121.286 232.84 120.784 233.124 120.344C233.408 119.904 233.795 119.541 234.252 119.286C234.707 119.029 235.231 118.922 235.749 118.979V118.979Z" fill="#333333"/>
<path d="M234.777 121.013C234.627 120.846 234.347 120.996 234.206 121.174C233.745 121.74 233.616 122.503 233.555 123.232C233.506 123.582 233.524 123.938 233.608 124.282C233.652 124.454 233.737 124.612 233.856 124.743C233.975 124.875 234.125 124.975 234.291 125.035C234.479 125.078 234.676 125.068 234.858 125.006C235.041 124.944 235.203 124.833 235.327 124.685C235.57 124.385 235.728 124.025 235.783 123.643C235.917 122.932 235.882 122.199 235.681 121.504C235.584 121.171 235.327 120.775 234.991 120.875" fill="#333333"/>
<path d="M229.963 120.634C229.956 121.765 230.076 122.893 230.321 123.997C230.562 125.06 230.93 126.089 231.417 127.064C231.66 127.55 231.944 128.065 232.182 128.627C232.442 129.206 232.596 129.827 232.636 130.461C232.661 131.689 232.291 132.892 231.579 133.892C231.752 132.728 231.873 131.596 231.65 130.583C231.426 129.569 230.826 128.702 230.287 127.625C229.742 126.535 229.421 125.347 229.341 124.131C229.253 122.932 229.467 121.73 229.963 120.634V120.634Z" fill="#FC9A74"/>
<path d="M220.003 116.26C220.392 115.932 220.872 115.73 221.378 115.679C221.857 115.618 222.343 115.636 222.817 115.73C223.294 115.823 223.751 115.998 224.168 116.248C224.614 116.495 224.971 116.877 225.188 117.339C224.673 117.276 224.253 117.237 223.823 117.176C223.393 117.116 222.982 117.052 222.566 116.967C222.151 116.882 221.74 116.785 221.322 116.668C220.904 116.552 220.498 116.413 220.003 116.26Z" fill="#333333"/>
<path d="M231.336 116.775C231.327 116.389 231.428 116.008 231.628 115.677C231.82 115.35 232.087 115.073 232.408 114.87C232.746 114.656 233.138 114.542 233.538 114.542C233.743 114.536 233.946 114.574 234.134 114.655C234.323 114.735 234.492 114.855 234.629 115.006C234.332 115.159 234.042 115.327 233.762 115.509L233.076 115.942C232.848 116.085 232.59 116.229 232.325 116.374C232.012 116.545 231.68 116.679 231.336 116.775V116.775Z" fill="#333333"/>
<path d="M226.192 136.296C228.529 137.093 231.06 137.121 233.414 136.376C233.295 137.456 233.043 138.517 232.663 139.535C232.391 140.264 231.973 141.042 231.229 141.268C230.486 141.494 229.711 141.085 229.069 140.645C227.388 139.486 225.91 137.972 225.106 136.084" fill="#EF4444"/>
<path d="M221.164 129.416C220.436 128.829 219.556 128.459 218.626 128.351C217.696 128.243 216.754 128.401 215.911 128.806C215.512 128.973 215.182 129.27 214.973 129.647C214.876 129.897 214.845 130.167 214.884 130.432C214.923 130.697 215.029 130.947 215.194 131.159C215.53 131.576 215.959 131.909 216.448 132.131C218.11 132.988 220.146 133.3 221.862 132.558C222.294 132.371 222.734 132.072 222.834 131.611C222.943 131.069 222.525 130.575 222.139 130.179" fill="#FC9A74"/>
<path d="M238.296 125.234C236.731 125.988 235.9 128.286 236.068 129.657C236.111 130.038 236.277 130.481 236.651 130.556C236.865 130.577 237.079 130.524 237.258 130.405C237.776 130.114 238.383 129.392 238.716 128.894" fill="#FC9A74"/>
<path d="M220.353 112.916C208.394 117.704 226.185 116.907 218.051 121.057C209.918 125.208 206.698 126.738 209.918 128.209C212.382 129.331 207.503 128.568 203.253 131.368C199.607 121.832 201.688 110.54 217.05 103.157C217.05 103.157 221.359 99.8161 227.436 103.32C227.558 103.547 227.669 103.78 227.767 104.018C214.154 107.806 232.308 108.124 220.353 112.916Z" fill="#FC9A74"/>
<path d="M226.94 103.046C214.778 106.64 231.001 106.934 220.316 111.483C209.631 116.032 225.529 115.269 218.26 119.205C210.992 123.142 208.117 124.595 210.992 125.988C213.867 127.38 205.542 125.715 201.909 132.529C194.035 124.656 191.642 117.388 201.695 109.062C211.748 100.737 223.803 95.063 226.94 103.046Z" fill="#4D4D4D"/>
<path d="M269.208 225.417C265.806 215.877 272.161 210.881 275.568 207.702C278.975 204.524 288.967 202.478 288.513 214.062C288.058 225.646 288.967 227.461 283.745 233.366" fill="#FCC0A9"/>
<path d="M269.891 209.177C270.464 209.542 270.987 209.982 271.444 210.485C271.558 210.611 271.687 210.728 271.787 210.864L272.107 211.26C272.326 211.522 272.511 211.809 272.705 212.088C273.45 213.229 274.049 214.459 274.489 215.748L274.793 216.72C274.89 217.046 274.955 217.379 275.036 217.709C275.186 218.368 275.298 219.035 275.371 219.706C275.422 220.039 275.429 220.38 275.449 220.715C275.468 221.05 275.475 221.388 275.483 221.723C275.463 222.397 275.427 223.07 275.344 223.735C275.147 223.084 275.019 222.435 274.858 221.791C274.773 221.471 274.693 221.152 274.615 220.834C274.537 220.516 274.477 220.195 274.372 219.881C274.195 219.252 274.056 218.618 273.855 218.003C273.76 217.694 273.687 217.379 273.58 217.075L273.276 216.156C272.857 214.937 272.371 213.742 271.818 212.577C271.672 212.288 271.544 211.989 271.386 211.707L271.16 211.274L270.917 210.849C270.606 210.273 270.263 209.715 269.891 209.177V209.177Z" fill="#FC9A74"/>
<path d="M274.209 207.022C275.277 207.588 276.229 208.349 277.016 209.267C278.633 211.09 279.73 213.313 280.195 215.704C280.312 216.296 280.383 216.895 280.408 217.498C280.427 217.798 280.427 218.099 280.408 218.399C280.394 218.698 280.377 218.997 280.343 219.293C280.236 219.009 280.148 218.725 280.061 218.443C279.973 218.161 279.915 217.877 279.803 217.605C279.609 217.053 279.461 216.501 279.242 215.967C278.475 213.826 277.466 211.78 276.236 209.867C275.609 208.885 274.933 207.935 274.209 207.022V207.022Z" fill="#FC9A74"/>
<path d="M280.224 203.727C281.161 204.586 281.978 205.566 282.654 206.643C283.342 207.715 283.918 208.855 284.372 210.045C284.826 211.246 285.127 212.499 285.268 213.775C285.405 215.05 285.308 216.339 284.984 217.58C284.815 216.354 284.584 215.138 284.292 213.935C283.973 212.764 283.623 211.612 283.191 210.477C282.758 209.342 282.289 208.222 281.784 207.104C281.278 205.987 280.761 204.878 280.224 203.727Z" fill="#FC9A74"/>
<path d="M582.055 123.903C574.199 120.004 567.385 114.289 562.179 107.232C556.972 100.174 553.522 91.9777 552.115 83.3211C547.189 53.1887 567.614 24.7866 597.736 19.8585C627.859 14.9304 656.271 35.362 661.209 65.4847C666.146 95.6073 645.71 124.022 615.587 128.947C610.067 129.856 604.442 129.919 598.903 129.137C592.969 140.376 585.7 146.439 561.48 143.984C573.03 139.185 582.233 132.097 582.055 123.903Z" fill="white"/>
<path d="M571.215 146.808C567.88 146.791 564.548 146.606 561.232 146.254L552.241 145.343L560.596 141.875C572.078 137.112 578.933 131.122 579.71 125.251C571.865 121.1 565.088 115.188 559.911 107.978C554.733 100.769 551.296 92.4582 549.87 83.6978C547.94 71.8142 549.79 59.6248 555.159 48.8491C560.528 38.0734 569.145 29.2555 579.794 23.6394C590.443 18.0233 602.587 15.8926 614.511 17.5478C626.436 19.2029 637.541 24.5605 646.257 32.8646C654.974 41.1687 660.864 52.0001 663.095 63.8307C665.326 75.6613 663.787 87.8938 658.694 98.8026C653.6 109.711 645.211 118.746 634.708 124.631C624.205 130.516 612.12 132.955 600.157 131.603C594.713 141.27 587.749 146.808 571.215 146.808ZM570.255 142.24C576.998 142.327 582.131 141.472 586.07 139.63C590.504 137.554 593.634 134.206 596.871 128.073L597.62 126.653L599.209 126.877C604.52 127.627 609.915 127.565 615.208 126.695C644.04 121.98 663.66 94.6863 658.949 65.854C657.481 56.9003 653.738 48.4737 648.078 41.3818C642.419 34.2899 635.032 28.7705 626.628 25.3525C618.223 21.9346 609.081 20.7327 600.078 21.8621C591.075 22.9915 582.514 26.4143 575.213 31.8024C567.913 37.1905 562.119 44.3634 558.387 52.6334C554.655 60.9035 553.109 69.9936 553.898 79.0325C554.687 88.0715 557.785 96.7562 562.894 104.254C568.003 111.752 574.952 117.813 583.076 121.854L584.31 122.469L584.339 123.844C584.485 130.529 579.56 136.906 570.255 142.24Z" fill="#CCCCCC"/>
<path d="M572.566 91.9015C572.566 91.9015 612.734 93.1311 636.019 57.5385Z" fill="white"/>
<path d="M572.566 91.9015C575.087 91.5801 577.586 91.098 580.046 90.4581C582.495 89.8433 584.906 89.0973 587.255 88.2711C589.605 87.4449 591.916 86.4947 594.154 85.4474C596.392 84.4 598.567 83.2604 600.669 82.0453C602.771 80.8303 604.8 79.4719 606.744 78.0747L608.181 76.9957L608.538 76.7284L608.885 76.4466L609.58 75.8852C610.516 75.1562 611.395 74.3543 612.285 73.5815C615.732 70.4609 618.847 66.9927 621.582 63.2321L632.823 74.0675C628.495 77.6097 623.813 80.6959 618.851 83.2774C617.614 83.8922 616.396 84.5215 615.138 85.0683L614.202 85.4911L613.736 85.7001L613.262 85.8945L611.371 86.6673C608.832 87.6393 606.268 88.5238 603.695 89.2455C601.121 89.9672 598.511 90.5675 595.919 91.0437C593.326 91.52 590.701 91.8627 588.096 92.0935C585.491 92.3244 582.886 92.4386 580.296 92.4143C577.711 92.4069 575.129 92.2357 572.566 91.9015V91.9015Z" fill="#08B952"/>
<path d="M612.99 59.9321L638.415 80.5654L636.019 57.5385L612.99 59.9321Z" fill="#08B952"/>
<path d="M122.833 138.369C130.096 133.154 136.012 126.283 140.09 118.326C144.169 110.369 146.292 101.555 146.285 92.6135C146.285 61.4897 121.057 36.2587 89.9331 36.2587C58.8092 36.2587 33.5782 61.4897 33.5782 92.6135C33.5782 123.737 58.8044 148.968 89.9331 148.968C95.6377 148.974 101.31 148.113 106.756 146.414C114.576 156.749 122.889 161.651 146.852 155.194C134.432 152.271 123.997 146.65 122.833 138.369Z" fill="white"/>
<path d="M128.663 159.748C117.866 159.748 111.757 155.457 106.144 148.327C92.1993 152.4 77.2353 151.108 64.1958 144.704C51.1563 138.3 40.9854 127.248 35.684 113.722C30.3826 100.197 30.3346 85.1774 35.5495 71.6184C40.7643 58.0595 50.8644 46.9429 63.8627 40.4557C76.861 33.9685 91.8164 32.5804 105.787 36.5644C119.757 40.5485 131.73 49.6163 139.352 61.9838C146.973 74.3513 149.69 89.1232 146.969 103.393C144.247 117.663 136.284 130.398 124.646 139.093C126.199 145.316 134.344 150.57 147.245 153.602L153.602 155.099L147.296 156.8C139.775 158.81 133.708 159.748 128.663 159.748ZM107.371 144.497L108.068 145.421C112.442 151.189 116.238 154.113 121.19 155.515C126.068 156.895 132.242 156.764 140.329 155.073C136.198 153.702 132.59 152.042 129.715 150.171C124.678 146.891 121.81 142.998 121.19 138.599L121.052 137.627L121.859 137.044C128.895 131.968 134.628 125.295 138.587 117.574C142.545 109.852 144.616 101.303 144.63 92.6257C144.63 62.4617 120.087 37.9184 89.9233 37.9184C59.7593 37.9184 35.233 62.4496 35.233 92.6135C35.233 122.777 59.7763 147.321 89.9403 147.321C95.4784 147.326 100.985 146.49 106.272 144.842L107.371 144.497Z" fill="#CCCCCC"/>
<g clip-path="url(#clip0)">
<path d="M90.2141 69.0066C84.0648 69.0247 78.1742 70.8688 73.8259 74.1369C69.4777 77.4051 67.0242 81.8324 67 86.4543C67.0005 88.3802 67.4136 90.2935 68.2234 92.1208C68.515 92.7196 69.1007 93.2117 69.8601 93.496C70.6195 93.7803 71.4949 93.8352 72.3065 93.6494C73.0908 93.4238 73.7314 92.9821 74.0978 92.4142C74.4643 91.8462 74.5292 91.1947 74.2793 90.5921C73.5915 89.1685 73.2849 87.6568 73.377 86.1439C73.4749 83.7045 74.5144 81.3391 76.3688 79.3357C78.2232 77.3324 80.8126 75.7774 83.8217 74.8603C86.8307 73.9431 90.1297 73.7032 93.3169 74.1699C96.5041 74.6366 99.442 75.7897 101.773 77.4888C104.104 79.1879 105.727 81.3597 106.445 83.7398C107.164 86.1199 106.946 88.6056 105.818 90.8942C104.69 93.1829 102.702 95.1757 100.094 96.6301C97.4866 98.0846 94.3728 98.9378 91.1316 99.0861C91.1316 99.0861 87.8743 99.2355 86.2533 99.3849C85.6563 99.4497 85.0642 99.538 84.4794 99.6493C84.4595 99.6645 84.4357 99.6767 84.4094 99.685C84.3831 99.6933 84.3549 99.6976 84.3265 99.6976C84.298 99.6976 84.2698 99.6933 84.2435 99.685C84.2173 99.6767 84.1935 99.6645 84.1735 99.6493C84.145 99.6212 84.1296 99.5869 84.1296 99.5516C84.1296 99.5162 84.145 99.4819 84.1735 99.4539L84.6782 97.385L87.7367 87.0405C87.9131 86.4201 87.7545 85.7725 87.2956 85.2401C86.8367 84.7077 86.1153 84.3341 85.2899 84.2015C84.4645 84.0689 83.6029 84.1881 82.8945 84.533C82.1861 84.8779 81.6891 85.4202 81.5126 86.0405C81.5126 86.0405 74.2334 111.362 74.2334 111.591C74.1332 111.887 74.1124 112.195 74.1724 112.497C74.2323 112.799 74.3717 113.089 74.5824 113.35C74.7931 113.612 75.0709 113.838 75.3996 114.018C75.7282 114.197 76.1012 114.326 76.4967 114.396H76.6649C77.0607 114.473 77.473 114.489 77.8774 114.444C78.2818 114.399 78.6702 114.294 79.0195 114.134C79.3687 113.975 79.6719 113.764 79.911 113.515C80.1501 113.266 80.3203 112.983 80.4116 112.683C80.4058 112.645 80.4058 112.607 80.4116 112.568C80.5033 112.27 81.4209 108.902 81.4209 108.902C81.7605 107.66 82.5975 106.527 83.8195 105.654C85.0416 104.78 86.59 104.209 88.2566 104.017C88.9601 103.936 91.9116 103.787 91.9116 103.787C97.7835 103.347 103.212 101.242 107.091 97.8996C110.97 94.5575 113.009 90.2299 112.793 85.7977C112.577 81.3655 110.121 77.1618 105.927 74.0423C101.732 70.9229 96.1131 69.1221 90.2141 69.0066V69.0066Z" fill="#08B952"/>
<path d="M91.6211 109.235C91.1187 109.156 90.6006 109.154 90.0968 109.227C89.593 109.301 89.1137 109.449 88.6868 109.662C88.2598 109.876 87.8938 110.152 87.6099 110.473C87.326 110.795 87.13 111.155 87.0333 111.534C86.9253 111.906 86.9161 112.29 87.0061 112.665C87.096 113.04 87.2834 113.398 87.5576 113.718C87.8317 114.038 88.1872 114.315 88.6037 114.532C89.0202 114.749 89.4895 114.902 89.9848 114.982H90.0918C90.58 115.071 91.0867 115.085 91.5825 115.026C92.0783 114.966 92.5534 114.833 92.9802 114.634C93.407 114.435 93.777 114.174 94.0687 113.867C94.3604 113.56 94.5681 113.212 94.6796 112.844V112.683C94.854 111.923 94.634 111.142 94.065 110.501C93.496 109.859 92.6213 109.406 91.6211 109.235V109.235Z" fill="#E6007A"/>
</g>
<defs>
<clipPath id="clip0">
<rect width="46" height="46" fill="white" transform="translate(67 69)"/>
</clipPath>
</defs>
</svg>
