<?xml version="1.0" encoding="utf-8"?>
<!-- Generator: Adobe Illustrator 22.0.1, SVG Export Plug-In . SVG Version: 6.00 Build 0)  -->
<svg version="1.1" id="_x2014_ÎÓÈ_x5F_1" xmlns="http://www.w3.org/2000/svg" xmlns:xlink="http://www.w3.org/1999/xlink"
	 x="0px" y="0px" viewBox="0 0 600 350" style="enable-background:new 0 0 600 350;" xml:space="preserve">
<style type="text/css">
	.st0{fill:url(#SVGID_1_);}
	.st1{fill:#42E8E0;}
	.st2{fill:url(#SVGID_2_);}
	.st3{fill:#24126A;}
	.st4{fill:#FFFFFF;}
	.st5{opacity:0.51;fill:#453C9E;}
	.st6{opacity:0.8;fill:url(#SVGID_3_);}
	.st7{opacity:0.1;}
	.st8{clip-path:url(#SVGID_6_);}
	.st9{fill:#9FFFF8;}
	.st10{opacity:0.4;fill:#24126A;}
	.st11{opacity:0.3;}
	.st12{fill:url(#SVGID_7_);}
	.st13{opacity:0.3;fill:#0F054C;}
	.st14{fill:url(#SVGID_8_);}
	.st15{fill:#0F054C;}
	.st16{opacity:0.4;fill:#42E8E0;}
	.st17{fill:url(#SVGID_9_);}
	.st18{fill:url(#SVGID_10_);}
	.st19{fill:url(#SVGID_11_);}
	.st20{fill:url(#SVGID_12_);}
	.st21{fill:#40FF90;}
	.st22{fill:url(#SVGID_13_);}
	.st23{fill:url(#SVGID_14_);}
	.st24{fill:#5351AF;}
	.st25{fill:url(#SVGID_15_);}
	.st26{fill:url(#SVGID_16_);}
	.st27{fill:url(#SVGID_17_);}
	.st28{fill:url(#SVGID_18_);}
	.st29{fill:url(#SVGID_19_);}
	.st30{fill:url(#SVGID_20_);}
	.st31{opacity:0.5;fill:url(#SVGID_21_);}
	.st32{fill:#08B952;}
	.st33{opacity:0.2;fill:#42E8E0;}
	.st34{clip-path:url(#SVGID_23_);}
</style>
<radialGradient id="SVGID_1_" cx="76.8336" cy="-1585.6246" r="532.6512" gradientTransform="matrix(1 0 0 0.9992 0 1413.9669)" gradientUnits="userSpaceOnUse">
	<stop  offset="0" style="stop-color:#2B237C"/>
	<stop  offset="0.31" style="stop-color:#251C72"/>
	<stop  offset="1" style="stop-color:#090D28"/>
</radialGradient>
<rect x="0" class="st0" width="600" height="350"/>
<g>
	<path class="st1" d="M347.9,284.4c-2.6,0-5.2-0.5-7-1.6l-92.1-53.2c-1.8-1.1-2.9-2.5-2.9-4.2c0-2,1.5-3.9,4-5.4l175.6-101.4
		c4.8-2.8,12-3.1,16.2-0.7l92.1,53.2c1.8,1.1,2.9,2.5,2.9,4.2c0,2-1.5,3.9-4,5.4L357,282.1C354.4,283.6,351.1,284.4,347.9,284.4z
		 M341,282.4c4,2.3,11.1,2,15.8-0.7l175.6-101.4c2.4-1.4,3.8-3.2,3.8-5c0-1.5-0.9-2.8-2.7-3.8l-92.1-53.2c-4-2.3-11.1-2-15.8,0.7
		L250.1,220.4c-2.4,1.4-3.8,3.2-3.8,5c0,1.5,0.9,2.8,2.7,3.8L341,282.4z"/>
</g>
<g>
	<linearGradient id="SVGID_2_" gradientUnits="userSpaceOnUse" x1="246.1137" y1="186.1269" x2="536.4027" y2="186.1269">
		<stop  offset="0" style="stop-color:#BCBEFF"/>
		<stop  offset="0.151" style="stop-color:#A3A7F5"/>
		<stop  offset="0.3866" style="stop-color:#8289E8"/>
		<stop  offset="0.6124" style="stop-color:#6A73DF"/>
		<stop  offset="0.8221" style="stop-color:#5C66D9"/>
		<stop  offset="1" style="stop-color:#5761D7"/>
	</linearGradient>
	<path class="st2" d="M536.4,150.8l-13.2,2.3L441.6,106c-4.1-2.4-11.2-2.1-16,0.7l-156.1,90.1l-23.4,4l0,8.3l0,0c0,1.5,0.9,3,2.8,4
		l92.1,53.2c4.1,2.4,11.2,2.1,16-0.7l175.6-101.4c2.5-1.5,3.9-3.3,3.9-5.1l0,0V150.8z"/>
	<path class="st3" d="M340.9,257.9l-92.1-53.2c-4.1-2.4-3.6-6.5,1.1-9.2L425.6,94.2c4.7-2.7,11.9-3,16-0.7l92.1,53.2
		c4.1,2.4,3.6,6.5-1.1,9.2L356.9,257.3C352.2,260,345,260.3,340.9,257.9z"/>
	<path class="st4" d="M532.5,155.9L356.9,257.3c-4.7,2.7-11.9,3-16,0.7l-92.1-53.2c-1.6-0.9-2.5-2.2-2.7-3.5
		c-0.3,1.7,0.6,3.4,2.7,4.6l92.1,53.2c4.1,2.4,11.2,2.1,16-0.7L532.5,157c2.8-1.6,4.1-3.8,3.9-5.7
		C536.1,152.9,534.8,154.6,532.5,155.9z"/>
	<path class="st5" d="M341.1,255.9l-88.8-51.3c-4-2.3-3.5-6.3,1.1-8.9l172.3-99.5c4.6-2.6,11.5-2.9,15.5-0.6l88.8,51.3
		c4,2.3,3.5,6.3-1.1,8.9l-172.3,99.5C352,257.9,345.1,258.2,341.1,255.9z"/>
</g>
<g>
	<linearGradient id="SVGID_3_" gradientUnits="userSpaceOnUse" x1="431.6909" y1="227.1957" x2="350.6589" y2="119.6627">
		<stop  offset="0" style="stop-color:#42E8E0"/>
		<stop  offset="0.1055" style="stop-color:#37B6BF"/>
		<stop  offset="0.2197" style="stop-color:#2C87A1"/>
		<stop  offset="0.338" style="stop-color:#235F87"/>
		<stop  offset="0.4587" style="stop-color:#1C3F72"/>
		<stop  offset="0.5824" style="stop-color:#162561"/>
		<stop  offset="0.7105" style="stop-color:#121355"/>
		<stop  offset="0.8458" style="stop-color:#10084E"/>
		<stop  offset="1" style="stop-color:#0F054C"/>
	</linearGradient>
	<path class="st6" d="M347.8,255.4c-2.6,0-5-0.5-6.9-1.6l-88.8-51.3c-1.8-1-2.8-2.5-2.8-4.1c0-1.9,1.4-3.9,3.9-5.3l172.3-99.5
		c4.6-2.7,11.7-3,15.7-0.6l88.8,51.3c1.8,1,2.8,2.5,2.8,4.1c0,1.9-1.4,3.9-3.9,5.3l-172.3,99.5C354.2,254.7,350.9,255.4,347.8,255.4
		z M341.3,253.3c3.9,2.2,10.7,2,15.2-0.6l172.3-99.5c2.3-1.3,3.6-3.1,3.6-4.8c0-1.4-0.9-2.7-2.5-3.6l-88.8-51.3
		c-3.9-2.2-10.7-2-15.2,0.6l-172.3,99.5c-2.3,1.3-3.6,3.1-3.6,4.8c0,1.4,0.9,2.7,2.5,3.6L341.3,253.3z"/>
</g>
<g class="st7">
	<defs>
		<path id="SVGID_4_" class="st7" d="M341.1,253.6l-88.8-51.3c-4-2.3-3.5-6.3,1.1-8.9l172.3-99.5c4.6-2.6,11.5-2.9,15.5-0.6
			l88.8,51.3c4,2.3,3.5,6.3-1.1,8.9l-172.3,99.5C352,255.6,345.1,255.9,341.1,253.6z"/>
	</defs>
	<radialGradient id="SVGID_5_" cx="384.054" cy="176.1744" r="227.2106" gradientUnits="userSpaceOnUse">
		<stop  offset="0" style="stop-color:#42E8E0"/>
		<stop  offset="0.1055" style="stop-color:#37B6BF"/>
		<stop  offset="0.2197" style="stop-color:#2C87A1"/>
		<stop  offset="0.338" style="stop-color:#235F87"/>
		<stop  offset="0.4587" style="stop-color:#1C3F72"/>
		<stop  offset="0.5824" style="stop-color:#162561"/>
		<stop  offset="0.7105" style="stop-color:#121355"/>
		<stop  offset="0.8458" style="stop-color:#10084E"/>
		<stop  offset="1" style="stop-color:#0F054C"/>
	</radialGradient>
	<use xlink:href="#SVGID_4_"  style="overflow:visible;opacity:0.5;fill:url(#SVGID_5_);"/>
	<clipPath id="SVGID_6_">
		<use xlink:href="#SVGID_4_"  style="overflow:visible;opacity:0.5;"/>
	</clipPath>
	<g class="st8">
		<path class="st9" d="M439.2,234.3c0-11.2-7.8-24.7-17.5-30.3c-4.8-2.8-9.2-3.1-12.4-1.2v0l-3.3,1.9l1,0.1
			c-1.7,2.1-2.8,5.3-2.8,9.3c0,11.2,7.8,24.7,17.5,30.3c3.3,1.9,6.4,2.6,9.1,2.3l-0.1,0.9l3.4-2c0,0,0,0,0,0l0.1-0.1l0,0
			C437.3,243.7,439.2,239.8,439.2,234.3z"/>
		<ellipse transform="matrix(0.866 -0.5 0.5 0.866 -57.0441 239.4953)" class="st1" cx="418.4" cy="226.2" rx="14.3" ry="24.7"/>
	</g>
</g>
<path class="st10" d="M511,153.1c-1.4,0.8-3.6,0.8-4.9,0c-1.4-0.8-1.4-2.1,0-2.8c1.4-0.8,3.6-0.8,4.9,0
	C512.4,151,512.4,152.3,511,153.1z"/>
<path class="st10" d="M492.3,139.4l9.6,5.5c1.2,0.7,1,1.9-0.3,2.6l0,0c-1.4,0.8-3.4,0.9-4.6,0.2l-9.6-5.5c-1.2-0.7-1-1.9,0.3-2.6h0
	C489.1,138.8,491.1,138.7,492.3,139.4z"/>
<path class="st10" d="M437.5,106.1l9.6,5.5c1.2,0.7,1,1.9-0.3,2.6l0,0c-1.4,0.8-3.4,0.9-4.6,0.2l-9.6-5.5c-1.2-0.7-1-1.9,0.3-2.6
	l0,0C434.3,105.6,436.3,105.5,437.5,106.1z"/>
<path class="st1" d="M511,149.6c-1.4,0.8-3.6,0.8-4.9,0c-1.4-0.8-1.4-2.1,0-2.8c1.4-0.8,3.6-0.8,4.9,0S512.4,148.8,511,149.6z"/>
<path class="st1" d="M492.3,136l9.6,5.5c1.2,0.7,1,1.9-0.3,2.6l0,0c-1.4,0.8-3.4,0.9-4.6,0.2l-9.6-5.5c-1.2-0.7-1-1.9,0.3-2.6h0
	C489.1,135.4,491.1,135.3,492.3,136z"/>
<path class="st1" d="M437.5,102.7l9.6,5.5c1.2,0.7,1,1.9-0.3,2.6l0,0c-1.4,0.8-3.4,0.9-4.6,0.2l-9.6-5.5c-1.2-0.7-1-1.9,0.3-2.6l0,0
	C434.3,102.1,436.3,102,437.5,102.7z"/>
<g class="st11">
	<linearGradient id="SVGID_7_" gradientUnits="userSpaceOnUse" x1="518.5662" y1="257.3128" x2="559.3759" y2="280.8743">
		<stop  offset="0" style="stop-color:#BCBEFF"/>
		<stop  offset="0.2271" style="stop-color:#AAADF8"/>
		<stop  offset="0.6802" style="stop-color:#7C83E5"/>
		<stop  offset="1" style="stop-color:#5761D7"/>
	</linearGradient>
	<path class="st12" d="M564.9,270.7v-4.5l-1.2-0.7c-0.3,2.1-2.8,3.5-4.9,3.8l-14.2,8.3l-6.2,2.2l-19.7-10.2l0.5-0.3
		c-1.7-0.8-2.6-2.6-3.5-4.2l-1.3,0.8l-0.8,0.2v4.6h0c0,0.9,0.6,1.8,1.7,2.4l19.8,11.4c2.3,1.3,6.1,1.3,8.4,0l19.8-11.4
		c1.1-0.7,1.7-1.5,1.7-2.4C564.9,270.8,564.9,270.7,564.9,270.7L564.9,270.7z"/>
	<path class="st13" d="M558.7,269.3l-14.2,8.3l-5.4,1.9v6.1c1.5,0,3-0.3,4.2-1l19.8-11.4c1.1-0.7,1.7-1.5,1.7-2.4c0,0,0-0.1,0-0.1
		l0,0v-4.5l-1.1-0.6h-0.1C563.2,267.7,560.8,269,558.7,269.3z"/>
	<g>
		<linearGradient id="SVGID_8_" gradientUnits="userSpaceOnUse" x1="513.449" y1="266.219" x2="564.8847" y2="266.219">
			<stop  offset="0" style="stop-color:#E9E9FD"/>
			<stop  offset="0.3601" style="stop-color:#D3D2F9"/>
			<stop  offset="0.7062" style="stop-color:#C5C4F7"/>
			<stop  offset="1" style="stop-color:#C0BFF6"/>
		</linearGradient>
		<path class="st14" d="M535,280.1l-19.8-11.4c-2.3-1.3-2.3-3.5,0-4.9l19.8-11.4c2.3-1.3,6.1-1.3,8.4,0l19.8,11.4
			c2.3,1.3,2.3,3.5,0,4.9l-19.8,11.4C541.1,281.4,537.3,281.4,535,280.1z"/>
	</g>
	<g class="st11">
		<path class="st15" d="M535,280.1l-19.8-11.4c-2.3-1.3-2.3-3.5,0-4.9l19.8-11.4c2.3-1.3,6.1-1.3,8.4,0l19.8,11.4
			c2.3,1.3,2.3,3.5,0,4.9l-19.8,11.4C541.1,281.4,537.3,281.4,535,280.1z"/>
	</g>
</g>
<g>
	<g>
		<path class="st1" d="M539.2,265.6c-1.4,0-2.7-0.3-3.7-0.9l-19.8-11.4c-1-0.6-1.6-1.4-1.6-2.3c0-0.9,0.6-1.7,1.6-2.3l19.8-11.4
			c2.1-1.2,5.4-1.2,7.5,0l19.8,11.4c1,0.6,1.6,1.4,1.6,2.3c0,0.9-0.6,1.7-1.6,2.3l-19.8,11.4C541.9,265.3,540.5,265.6,539.2,265.6z
			 M539.2,236.8c-1.3,0-2.6,0.3-3.6,0.8l-19.8,11.4c-0.9,0.5-1.4,1.2-1.4,2c0,0.7,0.5,1.4,1.4,2l19.8,11.4c2,1.1,5.1,1.1,7.1,0
			l19.8-11.4c0.9-0.5,1.4-1.2,1.4-2s-0.5-1.4-1.4-2l-19.8-11.4C541.7,237.1,540.5,236.8,539.2,236.8z"/>
		<g id="Box">
			<path class="st16" d="M564.9,246.7v-6.8l-1.2-0.7c-0.3,2.1-2.8,3.5-4.9,3.8l-14.2,8.3l-6.2,2.2l-19.7-10.2l0.5-0.3
				c-1.7-0.8-2.6-2.6-3.5-4.2l-1.3,0.8l-0.8,0.2v6.9h0c0,0.9,0.6,1.8,1.7,2.4l19.8,11.4c2.3,1.3,6.1,1.3,8.4,0l19.8-11.4
				c1.1-0.7,1.7-1.5,1.7-2.4C564.9,246.8,564.9,246.7,564.9,246.7L564.9,246.7z"/>
			<g>
				<g>
					<linearGradient id="SVGID_9_" gradientUnits="userSpaceOnUse" x1="518.5662" y1="227.2746" x2="559.376" y2="250.8361">
						<stop  offset="0" style="stop-color:#BCBEFF"/>
						<stop  offset="0.2271" style="stop-color:#AAADF8"/>
						<stop  offset="0.6802" style="stop-color:#7C83E5"/>
						<stop  offset="1" style="stop-color:#5761D7"/>
					</linearGradient>
					<path class="st17" d="M564.9,240.7v-4.5l-1.2-0.7c-0.3,2.1-2.8,3.5-4.9,3.8l-14.2,8.3l-6.2,2.2l-19.7-10.2l0.5-0.3
						c-1.7-0.8-2.6-2.6-3.5-4.2l-1.3,0.8l-0.8,0.2v4.6h0c0,0.9,0.6,1.8,1.7,2.4l19.8,11.4c2.3,1.3,6.1,1.3,8.4,0l19.8-11.4
						c1.1-0.7,1.7-1.5,1.7-2.4C564.9,240.7,564.9,240.7,564.9,240.7L564.9,240.7z"/>
					<path class="st13" d="M558.7,239.3l-14.2,8.3l-5.4,1.9v6.1c1.5,0,3-0.3,4.2-1l19.8-11.4c1.1-0.7,1.7-1.5,1.7-2.4
						c0,0,0-0.1,0-0.1l0,0v-4.5l-1.1-0.6h-0.1C563.2,237.6,560.8,239,558.7,239.3z"/>
					<g>
						<linearGradient id="SVGID_10_" gradientUnits="userSpaceOnUse" x1="513.4491" y1="236.1808" x2="564.8847" y2="236.1808">
							<stop  offset="0" style="stop-color:#E9E9FD"/>
							<stop  offset="0.3601" style="stop-color:#D3D2F9"/>
							<stop  offset="0.7062" style="stop-color:#C5C4F7"/>
							<stop  offset="1" style="stop-color:#C0BFF6"/>
						</linearGradient>
						<path class="st18" d="M535,250l-19.8-11.4c-2.3-1.3-2.3-3.5,0-4.9l19.8-11.4c2.3-1.3,6.1-1.3,8.4,0l19.8,11.4
							c2.3,1.3,2.3,3.5,0,4.9L543.4,250C541.1,251.4,537.3,251.4,535,250z"/>
					</g>
					<g>
						<path class="st4" d="M563.1,238.6L543.4,250c-2.3,1.3-6.1,1.3-8.4,0l-19.8-11.4c-1-0.6-1.6-1.4-1.7-2.1c-0.1,1,0.4,2,1.7,2.7
							l19.8,11.4c2.3,1.3,6.1,1.3,8.4,0l19.8-11.4c1.3-0.7,1.9-1.7,1.7-2.7C564.8,237.2,564.2,238,563.1,238.6z"/>
					</g>
				</g>
			</g>
		</g>
	</g>
</g>
<g class="st11">
	<linearGradient id="SVGID_11_" gradientUnits="userSpaceOnUse" x1="430.4973" y1="283.9649" x2="471.307" y2="307.5264">
		<stop  offset="0" style="stop-color:#BCBEFF"/>
		<stop  offset="0.1905" style="stop-color:#AAC7EF"/>
		<stop  offset="0.5728" style="stop-color:#7BE0C5"/>
		<stop  offset="1" style="stop-color:#40FF90"/>
	</linearGradient>
	<path class="st19" d="M476.8,297.4l0-4.5l-1.2-0.7c-0.4,2.1-2.8,3.5-4.9,3.8l-14.2,8.3l-6.2,2.2l-19.7-10.2l0.5-0.3
		c-1.7-0.8-2.6-2.6-3.5-4.2l-1.3,0.8l-0.8,0.2v4.6h0c0,0.9,0.6,1.8,1.7,2.4l19.8,11.4c2.3,1.3,6.1,1.3,8.4,0l19.8-11.4
		c1.1-0.7,1.7-1.5,1.7-2.4C476.8,297.4,476.8,297.4,476.8,297.4L476.8,297.4z"/>
	<path class="st13" d="M470.7,296l-14.2,8.3l-5.4,1.9v6.1c1.5,0,3-0.3,4.2-1l19.8-11.4c1.1-0.7,1.7-1.5,1.7-2.4c0,0,0-0.1,0-0.1l0,0
		l0-4.5l-1.1-0.6h-0.1C475.2,294.3,472.7,295.7,470.7,296z"/>
	<g>
		<linearGradient id="SVGID_12_" gradientUnits="userSpaceOnUse" x1="425.3801" y1="292.8711" x2="476.8158" y2="292.8711">
			<stop  offset="0" style="stop-color:#E9E9FD"/>
			<stop  offset="0.3601" style="stop-color:#D3D2F9"/>
			<stop  offset="0.7062" style="stop-color:#C5C4F7"/>
			<stop  offset="1" style="stop-color:#C0BFF6"/>
		</linearGradient>
		<path class="st20" d="M446.9,306.7l-19.8-11.4c-2.3-1.3-2.3-3.5,0-4.9l19.8-11.4c2.3-1.3,6.1-1.3,8.4,0l19.8,11.4
			c2.3,1.3,2.3,3.5,0,4.9l-19.8,11.4C453,308.1,449.2,308.1,446.9,306.7z"/>
	</g>
	<g class="st11">
		<path class="st21" d="M446.9,306.7l-19.8-11.4c-2.3-1.3-2.3-3.5,0-4.9l19.8-11.4c2.3-1.3,6.1-1.3,8.4,0l19.8,11.4
			c2.3,1.3,2.3,3.5,0,4.9l-19.8,11.4C453,308.1,449.2,308.1,446.9,306.7z"/>
	</g>
</g>
<g>
	<g>
		<path class="st1" d="M451.1,290.1c-1.4,0-2.7-0.3-3.7-0.9l-19.8-11.4c-1-0.6-1.6-1.4-1.6-2.3s0.6-1.7,1.6-2.3l19.8-11.4
			c2.1-1.2,5.4-1.2,7.5,0l19.8,11.4c1,0.6,1.6,1.4,1.6,2.3c0,0.9-0.6,1.7-1.6,2.3l-19.8,11.4C453.8,289.8,452.4,290.1,451.1,290.1z
			 M447.5,288.9c2,1.1,5.1,1.1,7.1,0l19.8-11.4c0.9-0.5,1.4-1.2,1.4-2c0-0.7-0.5-1.4-1.4-2l-19.8-11.4c-2-1.1-5.1-1.1-7.1,0
			l-19.8,11.4c-0.9,0.5-1.4,1.2-1.4,2c0,0.7,0.5,1.4,1.4,2L447.5,288.9z"/>
		<g id='Box_1'>
			<path class="st16" d="M476.8,271.2v-6.8l-1.2-0.7c-0.4,2.1-2.8,3.5-4.9,3.8l-14.2,8.3l-6.2,2.2l-19.7-10.2l0.5-0.3
				c-1.7-0.8-2.6-2.6-3.5-4.2l-1.3,0.8l-0.8,0.2v6.9h0c0,0.9,0.6,1.8,1.7,2.4l19.8,11.4c2.3,1.3,6.1,1.3,8.4,0l19.8-11.4
				c1.1-0.7,1.7-1.5,1.7-2.4C476.8,271.2,476.8,271.2,476.8,271.2L476.8,271.2z"/>
			<g>
				<g>
					<linearGradient id="SVGID_13_" gradientUnits="userSpaceOnUse" x1="430.4973" y1="251.7467" x2="471.307" y2="275.3082">
						<stop  offset="0" style="stop-color:#BCBEFF"/>
						<stop  offset="0.2271" style="stop-color:#AAADF8"/>
						<stop  offset="0.6802" style="stop-color:#7C83E5"/>
						<stop  offset="1" style="stop-color:#5761D7"/>
					</linearGradient>
					<path class="st22" d="M476.8,265.1v-4.5l-1.2-0.7c-0.4,2.1-2.8,3.5-4.9,3.8l-14.2,8.3l-6.2,2.2l-19.7-10.2l0.5-0.3
						c-1.7-0.8-2.6-2.6-3.5-4.2l-1.3,0.8l-0.8,0.2v4.6h0c0,0.9,0.6,1.8,1.7,2.4l19.8,11.4c2.3,1.3,6.1,1.3,8.4,0l19.8-11.4
						c1.1-0.7,1.7-1.5,1.7-2.4C476.8,265.2,476.8,265.2,476.8,265.1L476.8,265.1z"/>
					<path class="st13" d="M470.7,263.8l-14.2,8.3l-5.4,1.9v6.1c1.5,0,3-0.3,4.2-1l19.8-11.4c1.1-0.7,1.7-1.5,1.7-2.4
						c0,0,0-0.1,0-0.1l0,0v-4.5l-1.1-0.6h-0.1C475.2,262.1,472.7,263.5,470.7,263.8z"/>
					<g>
						<linearGradient id="SVGID_14_" gradientUnits="userSpaceOnUse" x1="425.3801" y1="260.6529" x2="476.8158" y2="260.6529">
							<stop  offset="0" style="stop-color:#E9E9FD"/>
							<stop  offset="0.3601" style="stop-color:#D3D2F9"/>
							<stop  offset="0.7062" style="stop-color:#C5C4F7"/>
							<stop  offset="1" style="stop-color:#C0BFF6"/>
						</linearGradient>
						<path class="st23" d="M446.9,274.5l-19.8-11.4c-2.3-1.3-2.3-3.5,0-4.9l19.8-11.4c2.3-1.3,6.1-1.3,8.4,0l19.8,11.4
							c2.3,1.3,2.3,3.5,0,4.9l-19.8,11.4C453,275.8,449.2,275.8,446.9,274.5z"/>
					</g>
					<g>
						<path class="st24" d="M451.1,272.4c-1.2,0-2.4-0.3-3.4-0.8l-15.5-8.9c-0.9-0.5-1.4-1.3-1.4-2c0-0.8,0.5-1.5,1.4-2l15.5-8.9
							c1.9-1.1,4.9-1.1,6.7,0l15.5,8.9c0.9,0.5,1.4,1.3,1.4,2c0,0.8-0.5,1.5-1.4,2l-15.5,8.9C453.5,272.2,452.3,272.4,451.1,272.4z
							 M447.9,271.3c1.8,1,4.6,1,6.4,0l15.5-8.9c0.8-0.5,1.3-1.1,1.3-1.7c0-0.7-0.5-1.3-1.3-1.7l-15.5-8.9c-1.8-1-4.6-1-6.4,0
							l-15.5,8.9c-0.8,0.5-1.3,1.1-1.3,1.7c0,0.7,0.5,1.3,1.3,1.7L447.9,271.3z"/>
					</g>
					<g>
						<path class="st4" d="M475.1,263.1l-19.8,11.4c-2.3,1.3-6.1,1.3-8.4,0l-19.8-11.4c-1-0.6-1.6-1.4-1.7-2.1c-0.1,1,0.4,2,1.7,2.7
							l19.8,11.4c2.3,1.3,6.1,1.3,8.4,0l19.8-11.4c1.3-0.7,1.9-1.7,1.7-2.7C476.7,261.7,476.1,262.5,475.1,263.1z"/>
					</g>
				</g>
			</g>
		</g>
	</g>
</g>
<g class="st11">
	<linearGradient id="SVGID_15_" gradientUnits="userSpaceOnUse" x1="261.3302" y1="124.9799" x2="302.14" y2="148.5414">
		<stop  offset="0" style="stop-color:#BCBEFF"/>
		<stop  offset="0.1905" style="stop-color:#AAC7EF"/>
		<stop  offset="0.5728" style="stop-color:#7BE0C5"/>
		<stop  offset="1" style="stop-color:#40FF90"/>
	</linearGradient>
	<path class="st25" d="M307.6,138.4v-4.5l-1.2-0.7c-0.3,2.1-2.8,3.5-4.9,3.8l-14.2,8.3l-6.2,2.2l-19.7-10.2l0.5-0.3
		c-1.7-0.8-2.6-2.6-3.5-4.2l-1.3,0.8l-0.8,0.2v4.6l0,0c0,0.9,0.6,1.8,1.7,2.4l19.8,11.4c2.3,1.3,6.1,1.3,8.4,0l19.8-11.4
		c1.1-0.7,1.7-1.5,1.7-2.4C307.6,138.4,307.6,138.4,307.6,138.4L307.6,138.4z"/>
	<path class="st13" d="M301.5,137l-14.2,8.3l-5.4,1.9v6.1c1.5,0,3-0.3,4.2-1l19.8-11.4c1.1-0.7,1.7-1.5,1.7-2.4c0,0,0-0.1,0-0.1l0,0
		v-4.5l-1.1-0.6h-0.1C306,135.3,303.5,136.7,301.5,137z"/>
	<g>
		<linearGradient id="SVGID_16_" gradientUnits="userSpaceOnUse" x1="256.2131" y1="133.8861" x2="307.6487" y2="133.8861">
			<stop  offset="0" style="stop-color:#E9E9FD"/>
			<stop  offset="0.3601" style="stop-color:#D3D2F9"/>
			<stop  offset="0.7062" style="stop-color:#C5C4F7"/>
			<stop  offset="1" style="stop-color:#C0BFF6"/>
		</linearGradient>
		<path class="st26" d="M277.7,147.7L258,136.3c-2.3-1.3-2.3-3.5,0-4.9l19.8-11.4c2.3-1.3,6.1-1.3,8.4,0l19.8,11.4
			c2.3,1.3,2.3,3.5,0,4.8l-19.8,11.4C283.8,149.1,280,149.1,277.7,147.7z"/>
	</g>
	<g class="st11">
		<path class="st21" d="M277.7,147.7L258,136.3c-2.3-1.3-2.3-3.5,0-4.9l19.8-11.4c2.3-1.3,6.1-1.3,8.4,0l19.8,11.4
			c2.3,1.3,2.3,3.5,0,4.8l-19.8,11.4C283.8,149.1,280,149.1,277.7,147.7z"/>
	</g>
</g>
<g>
	<g>
		<path class="st1" d="M281.9,134c-1.4,0-2.7-0.3-3.7-0.9l-19.8-11.4c-1-0.6-1.6-1.4-1.6-2.3c0-0.9,0.6-1.7,1.6-2.3l19.8-11.4
			c2.1-1.2,5.4-1.2,7.5,0l19.8,11.4c1,0.6,1.6,1.4,1.6,2.3c0,0.9-0.6,1.7-1.6,2.3l-19.8,11.4C284.6,133.8,283.3,134,281.9,134z
			 M281.9,105.3c-1.3,0-2.6,0.3-3.6,0.8l-19.8,11.4c-0.9,0.5-1.4,1.2-1.4,2c0,0.7,0.5,1.4,1.4,2l19.8,11.4c2,1.1,5.1,1.1,7.1,0
			l19.8-11.4c0.9-0.5,1.4-1.2,1.4-2c0-0.7-0.5-1.4-1.4-2l-19.8-11.4C284.5,105.5,283.2,105.3,281.9,105.3z"/>
		<g id='Box_2'>
			<path class="st16" d="M307.6,115.1v-6.8l-1.2-0.7c-0.3,2.1-2.8,3.5-4.9,3.8l-14.2,8.3l-6.2,2.2l-19.7-10.2l0.5-0.3
				c-1.7-0.8-2.6-2.6-3.5-4.2l-1.3,0.8l-0.8,0.2v6.9l0,0c0,0.9,0.6,1.8,1.7,2.4l19.8,11.4c2.3,1.3,6.1,1.3,8.4,0l19.8-11.4
				c1.1-0.7,1.7-1.5,1.7-2.4C307.6,115.2,307.6,115.1,307.6,115.1L307.6,115.1z"/>
			<g>
				<g>
					<linearGradient id="SVGID_17_" gradientUnits="userSpaceOnUse" x1="261.3303" y1="95.6929" x2="302.14" y2="119.2544">
						<stop  offset="0" style="stop-color:#BCBEFF"/>
						<stop  offset="0.2271" style="stop-color:#AAADF8"/>
						<stop  offset="0.6802" style="stop-color:#7C83E5"/>
						<stop  offset="1" style="stop-color:#5761D7"/>
					</linearGradient>
					<path class="st27" d="M307.6,109.1v-4.5l-1.2-0.7c-0.3,2.1-2.8,3.5-4.9,3.8l-14.2,8.3l-6.2,2.2L261.4,108l0.5-0.3
						c-1.7-0.8-2.6-2.6-3.5-4.2l-1.3,0.8l-0.8,0.2v4.6l0,0c0,0.9,0.6,1.8,1.7,2.4l19.8,11.4c2.3,1.3,6.1,1.3,8.4,0l19.8-11.4
						c1.1-0.7,1.7-1.5,1.7-2.4C307.6,109.2,307.6,109.1,307.6,109.1L307.6,109.1z"/>
					<path class="st13" d="M301.5,107.7l-14.2,8.3l-5.4,1.9v6.1c1.5,0,3-0.3,4.2-1l19.8-11.4c1.1-0.7,1.7-1.5,1.7-2.4
						c0,0,0-0.1,0-0.1l0,0v-4.5l-1.1-0.6h-0.1C306,106.1,303.5,107.4,301.5,107.7z"/>
					<linearGradient id="SVGID_18_" gradientUnits="userSpaceOnUse" x1="263.7794" y1="94.1062" x2="300.1736" y2="115.1184">
						<stop  offset="0.2421" style="stop-color:#5761D7"/>
						<stop  offset="0.3923" style="stop-color:#7A82E5"/>
						<stop  offset="0.5463" style="stop-color:#979CF0"/>
						<stop  offset="0.7" style="stop-color:#ACAFF8"/>
						<stop  offset="0.8519" style="stop-color:#B8BAFD"/>
						<stop  offset="1" style="stop-color:#BCBEFF"/>
					</linearGradient>
					<path class="st28" d="M261.8,107.8L280.6,97c0.7-0.4,1.9-0.4,2.7,0l18.4,10.6l-0.2,0.1c2.1-0.3,4.6-1.7,4.9-3.8l-20.7-11.5
						l-6-1.6l-4.9,2.9l-16.5,9.8C259.2,105.2,260.2,107,261.8,107.8z"/>
					<path class="st13" d="M281.9,91.4l-2.2-0.6l-4.9,2.9l-16.5,9.8c0.9,1.6,1.8,3.4,3.5,4.2L280.6,97c0.4-0.2,0.9-0.3,1.3-0.3V91.4
						z"/>
					<g>
						<linearGradient id="SVGID_19_" gradientUnits="userSpaceOnUse" x1="256.2131" y1="104.5991" x2="307.6487" y2="104.5991">
							<stop  offset="0" style="stop-color:#E9E9FD"/>
							<stop  offset="0.3601" style="stop-color:#D3D2F9"/>
							<stop  offset="0.7062" style="stop-color:#C5C4F7"/>
							<stop  offset="1" style="stop-color:#C0BFF6"/>
						</linearGradient>
						<path class="st29" d="M277.7,118.4L258,107c-2.3-1.3-2.3-3.5,0-4.9l19.8-11.4c2.3-1.3,6.1-1.3,8.4,0l19.8,11.4
							c2.3,1.3,2.3,3.5,0,4.8l-19.8,11.4C283.8,119.8,280,119.8,277.7,118.4z M283.3,92.4c-0.7-0.4-1.9-0.4-2.7,0l-19.8,11.4
							c-0.7,0.4-0.7,1.1,0,1.6l19.8,11.4c0.7,0.4,1.9,0.4,2.7,0l19.8-11.4c0.7-0.4,0.7-1.1,0-1.6L283.3,92.4z"/>
					</g>
					<g>
						<path class="st4" d="M303.1,103.8l-19.8-11.4c-0.7-0.4-1.9-0.4-2.7,0l-19.8,11.4c-0.5,0.3-0.7,0.7-0.5,1.1
							c0.1-0.2,0.2-0.4,0.5-0.5L280.6,93c0.7-0.4,1.9-0.4,2.7,0l19.8,11.4c0.2,0.1,0.4,0.3,0.5,0.5
							C303.7,104.5,303.6,104.1,303.1,103.8z"/>
						<path class="st4" d="M305.9,107l-19.8,11.4c-2.3,1.3-6.1,1.3-8.4,0L258,107c-1-0.6-1.6-1.4-1.7-2.1c-0.1,1,0.4,2,1.7,2.7
							l19.8,11.4c2.3,1.3,6.1,1.3,8.4,0l19.8-11.4c1.3-0.7,1.9-1.7,1.7-2.7C307.5,105.7,306.9,106.4,305.9,107z"/>
					</g>
					<g>
						<linearGradient id="SVGID_20_" gradientUnits="userSpaceOnUse" x1="257.0027" y1="104.5991" x2="306.859" y2="104.5991">
							<stop  offset="0" style="stop-color:#E9E9FD"/>
							<stop  offset="0.3601" style="stop-color:#D3D2F9"/>
							<stop  offset="0.7062" style="stop-color:#C5C4F7"/>
							<stop  offset="1" style="stop-color:#C0BFF6"/>
						</linearGradient>
						<path class="st30" d="M278.3,118.1l-19.8-11.4c-2-1.2-2-3,0-4.2l19.8-11.4c2-1.2,5.3-1.2,7.3,0l19.8,11.4c2,1.2,2,3,0,4.2
							l-19.8,11.4C283.6,119.3,280.3,119.3,278.3,118.1z M283.8,92.1c-1-0.6-2.8-0.6-3.8,0l-19.8,11.4c-1,0.6-1,1.6,0,2.2l19.8,11.4
							c1,0.6,2.8,0.6,3.8,0l19.8-11.4c1-0.6,1-1.6,0-2.2L283.8,92.1z"/>
					</g>
				</g>
				<path class="st16" d="M283.3,92.4c-0.7-0.4-1.9-0.4-2.7,0l-19.8,11.4c-0.7,0.4-0.7,1.1,0,1.6l19.8,11.4c0.7,0.4,1.9,0.4,2.7,0
					l19.8-11.4c0.7-0.4,0.7-1.1,0-1.6L283.3,92.4z"/>
			</g>
		</g>
	</g>
	<linearGradient id="SVGID_21_" gradientUnits="userSpaceOnUse" x1="281.9297" y1="117.117" x2="281.9297" y2="34.0347">
		<stop  offset="0" style="stop-color:#42E8E0"/>
		<stop  offset="0.1055" style="stop-color:#37B6BF"/>
		<stop  offset="0.2197" style="stop-color:#2C87A1"/>
		<stop  offset="0.338" style="stop-color:#235F87"/>
		<stop  offset="0.4587" style="stop-color:#1C3F72"/>
		<stop  offset="0.5824" style="stop-color:#162561"/>
		<stop  offset="0.7105" style="stop-color:#121355"/>
		<stop  offset="0.8458" style="stop-color:#10084E"/>
		<stop  offset="1" style="stop-color:#0F054C"/>
	</linearGradient>
	<path id='Box_3' class="st31" d="M303.6,104.6V34h-43.4l0,70.5c0,0.3,0.2,0.6,0.6,0.8l19.8,11.4c0.7,0.4,1.9,0.4,2.7,0l19.8-11.4
		C303.4,105.2,303.6,104.9,303.6,104.6z"/>
</g>
<g>
	<path class="st32" d="M439.2,160.8c0-11.2-7.8-24.7-17.5-30.3c-4.8-2.8-9.2-3.1-12.4-1.2v0l-3.3,1.9l1,0.1
		c-1.7,2.1-2.8,5.3-2.8,9.3c0,11.2,7.8,24.7,17.5,30.3c3.3,1.9,6.4,2.6,9.1,2.3l-0.1,0.9l3.4-2c0,0,0,0,0,0l0.1-0.1l0,0
		C437.3,170.1,439.2,166.2,439.2,160.8z"/>
	<ellipse transform="matrix(0.866 -0.5 0.5 0.866 -20.2601 229.637)" class="st21" cx="418.4" cy="152.6" rx="14.3" ry="24.7"/>
</g>
<g>
	<path class="st32" d="M398.3,112.6c6.5-9.1,8-24.7,3.3-34.8c-2.3-5.1-5.7-7.8-9.4-8.2l0,0l-3.8-0.3l0.7,0.6c-2.7,0.7-5.3,2.7-7.6,6
		c-6.5,9.1-8,24.7-3.3,34.8c1.6,3.5,3.7,5.9,6,7.1l-0.6,0.7l3.9,0.3c0,0,0,0,0,0l0.2,0l0,0C391.4,119.1,395.1,117,398.3,112.6z"/>
	
		<ellipse transform="matrix(9.562738e-02 -0.9954 0.9954 9.562738e-02 255.7578 469.2035)" class="st21" cx="386.1" cy="93.8" rx="24.7" ry="14.3"/>
</g>
<g class="st7">
	<path class="st9" d="M404.2,186c0-11.2-7.8-24.7-17.5-30.3c-4.8-2.8-9.2-3.1-12.4-1.2v0l-3.3,1.9l1,0.1c-1.7,2.1-2.8,5.3-2.8,9.3
		c0,11.2,7.8,24.7,17.5,30.3c3.3,1.9,6.4,2.6,9.1,2.3l-0.1,0.9l3.4-2c0,0,0,0,0,0l0.1-0.1l0,0C402.3,195.3,404.2,191.5,404.2,186z"
		/>
	<ellipse transform="matrix(0.866 -0.5 0.5 0.866 -37.5536 215.5267)" class="st1" cx="383.4" cy="177.8" rx="14.3" ry="24.7"/>
</g>
<path class="st16" d="M384.5,204.2c-12.1,0-24.1-2.7-33.3-8c-8.9-5.2-13.8-12-13.8-19.3c0-7.3,4.9-14.2,13.8-19.3
	c18.4-10.6,48.3-10.6,66.6,0c8.9,5.2,13.8,12,13.8,19.3c0,7.3-4.9,14.2-13.8,19.3l-0.1-0.2l0.1,0.2
	C408.6,201.5,396.6,204.2,384.5,204.2z M384.5,149.9c-12,0-24,2.6-33.1,7.9c-8.8,5.1-13.7,11.8-13.7,19c0,7.2,4.9,13.9,13.7,19
	c18.3,10.6,48,10.6,66.3,0l0,0c8.8-5.1,13.7-11.8,13.7-19c0-7.2-4.9-13.9-13.7-19C408.5,152.6,396.5,149.9,384.5,149.9z"/>
<path class="st33" d="M384.5,211.5c-15.3,0-30.6-3.4-42.3-10.1c-11.3-6.5-17.6-15.2-17.6-24.5c0-9.3,6.2-18,17.6-24.5
	c23.3-13.5,61.2-13.5,84.5,0c11.3,6.5,17.6,15.2,17.6,24.5c0,9.3-6.2,18-17.6,24.5C415.1,208.1,399.8,211.5,384.5,211.5z
	 M384.5,142.6c-15.2,0-30.5,3.3-42.1,10.1c-11.2,6.5-17.4,15.1-17.4,24.2c0,9.1,6.2,17.7,17.4,24.2c23.2,13.4,61,13.4,84.2,0
	c11.2-6.5,17.4-15.1,17.4-24.2c0-9.1-6.2-17.7-17.4-24.2C415,146,399.8,142.6,384.5,142.6z"/>
<path class="st1" d="M384.5,198.4c-9.5,0-19-2.1-26.3-6.3c-7-4.1-10.9-9.5-10.9-15.3c0-5.8,3.9-11.2,10.9-15.3
	c14.5-8.4,38-8.4,52.5,0c7,4.1,10.9,9.5,10.9,15.3c0,5.8-3.9,11.2-10.9,15.3l-0.1-0.2l0.1,0.2C403.5,196.3,394,198.4,384.5,198.4z
	 M384.5,155.7c-9.4,0-18.9,2.1-26.1,6.2c-6.9,4-10.8,9.3-10.8,15s3.8,11,10.8,15c14.4,8.3,37.8,8.3,52.2,0c6.9-4,10.8-9.3,10.8-15
	s-3.8-11-10.8-15C403.4,157.8,394,155.7,384.5,155.7z"/>
<g>
	<defs>
		<polygon id="SVGID_22_" points="411.9,181.6 400.9,187.9 357.1,162.6 357.1,114 411.9,145.6 		"/>
	</defs>
	<clipPath id="SVGID_23_">
		<use xlink:href="#SVGID_22_"  style="overflow:visible;"/>
	</clipPath>
	<g class="st34">
		<path class="st32" d="M404.2,186c0-11.2-7.8-24.7-17.5-30.3c-4.8-2.8-9.2-3.1-12.4-1.2v0l-3.3,1.9l1,0.1c-1.7,2.1-2.8,5.3-2.8,9.3
			c0,11.2,7.8,24.7,17.5,30.3c3.3,1.9,6.4,2.6,9.1,2.3l-0.1,0.9l3.4-2c0,0,0,0,0,0l0.1-0.1l0,0C402.3,195.3,404.2,191.5,404.2,186z"
			/>
		<ellipse transform="matrix(0.866 -0.5 0.5 0.866 -37.5536 215.5267)" class="st21" cx="383.4" cy="177.8" rx="14.3" ry="24.7"/>
	</g>
</g>
<g>
	<path class="st10" d="M337.5,234.2l-54.9-31.7c-1.6-0.9-1.6-3.3,0-4.2l8.4-4.9c2.8-1.6,6.3-1.6,9.1,0l54.9,31.7
		c1.6,0.9,1.6,3.3,0,4.2l-8.4,4.9C343.8,235.8,340.4,235.8,337.5,234.2z"/>
	<polygon class="st1" points="310.1,201.8 301.3,196.7 303,195.7 311.8,200.8 	"/>
	<polygon class="st1" points="334.8,216.5 332.1,214.9 333.9,213.9 336.6,215.5 	"/>
	<polygon class="st1" points="315.1,204.8 312.4,203.3 314.2,202.3 316.9,203.8 	"/>
	<path class="st1" d="M342.1,227.9c-1.6,0-3.2-0.4-4.6-1.2L282.5,195c-0.8-0.5-1.3-1.3-1.3-2.3s0.5-1.8,1.3-2.3l8.4-4.9
		c2.9-1.6,6.4-1.6,9.3,0l54.9,31.7c0.8,0.5,1.3,1.3,1.3,2.3c0,1-0.5,1.8-1.3,2.3l-8.4,4.9C345.3,227.5,343.7,227.9,342.1,227.9z
		 M295.5,184.7c-1.5,0-3.1,0.4-4.4,1.2l-8.4,4.9c-0.7,0.4-1.1,1.1-1.1,1.9c0,0.8,0.4,1.5,1.1,1.9l54.9,31.7c2.7,1.6,6.1,1.6,8.9,0
		l8.4-4.9c0.7-0.4,1.1-1.1,1.1-1.9c0-0.8-0.4-1.5-1.1-1.9L300,185.9C298.6,185.1,297.1,184.7,295.5,184.7z"/>
</g>
</svg>
