<svg width="52" height="52" viewBox="0 0 52 52" fill="none" xmlns="http://www.w3.org/2000/svg">
<path d="M32.5 28.1667L26 34.6667L32.5 28.1667ZM26 34.6667L19.5 28.1667L26 34.6667ZM26 34.6667V17.3333V34.6667ZM26 45.5C23.4392 45.5 20.9035 44.9956 18.5377 44.0157C16.1718 43.0357 14.0222 41.5993 12.2114 39.7886C10.4007 37.9778 8.96432 35.8282 7.98435 33.4623C7.00438 31.0965 6.5 28.5608 6.5 26C6.5 23.4392 7.00438 20.9035 7.98435 18.5377C8.96432 16.1718 10.4007 14.0222 12.2114 12.2114C14.0222 10.4007 16.1718 8.96432 18.5377 7.98435C20.9035 7.00438 23.4392 6.5 26 6.5C31.1717 6.5 36.1316 8.55446 39.7886 12.2114C43.4455 15.8684 45.5 20.8283 45.5 26C45.5 31.1717 43.4455 36.1316 39.7886 39.7886C36.1316 43.4455 31.1717 45.5 26 45.5Z" stroke="#40FF90" stroke-width="2" stroke-linecap="round" stroke-linejoin="round"/>
</svg>
