<svg xmlns="http://www.w3.org/2000/svg" viewBox="0 0 104 104"><path d="M75 29a32.54 32.54 0 1 0 9.5 23A32.49 32.49 0 0 0 75 29zm-8.28 35.59l-2.12 2.12L52 54.11 39.4 66.7l-2.12-2.12L49.88 52l-12.6-12.6 2.12-2.13L52 49.87l12.6-12.6 2.12 2.12L54.12 52zM50.46 6.5l.08 2.5h2.41V6.5c-.79-.03-1.65-.03-2.49 0zm5.6.16l-.22 2.49c.79.07 1.6.16 2.39.28L58.59 7c-.84-.17-1.69-.27-2.53-.34zm-8.65 0c-.84.08-1.69.19-2.53.32l.39 2.47c.79-.12 1.59-.23 2.39-.31zm14.19.84l-.53 2.44c.78.17 1.57.36 2.34.57l.66-2.41c-.81-.22-1.65-.42-2.47-.6zm-19.72.11c-.82.19-1.65.4-2.46.64l.69 2.4c.77-.22 1.55-.43 2.33-.6zM67 9l-.83 2.36c.76.26 1.51.55 2.25.85l1-2.3C68.59 9.6 67.78 9.29 67 9zm-30.48.17c-.79.29-1.58.6-2.37.94l1 2.29c.74-.31 1.49-.61 2.24-.88zm35.64 2L71 13.43c.72.35 1.43.73 2.13 1.13l1.23-2.18c-.69-.38-1.45-.82-2.21-1.19zm-40.77.23c-.75.39-1.5.8-2.24 1.22l1.25 2.18c.69-.4 1.4-.79 2.11-1.15zM77 14l-1.38 2.09q1 .66 2 1.38l1.49-2c-.69-.53-1.4-1.03-2.11-1.47zm-50.45.29c-.7.47-1.4 1-2.07 1.48l1.51 2c.64-.48 1.3-.95 2-1.4zm54.93 3.07l-1.62 1.91c.61.51 1.21 1.05 1.79 1.6L83.38 19c-.61-.54-1.25-1.11-1.89-1.66zm-59.37.34c-.64.55-1.27 1.13-1.88 1.72L22 21.2c.57-.56 1.17-1.11 1.77-1.63zm63.4 3.55l-1.84 1.69c.54.59 1.07 1.2 1.57 1.82l1.94-1.59a27.84 27.84 0 0 0-1.66-1.94zm-67.39.38c-.57.63-1.12 1.28-1.65 1.94l1.95 1.56c.5-.62 1-1.24 1.56-1.83zm70.91 4L87 27c.46.65.91 1.32 1.34 2l2.11-1.34C90 27 89.53 26.27 89 25.58zM14.65 26c-.48.69-1 1.41-1.4 2.13l2.13 1.31c.42-.68.87-1.36 1.32-2zM92 30.33l-2.2 1.19c.38.7.75 1.42 1.09 2.15l2.26-1.07c-.35-.76-.74-1.53-1.15-2.27zm-80.27.45c-.4.75-.78 1.52-1.13 2.29l2.28 1c.33-.73.69-1.46 1.06-2.16zm82.63 4.63l-2.36.91c.29.74.57 1.5.82 2.26l2.37-.78c-.19-.8-.51-1.61-.82-2.39zm-84.93.48c-.3.79-.59 1.6-.84 2.41l2.39.75c.24-.76.5-1.53.78-2.28zm86.65 4.84l-2.43.62c.2.77.38 1.56.53 2.35l2.46-.48c-.16-.83-.35-1.67-.55-2.49zm-88.31.51c-.2.83-.37 1.67-.53 2.5l2.46.45c.15-.79.32-1.58.5-2.36zm89.35 5l-2.48.32c.1.79.18 1.6.24 2.39l2.49-.17c-.05-.85-.13-1.71-.24-2.55zm-90.32.53c-.1.84-.17 1.69-.22 2.54l2.49.14c.05-.8.12-1.6.21-2.39zM95 51.83V52c0 .8 0 1.61-.07 2.41l2.5.13c0-.84.07-1.69.07-2.55v-.13zm-86 .5H6.5c0 .85 0 1.71.09 2.55l2.5-.16c-.04-.78-.09-1.58-.09-2.39zm85.66 4.92c-.1.8-.22 1.6-.36 2.39l2.46.44c.15-.83.28-1.68.38-2.52zm-85.29.36l-2.48.33c.11.84.24 1.68.4 2.51L9.76 60c-.15-.79-.28-1.59-.38-2.39zm84.33 4.85c-.19.77-.41 1.55-.65 2.32l2.39.74c.25-.81.48-1.63.69-2.45zm-83.31.35L8 63.44c.21.81.45 1.64.71 2.44l2.38-.76c-.28-.76-.5-1.54-.7-2.31zm81.71 4.7c-.29.74-.6 1.49-.93 2.22l2.28 1c.34-.78.68-1.57 1-2.35zm-80.1.33l-2.32.92c.31.78.65 1.57 1 2.33L13 70c-.36-.68-.68-1.43-1-2.16zm77.86 4.48c-.38.7-.78 1.4-1.2 2.09l2.14 1.3c.44-.73.86-1.47 1.26-2.21zm-75.61.3l-2.19 1.2c.4.74.83 1.48 1.28 2.19l2.12-1.32c-.39-.69-.8-1.37-1.18-2.07zm72.83 4.2c-.46.65-1 1.3-1.45 1.93l2 1.55c.53-.66 1-1.35 1.53-2zm-70 .27l-2 1.46c.49.69 1 1.37 1.54 2L18.56 79c-.51-.62-1-1.26-1.46-1.91zM83.79 81c-.45.5-.92 1-1.39 1.47l-.27.27 1.75 1.78.28-.28c.51-.51 1-1 1.49-1.56zm-63.34.24l-1.84 1.69c.57.62 1.17 1.24 1.78 1.83l1.74-1.8-1.68-1.77zM80 84.64c-.61.52-1.24 1-1.87 1.51l1.52 2c.67-.52 1.34-1.06 2-1.61zm-55.73.21l-1.62 1.91c.65.54 1.31 1.08 2 1.59l1.51-2c-.65-.48-1.28-.99-1.89-1.5zm51.51 3c-.67.44-1.35.87-2 1.28L75 91.26c.73-.43 1.46-.88 2.16-1.35zM28.51 88l-1.37 2.09c.71.46 1.44.91 2.17 1.34l1.25-2.17c-.69-.38-1.38-.8-2.05-1.26zm42.69 2.49c-.71.35-1.45.7-2.18 1l1 2.3q1.17-.51 2.31-1.08zm-38.09.15L32 92.89c.76.37 1.54.73 2.32 1.06l1-2.31c-.75-.31-1.49-.64-2.21-1zm33.22 1.92c-.75.27-1.52.51-2.29.74l.71 2.4c.8-.24 1.62-.5 2.42-.79zM38 92.68L37.18 95c.81.28 1.62.53 2.43.76l.69-2.4c-.77-.18-1.54-.42-2.3-.68zM61.25 94c-.78.18-1.58.33-2.36.45l.39 2.47c.84-.13 1.68-.29 2.51-.48zm-18.15.08l-.52 2.45c.83.17 1.67.32 2.51.45l.37-2.47c-.78-.11-1.58-.25-2.36-.42zm12.9.75c-.79.07-1.6.13-2.4.16l.1 2.49c.84 0 1.7-.08 2.54-.16zm-7.69 0l-.21 2.49c.84.07 1.7.12 2.54.15l.07-2.5c-.77.03-1.58-.04-2.38-.11z" fill="#e14a57"/><path fill="none" d="M0 0h104v104H0z"/></svg>