<svg width="1440" height="840" viewBox="0 0 1440 840" fill="none" xmlns="http://www.w3.org/2000/svg">
<g clip-path="url(#clip0)">
<path d="M1440 0H0V840H1440V0Z" fill="url(#paint0_radial)"/>
<path d="M834.96 682.56C828.72 682.56 822.48 681.36 818.16 678.72L597.12 551.04C592.8 548.4 590.16 545.04 590.16 540.96C590.16 536.16 593.76 531.6 599.76 528L1021.2 284.64C1032.72 277.92 1050 277.2 1060.08 282.96L1281.12 410.64C1285.44 413.28 1288.08 416.64 1288.08 420.72C1288.08 425.52 1284.48 430.08 1278.48 433.68L856.8 677.04C850.56 680.64 842.64 682.56 834.96 682.56ZM818.4 677.76C828 683.28 845.04 682.56 856.32 676.08L1277.76 432.72C1283.52 429.36 1286.88 425.04 1286.88 420.72C1286.88 417.12 1284.72 414 1280.4 411.6L1059.36 283.92C1049.76 278.4 1032.72 279.12 1021.44 285.6L600.24 528.96C594.48 532.32 591.12 536.64 591.12 540.96C591.12 544.56 593.28 547.68 597.6 550.08L818.4 677.76Z" fill="#42E8E0"/>
<path d="M1287.36 361.92L1255.68 367.44L1059.84 254.4C1050 248.64 1032.96 249.36 1021.44 256.08L646.8 472.32L590.64 481.92V501.84C590.64 505.44 592.8 509.04 597.36 511.44L818.4 639.12C828.24 644.88 845.28 644.16 856.8 637.44L1278.24 394.08C1284.24 390.48 1287.6 386.16 1287.6 381.84V361.92H1287.36Z" fill="url(#paint1_linear)"/>
<path d="M818.16 618.96L597.12 491.28C587.28 485.52 588.48 475.68 599.76 469.2L1021.44 226.08C1032.72 219.6 1050 218.88 1059.84 224.4L1280.88 352.08C1290.72 357.84 1289.52 367.68 1278.24 374.16L856.56 617.52C845.28 624 828 624.72 818.16 618.96Z" fill="#24126A"/>
<path d="M1278 374.16L856.56 617.52C845.28 624 828 624.72 818.16 619.2L597.12 491.52C593.28 489.36 591.12 486.24 590.64 483.12C589.92 487.2 592.08 491.28 597.12 494.16L818.16 621.84C828 627.6 845.04 626.88 856.56 620.16L1278 376.8C1284.72 372.96 1287.84 367.68 1287.36 363.12C1286.64 366.96 1283.52 371.04 1278 374.16Z" fill="white"/>
<path opacity="0.51" d="M818.64 614.16L605.52 491.04C595.92 485.52 597.12 475.92 608.16 469.68L1021.68 230.88C1032.72 224.64 1049.28 223.92 1058.88 229.44L1272 352.56C1281.6 358.08 1280.4 367.68 1269.36 373.92L855.84 612.72C844.8 618.96 828.24 619.68 818.64 614.16Z" fill="#453C9E"/>
<path opacity="0.8" d="M834.72 612.96C828.48 612.96 822.72 611.76 818.16 609.12L605.04 486C600.72 483.6 598.32 480 598.32 476.16C598.32 471.6 601.68 466.8 607.68 463.44L1021.2 224.64C1032.24 218.16 1049.28 217.44 1058.88 223.2L1272 346.32C1276.32 348.72 1278.72 352.32 1278.72 356.16C1278.72 360.72 1275.36 365.52 1269.36 368.88L855.84 607.68C850.08 611.28 842.16 612.96 834.72 612.96ZM819.12 607.92C828.48 613.2 844.8 612.72 855.6 606.48L1269.12 367.68C1274.64 364.56 1277.76 360.24 1277.76 356.16C1277.76 352.8 1275.6 349.68 1271.76 347.52L1058.64 224.4C1049.28 219.12 1032.96 219.6 1022.16 225.84L608.64 464.64C603.12 467.76 600 472.08 600 476.16C600 479.52 602.16 482.64 606 484.8L819.12 607.92Z" fill="url(#paint2_linear)"/>
<g opacity="0.1">
<path opacity="0.5" d="M818.64 608.64L605.52 485.52C595.92 480 597.12 470.4 608.16 464.16L1021.68 225.36C1032.72 219.12 1049.28 218.4 1058.88 223.92L1272 347.04C1281.6 352.56 1280.4 362.16 1269.36 368.4L855.84 607.2C844.8 613.44 828.24 614.16 818.64 608.64Z" fill="url(#paint3_radial)"/>
<g opacity="0.1">
<path opacity="0.1" d="M1054.08 562.32C1054.08 535.44 1035.36 503.04 1012.08 489.6C1000.56 482.88 990 482.16 982.32 486.72L974.4 491.28L976.8 491.52C972.72 496.56 970.08 504.24 970.08 513.84C970.08 540.72 988.8 573.12 1012.08 586.56C1020 591.12 1027.44 592.8 1033.92 592.08L1033.68 594.24L1041.84 589.44L1042.08 589.2C1049.52 584.88 1054.08 575.52 1054.08 562.32Z" fill="#9FFFF8"/>
<path opacity="0.1" d="M1033.78 594.179C1050.19 584.702 1050.23 554.035 1033.86 525.683C1017.49 497.33 990.911 482.029 974.497 491.506C958.082 500.983 958.046 531.65 974.416 560.003C990.785 588.355 1017.36 603.656 1033.78 594.179Z" fill="#42E8E0"/>
</g>
</g>
<path opacity="0.4" d="M1226.4 367.44C1223.04 369.36 1217.76 369.36 1214.64 367.44C1211.28 365.52 1211.28 362.4 1214.64 360.72C1218 358.8 1223.28 358.8 1226.4 360.72C1229.76 362.4 1229.76 365.52 1226.4 367.44Z" fill="#24126A"/>
<path opacity="0.4" d="M1181.52 334.56L1204.56 347.76C1207.44 349.44 1206.96 352.32 1203.84 354C1200.48 355.92 1195.68 356.16 1192.8 354.48L1169.76 341.28C1166.88 339.6 1167.36 336.72 1170.48 335.04C1173.84 333.12 1178.64 332.88 1181.52 334.56Z" fill="#24126A"/>
<path opacity="0.4" d="M1050 254.64L1073.04 267.84C1075.92 269.52 1075.44 272.4 1072.32 274.08C1068.96 276 1064.16 276.24 1061.28 274.56L1038.24 261.36C1035.36 259.68 1035.84 256.8 1038.96 255.12C1042.32 253.44 1047.12 253.2 1050 254.64Z" fill="#24126A"/>
<path d="M1226.4 359.04C1223.04 360.96 1217.76 360.96 1214.64 359.04C1211.28 357.12 1211.28 354 1214.64 352.32C1218 350.4 1223.28 350.4 1226.4 352.32C1229.52 354.24 1229.76 357.12 1226.4 359.04Z" fill="#42E8E0"/>
<path d="M1181.52 326.4L1204.56 339.6C1207.44 341.28 1206.96 344.16 1203.84 345.84C1200.48 347.76 1195.68 348 1192.8 346.32L1169.76 333.12C1166.88 331.44 1167.36 328.56 1170.48 326.88C1173.84 324.96 1178.64 324.72 1181.52 326.4Z" fill="#42E8E0"/>
<path d="M1050 246.48L1073.04 259.68C1075.92 261.36 1075.44 264.24 1072.32 265.92C1068.96 267.84 1064.16 268.08 1061.28 266.4L1038.24 253.2C1035.36 251.52 1035.84 248.64 1038.96 246.96C1042.32 245.04 1047.12 244.8 1050 246.48Z" fill="#42E8E0"/>
<g opacity="0.3">
<path opacity="0.3" d="M1355.76 649.68V638.88L1352.88 637.2C1352.16 642.24 1346.16 645.6 1341.12 646.32L1307.04 666.24L1292.16 671.52L1244.88 647.04L1246.08 646.32C1242 644.4 1239.84 640.08 1237.68 636.24L1234.56 638.16L1232.64 638.64V649.68C1232.64 651.84 1234.08 654 1236.72 655.44L1284.24 682.8C1289.76 685.92 1298.88 685.92 1304.4 682.8L1351.92 655.44C1354.56 653.76 1356 651.84 1356 649.68C1355.76 649.92 1355.76 649.68 1355.76 649.68Z" fill="url(#paint4_linear)"/>
<path opacity="0.3" d="M1340.88 646.32L1306.8 666.24L1293.84 670.8V685.44C1297.44 685.44 1301.04 684.72 1303.92 683.04L1351.44 655.68C1354.08 654 1355.52 652.08 1355.52 649.92V649.68V638.88L1352.88 637.44H1352.64C1351.68 642.48 1345.92 645.6 1340.88 646.32Z" fill="#0F054C"/>
<g opacity="0.3">
<path opacity="0.3" d="M1284 672.24L1236.48 644.88C1230.96 641.76 1230.96 636.48 1236.48 633.12L1284 605.76C1289.52 602.64 1298.64 602.64 1304.16 605.76L1351.68 633.12C1357.2 636.24 1357.2 641.52 1351.68 644.88L1304.16 672.24C1298.64 675.36 1289.52 675.36 1284 672.24Z" fill="url(#paint5_linear)"/>
</g>
<g opacity="0.3">
<path opacity="0.3" d="M1284 672.24L1236.48 644.88C1230.96 641.76 1230.96 636.48 1236.48 633.12L1284 605.76C1289.52 602.64 1298.64 602.64 1304.16 605.76L1351.68 633.12C1357.2 636.24 1357.2 641.52 1351.68 644.88L1304.16 672.24C1298.64 675.36 1289.52 675.36 1284 672.24Z" fill="#0F054C"/>
</g>
</g>
<path d="M1294.08 637.44C1290.72 637.44 1287.6 636.72 1285.2 635.28L1237.68 607.92C1235.28 606.48 1233.84 604.56 1233.84 602.4C1233.84 600.24 1235.28 598.32 1237.68 596.88L1285.2 569.52C1290.24 566.64 1298.16 566.64 1303.2 569.52L1350.72 596.88C1353.12 598.32 1354.56 600.24 1354.56 602.4C1354.56 604.56 1353.12 606.48 1350.72 607.92L1303.2 635.28C1300.56 636.72 1297.2 637.44 1294.08 637.44ZM1294.08 568.32C1290.96 568.32 1287.84 569.04 1285.44 570.24L1237.92 597.6C1235.76 598.8 1234.56 600.48 1234.56 602.4C1234.56 604.08 1235.76 605.76 1237.92 607.2L1285.44 634.56C1290.24 637.2 1297.68 637.2 1302.48 634.56L1350 607.2C1352.16 606 1353.36 604.32 1353.36 602.4C1353.36 600.48 1352.16 599.04 1350 597.6L1302.48 570.24C1300.08 569.04 1297.2 568.32 1294.08 568.32Z" fill="#42E8E0"/>
<path opacity="0.4" d="M1355.76 592.08V575.76L1352.88 574.08C1352.16 579.12 1346.16 582.48 1341.12 583.2L1307.04 603.12L1292.16 608.4L1244.88 583.92L1246.08 583.2C1242 581.28 1239.84 576.96 1237.68 573.12L1234.56 575.04L1232.64 575.52V592.08C1232.64 594.24 1234.08 596.4 1236.72 597.84L1284.24 625.2C1289.76 628.32 1298.88 628.32 1304.4 625.2L1351.92 597.84C1354.56 596.16 1356 594.24 1356 592.08C1355.76 592.32 1355.76 592.08 1355.76 592.08Z" fill="#42E8E0"/>
<path d="M1355.76 577.68V566.88L1352.88 565.2C1352.16 570.24 1346.16 573.6 1341.12 574.32L1307.04 594.24L1292.16 599.52L1244.88 575.04L1246.08 574.32C1242 572.4 1239.84 568.08 1237.68 564.24L1234.56 566.16L1232.64 566.64V577.68C1232.64 579.84 1234.08 582 1236.72 583.44L1284.24 610.8C1289.76 613.92 1298.88 613.92 1304.4 610.8L1351.92 583.44C1354.56 581.76 1356 579.84 1356 577.68C1355.76 577.68 1355.76 577.68 1355.76 577.68Z" fill="url(#paint6_linear)"/>
<path opacity="0.3" d="M1340.88 574.32L1306.8 594.24L1293.84 598.8V613.44C1297.44 613.44 1301.04 612.72 1303.92 611.04L1351.44 583.68C1354.08 582 1355.52 580.08 1355.52 577.92V577.68V566.88L1352.88 565.44H1352.64C1351.68 570.24 1345.92 573.6 1340.88 574.32Z" fill="#0F054C"/>
<path d="M1284 600L1236.48 572.64C1230.96 569.52 1230.96 564.24 1236.48 560.88L1284 533.52C1289.52 530.4 1298.64 530.4 1304.16 533.52L1351.68 560.88C1357.2 564 1357.2 569.28 1351.68 572.64L1304.16 600C1298.64 603.36 1289.52 603.36 1284 600Z" fill="url(#paint7_linear)"/>
<path d="M1351.44 572.64L1304.16 600C1298.64 603.12 1289.52 603.12 1284 600L1236.48 572.64C1234.08 571.2 1232.64 569.28 1232.4 567.6C1232.16 570 1233.36 572.4 1236.48 574.08L1284 601.44C1289.52 604.56 1298.64 604.56 1304.16 601.44L1351.68 574.08C1354.8 572.4 1356.24 570 1355.76 567.6C1355.52 569.28 1354.08 571.2 1351.44 572.64Z" fill="white"/>
<g opacity="0.3">
<path opacity="0.3" d="M1144.32 713.76V702.96L1141.44 701.28C1140.48 706.32 1134.72 709.68 1129.68 710.4L1095.6 730.32L1080.72 735.6L1033.44 711.12L1034.64 710.4C1030.56 708.48 1028.4 704.16 1026.24 700.32L1023.12 702.24L1021.2 702.72V713.76C1021.2 715.92 1022.64 718.08 1025.28 719.52L1072.8 746.88C1078.32 750 1087.44 750 1092.96 746.88L1140.48 719.52C1143.12 717.84 1144.56 715.92 1144.56 713.76C1144.32 713.76 1144.32 713.76 1144.32 713.76Z" fill="url(#paint8_linear)"/>
<path opacity="0.3" d="M1129.68 710.4L1095.6 730.32L1082.64 734.88V749.52C1086.24 749.52 1089.84 748.8 1092.72 747.12L1140.24 719.76C1142.88 718.08 1144.32 716.16 1144.32 714V713.76V702.96L1141.68 701.52H1141.44C1140.48 706.32 1134.48 709.68 1129.68 710.4Z" fill="#0F054C"/>
<g opacity="0.3">
<path opacity="0.3" d="M1072.56 736.08L1025.04 708.72C1019.52 705.6 1019.52 700.32 1025.04 696.96L1072.56 669.6C1078.08 666.48 1087.2 666.48 1092.72 669.6L1140.24 696.96C1145.76 700.08 1145.76 705.36 1140.24 708.72L1092.72 736.08C1087.2 739.44 1078.08 739.44 1072.56 736.08Z" fill="url(#paint9_linear)"/>
</g>
<g opacity="0.3">
<path opacity="0.3" d="M1072.56 736.08L1025.04 708.72C1019.52 705.6 1019.52 700.32 1025.04 696.96L1072.56 669.6C1078.08 666.48 1087.2 666.48 1092.72 669.6L1140.24 696.96C1145.76 700.08 1145.76 705.36 1140.24 708.72L1092.72 736.08C1087.2 739.44 1078.08 739.44 1072.56 736.08Z" fill="#40FF90"/>
</g>
</g>
<path d="M1082.64 696.24C1079.28 696.24 1076.16 695.52 1073.76 694.08L1026.24 666.72C1023.84 665.28 1022.4 663.36 1022.4 661.2C1022.4 659.04 1023.84 657.12 1026.24 655.68L1073.76 628.32C1078.8 625.44 1086.72 625.44 1091.76 628.32L1139.28 655.68C1141.68 657.12 1143.12 659.04 1143.12 661.2C1143.12 663.36 1141.68 665.28 1139.28 666.72L1091.76 694.08C1089.12 695.52 1085.76 696.24 1082.64 696.24ZM1074 693.36C1078.8 696 1086.24 696 1091.04 693.36L1138.56 666C1140.72 664.8 1141.92 663.12 1141.92 661.2C1141.92 659.52 1140.72 657.84 1138.56 656.4L1091.04 629.04C1086.24 626.4 1078.8 626.4 1074 629.04L1026.48 656.4C1024.32 657.6 1023.12 659.28 1023.12 661.2C1023.12 662.88 1024.32 664.56 1026.48 666L1074 693.36Z" fill="#42E8E0"/>
<path opacity="0.4" d="M1144.32 650.88V634.56L1141.44 632.88C1140.48 637.92 1134.72 641.28 1129.68 642L1095.6 661.92L1080.72 667.2L1033.44 642.72L1034.64 642C1030.56 640.08 1028.4 635.76 1026.24 631.92L1023.12 633.84L1021.2 634.32V650.88C1021.2 653.04 1022.64 655.2 1025.28 656.64L1072.8 684C1078.32 687.12 1087.44 687.12 1092.96 684L1140.48 656.64C1143.12 654.96 1144.56 653.04 1144.56 650.88C1144.32 650.88 1144.32 650.88 1144.32 650.88Z" fill="#42E8E0"/>
<path d="M1144.32 636.24V625.44L1141.44 623.76C1140.48 628.8 1134.72 632.16 1129.68 632.88L1095.6 652.8L1080.72 658.08L1033.44 633.6L1034.64 632.88C1030.56 630.96 1028.4 626.64 1026.24 622.8L1023.12 624.72L1021.2 625.2V636.24C1021.2 638.4 1022.64 640.56 1025.28 642L1072.8 669.36C1078.32 672.48 1087.44 672.48 1092.96 669.36L1140.48 642C1143.12 640.32 1144.56 638.4 1144.56 636.24C1144.32 636.48 1144.32 636.48 1144.32 636.24Z" fill="url(#paint10_linear)"/>
<path opacity="0.3" d="M1129.68 633.12L1095.6 653.04L1082.64 657.6V672.24C1086.24 672.24 1089.84 671.52 1092.72 669.84L1140.24 642.48C1142.88 640.8 1144.32 638.88 1144.32 636.72V636.48V625.68L1141.68 624.24H1141.44C1140.48 629.04 1134.48 632.4 1129.68 633.12Z" fill="#0F054C"/>
<path d="M1072.56 658.8L1025.04 631.44C1019.52 628.32 1019.52 623.04 1025.04 619.68L1072.56 592.32C1078.08 589.2 1087.2 589.2 1092.72 592.32L1140.24 619.68C1145.76 622.8 1145.76 628.08 1140.24 631.44L1092.72 658.8C1087.2 661.92 1078.08 661.92 1072.56 658.8Z" fill="url(#paint11_linear)"/>
<path d="M1082.64 653.76C1079.76 653.76 1076.88 653.04 1074.48 651.84L1037.28 630.48C1035.12 629.28 1033.92 627.36 1033.92 625.68C1033.92 623.76 1035.12 622.08 1037.28 620.88L1074.48 599.52C1079.04 596.88 1086.24 596.88 1090.56 599.52L1127.76 620.88C1129.92 622.08 1131.12 624 1131.12 625.68C1131.12 627.6 1129.92 629.28 1127.76 630.48L1090.56 651.84C1088.4 653.28 1085.52 653.76 1082.64 653.76ZM1074.96 651.12C1079.28 653.52 1086 653.52 1090.32 651.12L1127.52 629.76C1129.44 628.56 1130.64 627.12 1130.64 625.68C1130.64 624 1129.44 622.56 1127.52 621.6L1090.32 600.24C1086 597.84 1079.28 597.84 1074.96 600.24L1037.76 621.6C1035.84 622.8 1034.64 624.24 1034.64 625.68C1034.64 627.36 1035.84 628.8 1037.76 629.76L1074.96 651.12Z" fill="#5351AF"/>
<path d="M1140.24 631.44L1092.72 658.8C1087.2 661.92 1078.08 661.92 1072.56 658.8L1025.04 631.44C1022.64 630 1021.2 628.08 1020.96 626.4C1020.72 628.8 1021.92 631.2 1025.04 632.88L1072.56 660.24C1078.08 663.36 1087.2 663.36 1092.72 660.24L1140.24 632.88C1143.36 631.2 1144.8 628.8 1144.32 626.4C1144.08 628.08 1142.64 630 1140.24 631.44Z" fill="white"/>
<g opacity="0.3">
<path opacity="0.3" d="M738.24 332.16V321.36L735.36 319.68C734.64 324.72 728.64 328.08 723.6 328.8L689.52 348.72L674.64 354L627.36 329.52L628.56 328.8C624.48 326.88 622.32 322.56 620.16 318.72L617.04 320.64L615.12 321.12V332.16C615.12 334.32 616.56 336.48 619.2 337.92L666.72 365.28C672.24 368.4 681.36 368.4 686.88 365.28L734.4 337.92C737.04 336.24 738.48 334.32 738.48 332.16C738.24 332.16 738.24 332.16 738.24 332.16Z" fill="url(#paint12_linear)"/>
<path opacity="0.3" d="M723.6 328.8L689.52 348.72L676.56 353.28V367.92C680.16 367.92 683.76 367.2 686.64 365.52L734.16 338.16C736.8 336.48 738.24 334.56 738.24 332.4V332.16V321.36L735.6 319.92H735.36C734.4 324.72 728.4 328.08 723.6 328.8Z" fill="#0F054C"/>
<g opacity="0.3">
<path opacity="0.3" d="M666.48 354.48L619.2 327.12C613.68 324 613.68 318.72 619.2 315.36L666.72 288C672.24 284.88 681.36 284.88 686.88 288L734.4 315.36C739.92 318.48 739.92 323.76 734.4 326.88L686.88 354.24C681.12 357.84 672 357.84 666.48 354.48Z" fill="url(#paint13_linear)"/>
</g>
<g opacity="0.3">
<path opacity="0.3" d="M666.48 354.48L619.2 327.12C613.68 324 613.68 318.72 619.2 315.36L666.72 288C672.24 284.88 681.36 284.88 686.88 288L734.4 315.36C739.92 318.48 739.92 323.76 734.4 326.88L686.88 354.24C681.12 357.84 672 357.84 666.48 354.48Z" fill="#40FF90"/>
</g>
</g>
<path d="M676.56 321.6C673.2 321.6 670.08 320.88 667.68 319.44L620.16 292.08C617.76 290.64 616.32 288.72 616.32 286.56C616.32 284.4 617.76 282.48 620.16 281.04L667.68 253.68C672.72 250.8 680.64 250.8 685.68 253.68L733.2 281.04C735.6 282.48 737.04 284.4 737.04 286.56C737.04 288.72 735.6 290.64 733.2 292.08L685.68 319.44C683.04 321.12 679.92 321.6 676.56 321.6ZM676.56 252.72C673.44 252.72 670.32 253.44 667.92 254.64L620.4 282C618.24 283.2 617.04 284.88 617.04 286.8C617.04 288.48 618.24 290.16 620.4 291.6L667.92 318.96C672.72 321.6 680.16 321.6 684.96 318.96L732.48 291.6C734.64 290.4 735.84 288.72 735.84 286.8C735.84 285.12 734.64 283.44 732.48 282L684.96 254.64C682.8 253.2 679.68 252.72 676.56 252.72Z" fill="#42E8E0"/>
<path opacity="0.4" d="M738.24 276.24V259.92L735.36 258.24C734.64 263.28 728.64 266.64 723.6 267.36L689.52 287.28L674.64 292.56L627.36 268.08L628.56 267.36C624.48 265.44 622.32 261.12 620.16 257.28L617.04 259.2L615.12 259.68V276.24C615.12 278.4 616.56 280.56 619.2 282L666.72 309.36C672.24 312.48 681.36 312.48 686.88 309.36L734.4 282C737.04 280.32 738.48 278.4 738.48 276.24C738.24 276.48 738.24 276.24 738.24 276.24Z" fill="#42E8E0"/>
<path d="M738.24 261.84V251.04L735.36 249.36C734.64 254.4 728.64 257.76 723.6 258.48L689.52 278.4L674.64 283.68L627.36 259.2L628.56 258.48C624.48 256.56 622.32 252.24 620.16 248.4L617.04 250.32L615.12 250.8V261.84C615.12 264 616.56 266.16 619.2 267.6L666.72 294.96C672.24 298.08 681.36 298.08 686.88 294.96L734.4 267.6C737.04 265.92 738.48 264 738.48 261.84C738.24 262.08 738.24 261.84 738.24 261.84Z" fill="url(#paint14_linear)"/>
<path opacity="0.3" d="M723.6 258.48L689.52 278.4L676.56 282.96V297.6C680.16 297.6 683.76 296.88 686.64 295.2L734.16 267.84C736.8 266.16 738.24 264.24 738.24 262.08V261.84V251.04L735.6 249.6H735.36C734.4 254.64 728.4 257.76 723.6 258.48Z" fill="#0F054C"/>
<path d="M628.32 258.72L673.44 232.8C675.12 231.84 678 231.84 679.92 232.8L724.08 258.24L723.6 258.48C728.64 257.76 734.64 254.4 735.36 249.36L685.68 221.76L671.28 217.92L659.52 224.88L619.92 248.4C622.08 252.48 624.48 256.8 628.32 258.72Z" fill="url(#paint15_linear)"/>
<path opacity="0.3" d="M676.56 219.36L671.28 217.92L659.52 224.88L619.92 248.4C622.08 252.24 624.24 256.56 628.32 258.48L673.44 232.8C674.4 232.32 675.6 232.08 676.56 232.08V219.36Z" fill="#0F054C"/>
<path d="M666.48 284.16L619.2 256.8C613.68 253.68 613.68 248.4 619.2 245.04L666.72 217.68C672.24 214.56 681.36 214.56 686.88 217.68L734.4 245.04C739.92 248.16 739.92 253.44 734.4 256.56L686.88 283.92C681.12 287.52 672 287.52 666.48 284.16ZM679.92 221.76C678.24 220.8 675.36 220.8 673.44 221.76L625.92 249.12C624.24 250.08 624.24 251.76 625.92 252.96L673.44 280.32C675.12 281.28 678 281.28 679.92 280.32L727.44 252.96C729.12 252 729.12 250.32 727.44 249.12L679.92 221.76Z" fill="url(#paint16_linear)"/>
<path d="M727.44 249.12L679.92 221.76C678.24 220.8 675.36 220.8 673.44 221.76L625.92 249.12C624.72 249.84 624.24 250.8 624.72 251.76C624.96 251.28 625.2 250.8 625.92 250.56L673.44 223.2C675.12 222.24 678 222.24 679.92 223.2L727.44 250.56C727.92 250.8 728.4 251.28 728.64 251.76C728.88 250.8 728.64 249.84 727.44 249.12Z" fill="white"/>
<path d="M734.16 256.8L686.64 284.16C681.12 287.28 672 287.28 666.48 284.16L619.2 256.8C616.8 255.36 615.36 253.44 615.12 251.76C614.88 254.16 616.08 256.56 619.2 258.24L666.72 285.6C672.24 288.72 681.36 288.72 686.88 285.6L734.4 258.24C737.52 256.56 738.96 254.16 738.48 251.76C738 253.68 736.56 255.36 734.16 256.8Z" fill="white"/>
<path d="M667.92 283.44L620.4 256.08C615.6 253.2 615.6 248.88 620.4 246L667.92 218.64C672.72 215.76 680.64 215.76 685.44 218.64L732.96 246C737.76 248.88 737.76 253.2 732.96 256.08L685.44 283.44C680.64 286.32 672.72 286.32 667.92 283.44ZM681.12 221.04C678.72 219.6 674.4 219.6 672 221.04L624.48 248.4C622.08 249.84 622.08 252.24 624.48 253.68L672 281.04C674.4 282.48 678.72 282.48 681.12 281.04L728.64 253.68C731.04 252.24 731.04 249.84 728.64 248.4L681.12 221.04Z" fill="url(#paint17_linear)"/>
<path opacity="0.4" d="M679.92 221.76C678.24 220.8 675.36 220.8 673.44 221.76L625.92 249.12C624.24 250.08 624.24 251.76 625.92 252.96L673.44 280.32C675.12 281.28 678 281.28 679.92 280.32L727.44 252.96C729.12 252 729.12 250.32 727.44 249.12L679.92 221.76Z" fill="#42E8E0"/>
<path opacity="0.5" d="M728.64 251.04V81.6H624.48V250.8C624.48 251.52 624.96 252.24 625.92 252.72L673.44 280.08C675.12 281.04 678 281.04 679.92 280.08L727.44 252.72C728.16 252.48 728.64 251.76 728.64 251.04Z" fill="url(#paint18_linear)"/>
<path d="M1054.08 385.92C1054.08 359.04 1035.36 326.64 1012.08 313.2C1000.56 306.48 990 305.76 982.32 310.32L974.4 314.88L976.8 315.12C972.72 320.16 970.08 327.84 970.08 337.44C970.08 364.32 988.8 396.72 1012.08 410.16C1020 414.72 1027.44 416.4 1033.92 415.68L1033.68 417.84L1041.84 413.04L1042.08 412.8C1049.52 408.24 1054.08 398.88 1054.08 385.92Z" fill="#08B952"/>
<path d="M1033.74 417.549C1050.15 408.072 1050.19 377.405 1033.82 349.053C1017.45 320.7 990.873 305.399 974.458 314.876C958.044 324.353 958.007 355.02 974.377 383.373C990.747 411.725 1017.32 427.026 1033.74 417.549Z" fill="#40FF90"/>
<path d="M955.92 270.24C971.52 248.4 975.12 210.96 963.84 186.72C958.32 174.48 950.16 168 941.28 167.04L932.16 166.32L933.84 167.76C927.36 169.44 921.12 174.24 915.6 182.16C900 204 896.4 241.44 907.68 265.68C911.52 274.08 916.56 279.84 922.08 282.72L920.64 284.4L930 285.12H930.48C939.36 285.84 948.24 280.8 955.92 270.24Z" fill="#08B952"/>
<path d="M960.677 228.52C963.808 195.932 951.051 168.044 932.184 166.231C913.317 164.419 895.484 189.368 892.353 221.957C889.222 254.545 901.979 282.433 920.846 284.246C939.714 286.058 957.547 261.109 960.677 228.52Z" fill="#40FF90"/>
<g opacity="0.1">
<path opacity="0.1" d="M970.08 446.4C970.08 419.52 951.36 387.12 928.08 373.68C916.56 366.96 906 366.24 898.32 370.8L890.4 375.36L892.8 375.6C888.72 380.64 886.08 388.32 886.08 397.92C886.08 424.8 904.8 457.2 928.08 470.64C936 475.2 943.44 476.88 949.92 476.16L949.68 478.32L957.84 473.52L958.08 473.28C965.52 468.72 970.08 459.6 970.08 446.4Z" fill="#9FFFF8"/>
<path opacity="0.1" d="M949.73 478.06C966.144 468.583 966.181 437.916 949.811 409.564C933.441 381.211 906.864 365.91 890.45 375.387C874.035 384.864 873.999 415.531 890.369 443.884C906.738 472.236 933.315 487.537 949.73 478.06Z" fill="#42E8E0"/>
</g>
<path opacity="0.4" d="M922.8 490.08C893.76 490.08 864.96 483.6 842.88 470.88C821.52 458.4 809.76 442.08 809.76 424.56C809.76 407.04 821.52 390.48 842.88 378.24C887.04 352.8 958.8 352.8 1002.72 378.24C1024.08 390.72 1035.84 407.04 1035.84 424.56C1035.84 442.08 1024.08 458.64 1002.72 470.88L1002.48 470.4L1002.72 470.88C980.64 483.6 951.84 490.08 922.8 490.08ZM922.8 359.76C894 359.76 865.2 366 843.36 378.72C822.24 390.96 810.48 407.04 810.48 424.32C810.48 441.6 822.24 457.68 843.36 469.92C887.28 495.36 958.56 495.36 1002.48 469.92C1023.6 457.68 1035.36 441.6 1035.36 424.32C1035.36 407.04 1023.6 390.96 1002.48 378.72C980.4 366.24 951.6 359.76 922.8 359.76Z" fill="#42E8E0"/>
<path opacity="0.2" d="M922.8 507.6C886.08 507.6 849.36 499.44 821.28 483.36C794.16 467.76 779.04 446.88 779.04 424.56C779.04 402.24 793.92 381.36 821.28 365.76C877.2 333.36 968.16 333.36 1024.08 365.76C1051.2 381.36 1066.32 402.24 1066.32 424.56C1066.32 446.88 1051.44 467.76 1024.08 483.36C996.24 499.44 959.52 507.6 922.8 507.6ZM922.8 342.24C886.32 342.24 849.6 350.16 821.76 366.48C794.88 382.08 780 402.72 780 424.56C780 446.4 794.88 467.04 821.76 482.64C877.44 514.8 968.16 514.8 1023.84 482.64C1050.72 467.04 1065.6 446.4 1065.6 424.56C1065.6 402.72 1050.72 382.08 1023.84 366.48C996 350.4 959.52 342.24 922.8 342.24Z" fill="#42E8E0"/>
<path d="M922.8 476.16C900 476.16 877.2 471.12 859.68 461.04C842.88 451.2 833.52 438.24 833.52 424.32C833.52 410.4 842.88 397.44 859.68 387.6C894.48 367.44 950.88 367.44 985.68 387.6C1002.48 397.44 1011.84 410.4 1011.84 424.32C1011.84 438.24 1002.48 451.2 985.68 461.04L985.44 460.56L985.68 461.04C968.4 471.12 945.6 476.16 922.8 476.16ZM922.8 373.68C900.24 373.68 877.44 378.72 860.16 388.56C843.6 398.16 834.24 410.88 834.24 424.56C834.24 438.24 843.36 450.96 860.16 460.56C894.72 480.48 950.88 480.48 985.44 460.56C1002 450.96 1011.36 438.24 1011.36 424.56C1011.36 410.88 1002.24 398.16 985.44 388.56C968.16 378.72 945.6 373.68 922.8 373.68Z" fill="#42E8E0"/>
<path d="M970.08 446.4C970.08 419.52 951.36 387.12 928.08 373.68C916.56 366.96 906 366.24 898.32 370.8L890.4 375.36L892.8 375.6C888.72 380.64 886.08 388.32 886.08 397.92C886.08 424.8 904.8 457.2 928.08 470.64C936 475.2 943.44 476.88 949.92 476.16L949.68 478.32L957.84 473.52L958.08 473.28C965.52 468.72 970.08 459.6 970.08 446.4Z" fill="#08B952"/>
<path d="M949.73 478.06C966.144 468.583 966.181 437.916 949.811 409.564C933.441 381.211 906.864 365.91 890.45 375.387C874.035 384.864 873.999 415.531 890.369 443.884C906.738 472.236 933.315 487.537 949.73 478.06Z" fill="#40FF90"/>
<path opacity="0.4" d="M810 562.08L678.24 486C674.4 483.84 674.4 478.08 678.24 475.92L698.4 464.16C705.12 460.32 713.52 460.32 720.24 464.16L852 540.24C855.84 542.4 855.84 548.16 852 550.32L831.84 562.08C825.12 565.92 816.96 565.92 810 562.08Z" fill="#24126A"/>
<path d="M744.24 484.32L723.12 472.08L727.2 469.68L748.32 481.92L744.24 484.32Z" fill="#42E8E0"/>
<path d="M803.52 519.6L797.04 515.76L801.36 513.36L807.84 517.2L803.52 519.6Z" fill="#42E8E0"/>
<path d="M756.24 491.52L749.76 487.92L754.08 485.52L760.56 489.12L756.24 491.52Z" fill="#42E8E0"/>
<path d="M821.04 546.96C817.2 546.96 813.36 546 810 544.08L678 468C676.08 466.8 674.88 464.88 674.88 462.48C674.88 460.08 676.08 458.16 678 456.96L698.16 445.2C705.12 441.36 713.52 441.36 720.48 445.2L852.24 521.28C854.16 522.48 855.36 524.4 855.36 526.8C855.36 529.2 854.16 531.12 852.24 532.32L832.08 544.08C828.72 546 824.88 546.96 821.04 546.96ZM709.2 443.28C705.6 443.28 701.76 444.24 698.64 446.16L678.48 457.92C676.8 458.88 675.84 460.56 675.84 462.48C675.84 464.4 676.8 466.08 678.48 467.04L810.24 543.12C816.72 546.96 824.88 546.96 831.6 543.12L851.76 531.36C853.44 530.4 854.4 528.72 854.4 526.8C854.4 524.88 853.44 523.2 851.76 522.24L720 446.16C716.64 444.24 713.04 443.28 709.2 443.28Z" fill="#42E8E0"/>
<path d="M917.956 396.64C906.195 397.833 897.594 408.263 898.69 420.004C898.919 422.355 899.526 424.652 900.488 426.809C901.192 428.272 902.921 428.929 904.424 428.309C905.865 427.591 906.5 425.881 905.874 424.401C905.073 422.725 904.612 420.909 904.515 419.056C903.947 410.554 910.393 403.198 918.916 402.626C927.439 402.055 934.81 408.482 935.379 416.984C935.911 424.943 930.273 431.999 922.374 433.255C922.374 433.255 919.396 433.729 917.924 434.056C917.382 434.188 916.848 434.349 916.324 434.538C916.255 434.624 916.131 434.636 916.045 434.567L916.042 434.565C915.982 434.501 915.972 434.402 916.019 434.327L916.237 431.759L917.821 418.864C918.005 417.255 916.848 415.802 915.236 415.619C913.623 415.436 912.166 416.591 911.981 418.2C911.981 418.2 908.299 449.744 908.326 450.024C908.09 451.564 909.148 453.002 910.691 453.237C910.707 453.24 910.725 453.242 910.741 453.243L910.897 453.228C912.438 453.47 913.885 452.418 914.126 450.881C914.13 450.855 914.134 450.83 914.136 450.802C914.127 450.756 914.123 450.709 914.123 450.663C914.171 450.292 914.614 446.099 914.614 446.099C914.951 442.934 917.227 440.313 920.317 439.527C920.954 439.365 923.65 438.919 923.65 438.919C935.257 436.612 942.796 425.356 940.488 413.779C938.382 403.219 928.727 395.872 917.956 396.64Z" fill="#19191B"/>
<path d="M927.682 444.958C925.705 445.07 924.192 446.757 924.3 448.724C924.3 448.743 924.303 448.761 924.303 448.779C924.392 450.739 926.06 452.254 928.031 452.16C928.033 452.159 928.035 452.158 928.038 452.16L928.135 452.134C930.075 452.085 931.612 450.478 931.566 448.549C931.567 448.535 931.565 448.519 931.566 448.505L931.515 448.315C931.337 446.358 929.656 444.884 927.682 444.958Z" fill="#E6007A"/>
<g clip-path="url(#clip1)">
<path d="M1003.99 332L1003.54 333.546V378.397L1003.99 378.851L1024.98 366.545L1003.99 332Z" fill="#343434"/>
<path d="M1004 332L983.005 366.545L1004 378.851V357.082V332Z" fill="#8C8C8C"/>
<path d="M1003.99 382.793L1003.74 383.105V399.082L1003.99 399.831L1025 370.493L1003.99 382.793Z" fill="#3C3C3B"/>
<path d="M1003.99 399.831V382.793L983.003 370.493L1003.99 399.831Z" fill="#8C8C8C"/>
<path d="M1003.99 378.851L1024.98 366.545L1003.99 357.082V378.851Z" fill="#141414"/>
<path d="M983.003 366.545L1003.99 378.851V357.082L983.003 366.545Z" fill="#393939"/>
</g>
<path d="M930.32 213.993L933.9 218.322C935.698 220.496 944.449 229.114 943.496 237.933C943.012 242.417 940.827 246.718 937.087 249.78L936.944 249.895L936.233 250.465H936.197C932.51 253.117 928.092 254.16 923.842 253.692C919.301 253.192 914.947 250.967 911.88 247.139L909.022 243.575C910.528 244.104 912.103 244.465 913.718 244.643C914.354 244.712 914.991 244.754 915.624 244.766C917.911 247.415 921.052 248.96 924.323 249.32C927.748 249.697 931.313 248.777 934.194 246.468L934.193 246.468L934.295 246.386C937.112 244.081 938.752 240.839 939.125 237.455C939.502 234.032 939.385 232.465 936.529 228.314L933.026 223.586L931.209 220.927C929.295 218.543 926.727 212.604 929.206 211.078C933.78 208.96 936.231 208.617 940.772 209.118C945.022 209.586 948.273 210.954 951.295 214.344L951.329 214.355L951.9 215.066C954.968 218.894 956.192 223.627 955.691 228.168H955.681C955.18 232.713 952.958 237.067 949.136 240.131L945.573 242.987C946.102 241.482 946.463 239.908 946.641 238.292C946.711 237.656 946.751 237.02 946.763 236.385C949.419 234.094 950.967 230.955 951.326 227.688L951.316 227.687C951.693 224.263 950.773 220.697 948.464 217.818L948.437 217.784C946.13 214.926 942.851 213.351 939.45 212.888C934.881 212.266 932.805 212.611 930.315 214.005L930.32 213.993ZM925.456 238.479C922.342 240.619 918.605 241.991 914.065 241.491C909.524 240.992 905.171 238.767 902.102 234.94L901.532 234.229L901.535 234.194C898.883 230.506 897.84 226.088 898.308 221.839C898.808 217.299 901.033 212.945 904.861 209.877L908.426 207.019C907.896 208.527 907.536 210.102 907.358 211.715C907.288 212.352 907.247 212.987 907.235 213.622C904.586 215.907 903.041 219.047 902.68 222.32C902.304 225.744 903.224 229.311 905.532 232.19L905.532 232.191L905.56 232.225C907.867 235.083 911.135 236.745 914.545 237.122C917.276 237.422 920.163 238.036 923.963 236.565L918.956 230.524C916.759 227.968 909.686 221.638 910.505 212.063C910.973 207.814 912.953 203.728 916.343 200.706L916.346 200.67L917.057 200.101C920.885 197.032 925.618 195.808 930.159 196.308L930.158 196.32C934.703 196.82 939.057 199.043 942.121 202.864L944.977 206.427C943.47 205.898 941.895 205.538 940.282 205.36C939.646 205.291 939.01 205.249 938.376 205.237C936.085 202.581 932.945 201.034 929.679 200.674L929.678 200.686C926.253 200.309 922.689 201.229 919.808 203.537C916.928 205.845 915.254 209.125 914.877 212.55C914.588 217.916 916.248 219.853 918.959 224.497L923.146 230.31C927.289 236.248 925.455 238.485 925.455 238.485L925.456 238.479ZM905.533 232.19L905.561 232.224Z" fill="black"/>
</g>
<defs>
<radialGradient id="paint0_radial" cx="0" cy="0" r="1" gradientUnits="userSpaceOnUse" gradientTransform="translate(184.401 -408.934) scale(1278.36 1277.34)">
<stop stop-color="#2B237C"/>
<stop offset="0.31" stop-color="#251C72"/>
<stop offset="1" stop-color="#090D28"/>
</radialGradient>
<linearGradient id="paint1_linear" x1="590.673" y1="446.705" x2="1287.37" y2="446.705" gradientUnits="userSpaceOnUse">
<stop stop-color="#BCBEFF"/>
<stop offset="0.151" stop-color="#A3A7F5"/>
<stop offset="0.3866" stop-color="#8289E8"/>
<stop offset="0.6124" stop-color="#6A73DF"/>
<stop offset="0.8221" stop-color="#5C66D9"/>
<stop offset="1" stop-color="#5761D7"/>
</linearGradient>
<linearGradient id="paint2_linear" x1="1036.06" y1="545.27" x2="841.581" y2="287.19" gradientUnits="userSpaceOnUse">
<stop stop-color="#42E8E0"/>
<stop offset="0.1055" stop-color="#37B6BF"/>
<stop offset="0.2197" stop-color="#2C87A1"/>
<stop offset="0.338" stop-color="#235F87"/>
<stop offset="0.4587" stop-color="#1C3F72"/>
<stop offset="0.5824" stop-color="#162561"/>
<stop offset="0.7105" stop-color="#121355"/>
<stop offset="0.8458" stop-color="#10084E"/>
<stop offset="1" stop-color="#0F054C"/>
</linearGradient>
<radialGradient id="paint3_radial" cx="0" cy="0" r="1" gradientUnits="userSpaceOnUse" gradientTransform="translate(921.73 422.819) scale(545.305)">
<stop stop-color="#42E8E0"/>
<stop offset="0.1055" stop-color="#37B6BF"/>
<stop offset="0.2197" stop-color="#2C87A1"/>
<stop offset="0.338" stop-color="#235F87"/>
<stop offset="0.4587" stop-color="#1C3F72"/>
<stop offset="0.5824" stop-color="#162561"/>
<stop offset="0.7105" stop-color="#121355"/>
<stop offset="0.8458" stop-color="#10084E"/>
<stop offset="1" stop-color="#0F054C"/>
</radialGradient>
<linearGradient id="paint4_linear" x1="1244.56" y1="617.551" x2="1342.5" y2="674.098" gradientUnits="userSpaceOnUse">
<stop stop-color="#BCBEFF"/>
<stop offset="0.2271" stop-color="#AAADF8"/>
<stop offset="0.6802" stop-color="#7C83E5"/>
<stop offset="1" stop-color="#5761D7"/>
</linearGradient>
<linearGradient id="paint5_linear" x1="1232.28" y1="638.926" x2="1355.72" y2="638.926" gradientUnits="userSpaceOnUse">
<stop stop-color="#E9E9FD"/>
<stop offset="0.3601" stop-color="#D3D2F9"/>
<stop offset="0.7062" stop-color="#C5C4F7"/>
<stop offset="1" stop-color="#C0BFF6"/>
</linearGradient>
<linearGradient id="paint6_linear" x1="1244.56" y1="545.459" x2="1342.5" y2="602.007" gradientUnits="userSpaceOnUse">
<stop stop-color="#BCBEFF"/>
<stop offset="0.2271" stop-color="#AAADF8"/>
<stop offset="0.6802" stop-color="#7C83E5"/>
<stop offset="1" stop-color="#5761D7"/>
</linearGradient>
<linearGradient id="paint7_linear" x1="1232.28" y1="566.834" x2="1355.72" y2="566.834" gradientUnits="userSpaceOnUse">
<stop stop-color="#E9E9FD"/>
<stop offset="0.3601" stop-color="#D3D2F9"/>
<stop offset="0.7062" stop-color="#C5C4F7"/>
<stop offset="1" stop-color="#C0BFF6"/>
</linearGradient>
<linearGradient id="paint8_linear" x1="1033.19" y1="681.516" x2="1131.14" y2="738.063" gradientUnits="userSpaceOnUse">
<stop stop-color="#BCBEFF"/>
<stop offset="0.1905" stop-color="#AAC7EF"/>
<stop offset="0.5728" stop-color="#7BE0C5"/>
<stop offset="1" stop-color="#40FF90"/>
</linearGradient>
<linearGradient id="paint9_linear" x1="1020.91" y1="702.891" x2="1144.36" y2="702.891" gradientUnits="userSpaceOnUse">
<stop stop-color="#E9E9FD"/>
<stop offset="0.3601" stop-color="#D3D2F9"/>
<stop offset="0.7062" stop-color="#C5C4F7"/>
<stop offset="1" stop-color="#C0BFF6"/>
</linearGradient>
<linearGradient id="paint10_linear" x1="1033.19" y1="604.192" x2="1131.14" y2="660.74" gradientUnits="userSpaceOnUse">
<stop stop-color="#BCBEFF"/>
<stop offset="0.2271" stop-color="#AAADF8"/>
<stop offset="0.6802" stop-color="#7C83E5"/>
<stop offset="1" stop-color="#5761D7"/>
</linearGradient>
<linearGradient id="paint11_linear" x1="1020.91" y1="625.567" x2="1144.36" y2="625.567" gradientUnits="userSpaceOnUse">
<stop stop-color="#E9E9FD"/>
<stop offset="0.3601" stop-color="#D3D2F9"/>
<stop offset="0.7062" stop-color="#C5C4F7"/>
<stop offset="1" stop-color="#C0BFF6"/>
</linearGradient>
<linearGradient id="paint12_linear" x1="627.193" y1="299.952" x2="725.136" y2="356.499" gradientUnits="userSpaceOnUse">
<stop stop-color="#BCBEFF"/>
<stop offset="0.1905" stop-color="#AAC7EF"/>
<stop offset="0.5728" stop-color="#7BE0C5"/>
<stop offset="1" stop-color="#40FF90"/>
</linearGradient>
<linearGradient id="paint13_linear" x1="614.911" y1="321.327" x2="738.357" y2="321.327" gradientUnits="userSpaceOnUse">
<stop stop-color="#E9E9FD"/>
<stop offset="0.3601" stop-color="#D3D2F9"/>
<stop offset="0.7062" stop-color="#C5C4F7"/>
<stop offset="1" stop-color="#C0BFF6"/>
</linearGradient>
<linearGradient id="paint14_linear" x1="627.193" y1="229.663" x2="725.136" y2="286.211" gradientUnits="userSpaceOnUse">
<stop stop-color="#BCBEFF"/>
<stop offset="0.2271" stop-color="#AAADF8"/>
<stop offset="0.6802" stop-color="#7C83E5"/>
<stop offset="1" stop-color="#5761D7"/>
</linearGradient>
<linearGradient id="paint15_linear" x1="633.071" y1="225.855" x2="720.417" y2="276.284" gradientUnits="userSpaceOnUse">
<stop offset="0.2421" stop-color="#5761D7"/>
<stop offset="0.3923" stop-color="#7A82E5"/>
<stop offset="0.5463" stop-color="#979CF0"/>
<stop offset="0.7" stop-color="#ACAFF8"/>
<stop offset="0.8519" stop-color="#B8BAFD"/>
<stop offset="1" stop-color="#BCBEFF"/>
</linearGradient>
<linearGradient id="paint16_linear" x1="614.911" y1="251.038" x2="738.357" y2="251.038" gradientUnits="userSpaceOnUse">
<stop stop-color="#E9E9FD"/>
<stop offset="0.3601" stop-color="#D3D2F9"/>
<stop offset="0.7062" stop-color="#C5C4F7"/>
<stop offset="1" stop-color="#C0BFF6"/>
</linearGradient>
<linearGradient id="paint17_linear" x1="616.807" y1="251.038" x2="736.462" y2="251.038" gradientUnits="userSpaceOnUse">
<stop stop-color="#E9E9FD"/>
<stop offset="0.3601" stop-color="#D3D2F9"/>
<stop offset="0.7062" stop-color="#C5C4F7"/>
<stop offset="1" stop-color="#C0BFF6"/>
</linearGradient>
<linearGradient id="paint18_linear" x1="676.631" y1="281.081" x2="677" y2="91" gradientUnits="userSpaceOnUse">
<stop stop-color="#42E8E0"/>
<stop offset="0.1055" stop-color="#37B6BF"/>
<stop offset="0.2197" stop-color="#2C87A1"/>
<stop offset="0.338" stop-color="#235F87"/>
<stop offset="0.4587" stop-color="#1C3F72"/>
<stop offset="0.5824" stop-color="#162561"/>
<stop offset="0.7105" stop-color="#121355"/>
<stop offset="0.8458" stop-color="#1C175A"/>
<stop offset="1" stop-color="#1B1759"/>
</linearGradient>
<clipPath id="clip0">
<rect width="1440" height="840" fill="white"/>
</clipPath>
<clipPath id="clip1">
<rect width="42" height="67.8462" fill="white" transform="translate(983 332)"/>
</clipPath>
</defs>
</svg>
