<svg width="60" height="60" viewBox="0 0 60 60" fill="none" xmlns="http://www.w3.org/2000/svg">
<path d="M30 0C13.4325 0 0 13.4325 0 30C0 46.5675 13.4325 60 30 60C46.5675 60 60 46.5675 60 30C60 13.4325 46.5675 0 30 0ZM25 40H20V25H25V40ZM22.5 22.7725C20.9825 22.7725 19.75 21.5325 19.75 20C19.75 18.47 20.98 17.2275 22.5 17.2275C24.02 17.2275 25.25 18.47 25.25 20C25.25 21.5325 24.0175 22.7725 22.5 22.7725ZM42.5 40H37.505V32.8475C37.505 28.145 32.5 28.5425 32.5 32.8475V40H27.5V25H32.5V27.7325C34.68 23.6925 42.5 23.3925 42.5 31.6025V40Z" fill="white"/>
</svg>
