<svg width="60" height="60" viewBox="0 0 60 60" fill="none" xmlns="http://www.w3.org/2000/svg">
<path fill-rule="evenodd" clip-rule="evenodd" d="M30 0C13.435 0 0 13.43 0 30C0 46.5675 13.435 60 30 60C46.5675 60 60 46.5675 60 30C60 13.43 46.5675 0 30 0ZM47.435 43.8925V43.305L44.705 40.625C44.465 40.4425 44.345 40.14 44.395 39.8425V20.1575C44.345 19.86 44.465 19.5575 44.705 19.375L47.5 16.695V16.1075H37.8275L30.9325 33.3075L23.0875 16.1075H12.94V16.695L16.21 20.6325C16.53 20.92 16.695 21.345 16.65 21.775V37.245C16.745 37.8025 16.57 38.3725 16.1775 38.78L12.5 43.24V43.8275H22.925V43.24L19.2475 38.78C18.8525 38.3725 18.665 37.8075 18.7425 37.245V23.865L27.8925 43.8275H28.955L36.8125 23.865V39.7775C36.8125 40.2025 36.8125 40.2825 36.535 40.56L33.71 43.305V43.8925H47.435Z" fill="white"/>
</svg>
