<?xml version="1.0" encoding="utf-8"?>
<!-- Generator: Adobe Illustrator 22.0.1, SVG Export Plug-In . SVG Version: 6.00 Build 0)  -->
<svg version="1.1" id="_x2014_ÎÓÈ_x5F_1" xmlns="http://www.w3.org/2000/svg" xmlns:xlink="http://www.w3.org/1999/xlink"
	 x="0px" y="0px" viewBox="0 0 600 350" style="enable-background:new 0 0 600 350;" xml:space="preserve">
<style type="text/css">
	.st0{fill:url(#SVGID_1_);}
	.st1{opacity:0.5;}
	.st2{fill:url(#SVGID_2_);}
	.st3{fill:url(#SVGID_3_);}
	.st4{fill:#FFFFFF;}
	.st5{opacity:0.2;}
	.st6{fill:url(#SVGID_4_);}
	.st7{fill:url(#SVGID_5_);}
	.st8{opacity:0.5;fill:#7C1400;}
	.st9{fill:url(#SVGID_6_);}
	.st10{fill:url(#SVGID_7_);}
	.st11{fill:url(#SVGID_8_);}
	.st12{fill:url(#SVGID_9_);}
	.st13{fill:url(#SVGID_10_);}
	.st14{fill:url(#SVGID_11_);}
	.st15{fill:url(#SVGID_12_);}
	.st16{fill:url(#SVGID_13_);}
	.st17{fill:url(#SVGID_14_);}
	.st18{fill:url(#SVGID_15_);}
	.st19{fill:url(#SVGID_16_);}
	.st20{fill:url(#SVGID_17_);}
	.st21{fill:url(#SVGID_18_);}
	.st22{fill:url(#SVGID_19_);}
	.st23{fill:url(#SVGID_20_);}
	.st24{fill:url(#SVGID_21_);}
	.st25{fill:url(#SVGID_22_);}
	.st26{fill:url(#SVGID_23_);}
	.st27{fill:url(#SVGID_24_);}
	.st28{fill:url(#SVGID_25_);}
	.st29{fill:url(#SVGID_26_);}
	.st30{fill:url(#SVGID_27_);}
	.st31{opacity:0.3;fill:url(#SVGID_28_);}
	.st32{fill:url(#SVGID_29_);}
	.st33{fill:url(#SVGID_30_);}
</style>
<radialGradient id="SVGID_1_" cx="76.8336" cy="1937.5414" r="532.6512" gradientTransform="matrix(1 0 0 -0.9992 0 1765.6022)" gradientUnits="userSpaceOnUse">
	<stop  offset="0" style="stop-color:#2B237C"/>
	<stop  offset="0.31" style="stop-color:#251C72"/>
	<stop  offset="1" style="stop-color:#090D28"/>
</radialGradient>
<rect class="st0" width="600" height="350"/>
<g class="st1">
	
		<linearGradient id="SVGID_2_" gradientUnits="userSpaceOnUse" x1="253.7037" y1="72.9501" x2="279.3825" y2="72.9501" gradientTransform="matrix(0.7842 0.6205 -0.6205 0.7842 127.962 -162.3535)">
		<stop  offset="0.4032" style="stop-color:#40FF90"/>
		<stop  offset="0.4601" style="stop-color:#34F083"/>
		<stop  offset="0.5793" style="stop-color:#21D86E"/>
		<stop  offset="0.7049" style="stop-color:#13C75E"/>
		<stop  offset="0.8397" style="stop-color:#0BBC55"/>
		<stop  offset="1" style="stop-color:#08B952"/>
	</linearGradient>
	<path class="st2" d="M309,59.1l-20.1-15.9l-9.8,12.3l0,0c-0.2,0.2-0.2,0.5-0.1,0.9l4.7,11.9c0.3,0.8,1.3,1.5,2.3,1.6l12.2,1.8
		c0.5,0.1,0.9,0,1.1-0.3l0,0L309,59.1z"/>
	
		<linearGradient id="SVGID_3_" gradientUnits="userSpaceOnUse" x1="255.2166" y1="44.2924" x2="282.6316" y2="85.6356" gradientTransform="matrix(0.7842 0.6205 -0.6205 0.7842 127.962 -162.3535)">
		<stop  offset="0.4032" style="stop-color:#40FF90"/>
		<stop  offset="0.4601" style="stop-color:#34F083"/>
		<stop  offset="0.5793" style="stop-color:#21D86E"/>
		<stop  offset="0.7049" style="stop-color:#13C75E"/>
		<stop  offset="0.8397" style="stop-color:#0BBC55"/>
		<stop  offset="1" style="stop-color:#08B952"/>
	</linearGradient>
	<path class="st3" d="M293.5,56l-4.7-11.9c-0.3-0.8,0.2-1.3,1.2-1.1l12.2,1.8c0.9,0.1,2,0.9,2.3,1.6l4.7,11.9
		c0.3,0.8-0.2,1.3-1.2,1.1l-12.2-1.8C294.8,57.5,293.8,56.7,293.5,56z"/>
	<path class="st4" d="M308.2,59L296,57.2c-0.9-0.1-2-0.9-2.3-1.6L289,43.7c-0.1-0.2-0.1-0.5,0-0.6c-0.3,0.2-0.4,0.6-0.2,1l4.7,11.9
		c0.3,0.8,1.3,1.5,2.3,1.6l12.2,1.8c0.6,0.1,1.1-0.1,1.2-0.5C308.9,59,308.6,59.1,308.2,59z"/>
</g>
<g>
	<g class="st5">
		<g>
			<g>
				<linearGradient id="SVGID_4_" gradientUnits="userSpaceOnUse" x1="332.6167" y1="179.241" x2="370.5535" y2="179.241">
					<stop  offset="0.4032" style="stop-color:#40FF90"/>
					<stop  offset="0.4601" style="stop-color:#34F083"/>
					<stop  offset="0.5793" style="stop-color:#21D86E"/>
					<stop  offset="0.7049" style="stop-color:#13C75E"/>
					<stop  offset="0.8397" style="stop-color:#0BBC55"/>
					<stop  offset="1" style="stop-color:#08B952"/>
				</linearGradient>
				<path class="st6" d="M370.6,138.3h-37.9v71h0c0,0.4,0.2,0.8,0.7,1.1l16.3,9.4c1.1,0.6,2.9,0.5,4.1-0.2l15.7-9.1
					c0.6-0.4,1-0.8,1-1.3h0V138.3z"/>
				<linearGradient id="SVGID_5_" gradientUnits="userSpaceOnUse" x1="334.8518" y1="113.0537" x2="375.3518" y2="174.13">
					<stop  offset="0.4032" style="stop-color:#40FF90"/>
					<stop  offset="0.4601" style="stop-color:#34F083"/>
					<stop  offset="0.5793" style="stop-color:#21D86E"/>
					<stop  offset="0.7049" style="stop-color:#13C75E"/>
					<stop  offset="0.8397" style="stop-color:#0BBC55"/>
					<stop  offset="1" style="stop-color:#08B952"/>
				</linearGradient>
				<path class="st7" d="M349.7,148.8l-16.3-9.4c-1.1-0.6-0.9-1.7,0.3-2.4l15.7-9.1c1.2-0.7,3.1-0.8,4.1-0.2l16.3,9.4
					c1.1,0.6,0.9,1.7-0.3,2.4l-15.7,9.1C352.6,149.4,350.7,149.4,349.7,148.8z"/>
				<path class="st8" d="M350.5,144l-8.9-5.2c-0.6-0.3-0.5-0.9,0.2-1.3l8.6-5c0.7-0.4,1.7-0.4,2.3-0.1l8.9,5.2
					c0.6,0.3,0.5,0.9-0.2,1.3l-8.6,5C352.1,144.3,351.1,144.4,350.5,144z"/>
				<path class="st4" d="M369.5,138.9l-15.7,9.1c-1.2,0.7-3.1,0.8-4.1,0.2l-16.3-9.4c-0.3-0.2-0.5-0.4-0.6-0.7c-0.2,0.5,0,1,0.6,1.4
					l16.3,9.4c1.1,0.6,2.9,0.5,4.1-0.2l15.7-9.1c0.8-0.5,1.1-1.1,0.9-1.7C370.4,138.2,370,138.6,369.5,138.9z"/>
			</g>
		</g>
		<g>
			<g>
				<linearGradient id="SVGID_6_" gradientUnits="userSpaceOnUse" x1="358.5742" y1="177.3661" x2="396.511" y2="177.3661">
					<stop  offset="0.4032" style="stop-color:#40FF90"/>
					<stop  offset="0.4601" style="stop-color:#34F083"/>
					<stop  offset="0.5793" style="stop-color:#21D86E"/>
					<stop  offset="0.7049" style="stop-color:#13C75E"/>
					<stop  offset="0.8397" style="stop-color:#0BBC55"/>
					<stop  offset="1" style="stop-color:#08B952"/>
				</linearGradient>
				<path class="st9" d="M396.5,153.3h-37.9v37.2h0c0,0.4,0.2,0.8,0.7,1.1l16.3,9.4c1.1,0.6,2.9,0.5,4.1-0.2l15.7-9.1
					c0.6-0.4,1-0.8,1-1.3h0V153.3z"/>
				<linearGradient id="SVGID_7_" gradientUnits="userSpaceOnUse" x1="360.8093" y1="128.0482" x2="401.3094" y2="189.1246">
					<stop  offset="0.4032" style="stop-color:#40FF90"/>
					<stop  offset="0.4601" style="stop-color:#34F083"/>
					<stop  offset="0.5793" style="stop-color:#21D86E"/>
					<stop  offset="0.7049" style="stop-color:#13C75E"/>
					<stop  offset="0.8397" style="stop-color:#0BBC55"/>
					<stop  offset="1" style="stop-color:#08B952"/>
				</linearGradient>
				<path class="st10" d="M375.6,163.8l-16.3-9.4c-1.1-0.6-0.9-1.7,0.3-2.4l15.7-9.1c1.2-0.7,3.1-0.8,4.1-0.2l16.3,9.4
					c1.1,0.6,0.9,1.7-0.3,2.4l-15.7,9.1C378.5,164.4,376.7,164.4,375.6,163.8z"/>
				<path class="st4" d="M395.5,153.9l-15.7,9.1c-1.2,0.7-3.1,0.8-4.1,0.2l-16.3-9.4c-0.3-0.2-0.5-0.4-0.6-0.7c-0.2,0.5,0,1,0.6,1.4
					l16.3,9.4c1.1,0.6,2.9,0.5,4.1-0.2l15.7-9.1c0.8-0.5,1.1-1.1,0.9-1.7C396.3,153.2,396,153.6,395.5,153.9z"/>
			</g>
		</g>
		<g>
			<g>
				<linearGradient id="SVGID_8_" gradientUnits="userSpaceOnUse" x1="384.5317" y1="198.3757" x2="422.4685" y2="198.3757">
					<stop  offset="0.4032" style="stop-color:#40FF90"/>
					<stop  offset="0.4601" style="stop-color:#34F083"/>
					<stop  offset="0.5793" style="stop-color:#21D86E"/>
					<stop  offset="0.7049" style="stop-color:#13C75E"/>
					<stop  offset="0.8397" style="stop-color:#0BBC55"/>
					<stop  offset="1" style="stop-color:#08B952"/>
				</linearGradient>
				<path class="st11" d="M422.5,168.3h-37.9v49.2h0c0,0.4,0.2,0.8,0.7,1.1l16.3,9.4c1.1,0.6,2.9,0.5,4.1-0.2l15.7-9.1
					c0.6-0.4,1-0.8,1-1.3h0V168.3z"/>
				<linearGradient id="SVGID_9_" gradientUnits="userSpaceOnUse" x1="386.7668" y1="143.0427" x2="427.2669" y2="204.1191">
					<stop  offset="0.4032" style="stop-color:#40FF90"/>
					<stop  offset="0.4601" style="stop-color:#34F083"/>
					<stop  offset="0.5793" style="stop-color:#21D86E"/>
					<stop  offset="0.7049" style="stop-color:#13C75E"/>
					<stop  offset="0.8397" style="stop-color:#0BBC55"/>
					<stop  offset="1" style="stop-color:#08B952"/>
				</linearGradient>
				<path class="st12" d="M401.6,178.8l-16.3-9.4c-1.1-0.6-0.9-1.7,0.3-2.4l15.7-9.1c1.2-0.7,3.1-0.8,4.1-0.2l16.3,9.4
					c1.1,0.6,0.9,1.7-0.3,2.4l-15.7,9.1C404.5,179.4,402.6,179.4,401.6,178.8z"/>
				<path class="st4" d="M421.5,168.9l-15.7,9.1c-1.2,0.7-3.1,0.8-4.1,0.2l-16.3-9.4c-0.3-0.2-0.5-0.4-0.6-0.7c-0.2,0.5,0,1,0.6,1.4
					l16.3,9.4c1.1,0.6,2.9,0.5,4.1-0.2l15.7-9.1c0.8-0.5,1.1-1.1,0.9-1.7C422.3,168.2,422,168.6,421.5,168.9z"/>
			</g>
		</g>
		<g>
			<g>
				<linearGradient id="SVGID_10_" gradientUnits="userSpaceOnUse" x1="410.4892" y1="216.2111" x2="448.426" y2="216.2111">
					<stop  offset="0.4032" style="stop-color:#40FF90"/>
					<stop  offset="0.4601" style="stop-color:#34F083"/>
					<stop  offset="0.5793" style="stop-color:#21D86E"/>
					<stop  offset="0.7049" style="stop-color:#13C75E"/>
					<stop  offset="0.8397" style="stop-color:#0BBC55"/>
					<stop  offset="1" style="stop-color:#08B952"/>
				</linearGradient>
				<path class="st13" d="M448.4,183.3h-37.9v54.9h0c0,0.4,0.2,0.8,0.7,1.1l16.3,9.4c1.1,0.6,2.9,0.5,4.1-0.2l15.7-9.1
					c0.6-0.4,1-0.8,1-1.3h0V183.3z"/>
				<linearGradient id="SVGID_11_" gradientUnits="userSpaceOnUse" x1="412.7243" y1="158.0372" x2="453.2244" y2="219.1136">
					<stop  offset="0.4032" style="stop-color:#40FF90"/>
					<stop  offset="0.4601" style="stop-color:#34F083"/>
					<stop  offset="0.5793" style="stop-color:#21D86E"/>
					<stop  offset="0.7049" style="stop-color:#13C75E"/>
					<stop  offset="0.8397" style="stop-color:#0BBC55"/>
					<stop  offset="1" style="stop-color:#08B952"/>
				</linearGradient>
				<path class="st14" d="M427.5,193.8l-16.3-9.4c-1.1-0.6-0.9-1.7,0.3-2.4l15.7-9.1c1.2-0.7,3.1-0.8,4.1-0.2l16.3,9.4
					c1.1,0.6,0.9,1.7-0.3,2.4l-15.7,9.1C430.5,194.4,428.6,194.4,427.5,193.8z"/>
				<path class="st4" d="M447.4,183.9l-15.7,9.1c-1.2,0.7-3.1,0.8-4.1,0.2l-16.3-9.4c-0.3-0.2-0.5-0.4-0.6-0.7c-0.2,0.5,0,1,0.6,1.4
					l16.3,9.4c1.1,0.6,2.9,0.5,4.1-0.2l15.7-9.1c0.8-0.5,1.1-1.1,0.9-1.7C448.2,183.2,447.9,183.6,447.4,183.9z"/>
			</g>
		</g>
		<g>
			<g>
				<linearGradient id="SVGID_12_" gradientUnits="userSpaceOnUse" x1="436.4467" y1="222.3496" x2="474.3835" y2="222.3496">
					<stop  offset="0.4032" style="stop-color:#40FF90"/>
					<stop  offset="0.4601" style="stop-color:#34F083"/>
					<stop  offset="0.5793" style="stop-color:#21D86E"/>
					<stop  offset="0.7049" style="stop-color:#13C75E"/>
					<stop  offset="0.8397" style="stop-color:#0BBC55"/>
					<stop  offset="1" style="stop-color:#08B952"/>
				</linearGradient>
				<path class="st15" d="M474.4,198.3h-37.9v37.2h0c0,0.4,0.2,0.8,0.7,1.1l16.3,9.4c1.1,0.6,2.9,0.5,4.1-0.2l15.7-9.1
					c0.6-0.4,1-0.8,1-1.3h0V198.3z"/>
				<linearGradient id="SVGID_13_" gradientUnits="userSpaceOnUse" x1="438.6818" y1="173.0317" x2="479.1819" y2="234.1081">
					<stop  offset="0.4032" style="stop-color:#40FF90"/>
					<stop  offset="0.4601" style="stop-color:#34F083"/>
					<stop  offset="0.5793" style="stop-color:#21D86E"/>
					<stop  offset="0.7049" style="stop-color:#13C75E"/>
					<stop  offset="0.8397" style="stop-color:#0BBC55"/>
					<stop  offset="1" style="stop-color:#08B952"/>
				</linearGradient>
				<path class="st16" d="M453.5,208.8l-16.3-9.4c-1.1-0.6-0.9-1.7,0.3-2.4l15.7-9.1c1.2-0.7,3.1-0.8,4.1-0.2l16.3,9.4
					c1.1,0.6,0.9,1.7-0.3,2.4l-15.7,9.1C456.4,209.3,454.6,209.4,453.5,208.8z"/>
				<path class="st4" d="M473.4,198.8l-15.7,9.1c-1.2,0.7-3.1,0.8-4.1,0.2l-16.3-9.4c-0.3-0.2-0.5-0.4-0.6-0.7c-0.2,0.5,0,1,0.6,1.4
					l16.3,9.4c1.1,0.6,2.9,0.5,4.1-0.2l15.7-9.1c0.8-0.5,1.1-1.1,0.9-1.7C474.2,198.2,473.9,198.6,473.4,198.8z"/>
			</g>
		</g>
		<g>
			<g>
				<linearGradient id="SVGID_14_" gradientUnits="userSpaceOnUse" x1="462.4042" y1="228.4698" x2="500.341" y2="228.4698">
					<stop  offset="0.4032" style="stop-color:#40FF90"/>
					<stop  offset="0.4601" style="stop-color:#34F083"/>
					<stop  offset="0.5793" style="stop-color:#21D86E"/>
					<stop  offset="0.7049" style="stop-color:#13C75E"/>
					<stop  offset="0.8397" style="stop-color:#0BBC55"/>
					<stop  offset="1" style="stop-color:#08B952"/>
				</linearGradient>
				<path class="st17" d="M500.3,213.3h-37.9v19.5h0c0,0.4,0.2,0.8,0.7,1.1l16.3,9.4c1.1,0.6,2.9,0.5,4.1-0.2l15.7-9.1
					c0.6-0.4,1-0.8,1-1.3h0V213.3z"/>
				<linearGradient id="SVGID_15_" gradientUnits="userSpaceOnUse" x1="464.6393" y1="188.0262" x2="505.1394" y2="249.1026">
					<stop  offset="0.4032" style="stop-color:#40FF90"/>
					<stop  offset="0.4601" style="stop-color:#34F083"/>
					<stop  offset="0.5793" style="stop-color:#21D86E"/>
					<stop  offset="0.7049" style="stop-color:#13C75E"/>
					<stop  offset="0.8397" style="stop-color:#0BBC55"/>
					<stop  offset="1" style="stop-color:#08B952"/>
				</linearGradient>
				<path class="st18" d="M479.5,223.8l-16.3-9.4c-1.1-0.6-0.9-1.7,0.3-2.4l15.7-9.1c1.2-0.7,3.1-0.8,4.1-0.2l16.3,9.4
					c1.1,0.6,0.9,1.7-0.3,2.4l-15.7,9.1C482.4,224.3,480.5,224.4,479.5,223.8z"/>
				<path class="st4" d="M499.3,213.8l-15.7,9.1c-1.2,0.7-3.1,0.8-4.1,0.2l-16.3-9.4c-0.3-0.2-0.5-0.4-0.6-0.7c-0.2,0.5,0,1,0.6,1.4
					l16.3,9.4c1.1,0.6,2.9,0.5,4.1-0.2l15.7-9.1c0.8-0.5,1.1-1.1,0.9-1.7C500.1,213.2,499.8,213.6,499.3,213.8z"/>
			</g>
		</g>
		<path class="st8" d="M376.5,159l-8.9-5.2c-0.6-0.3-0.5-0.9,0.2-1.3l8.6-5c0.7-0.4,1.7-0.4,2.3-0.1l8.9,5.2
			c0.6,0.3,0.5,0.9-0.2,1.3l-8.6,5C378.1,159.3,377.1,159.4,376.5,159z"/>
		<path class="st8" d="M402.5,173.6l-8.9-5.2c-0.6-0.3-0.5-0.9,0.2-1.3l8.6-5c0.7-0.4,1.7-0.4,2.3-0.1l8.9,5.2
			c0.6,0.3,0.5,0.9-0.2,1.3l-8.6,5C404,173.9,403,174,402.5,173.6z"/>
		<path class="st8" d="M428.4,188.6l-8.9-5.2c-0.6-0.3-0.5-0.9,0.2-1.3l8.6-5c0.7-0.4,1.7-0.4,2.3-0.1l8.9,5.2
			c0.6,0.3,0.5,0.9-0.2,1.3l-8.6,5C430,188.9,429,189,428.4,188.6z"/>
		<path class="st8" d="M454.4,204l-8.9-5.2c-0.6-0.3-0.5-0.9,0.2-1.3l8.6-5c0.7-0.4,1.7-0.4,2.3-0.1l8.9,5.2
			c0.6,0.3,0.5,0.9-0.2,1.3l-8.6,5C456,204.3,454.9,204.4,454.4,204z"/>
		<path class="st8" d="M480.3,219l-8.9-5.2c-0.6-0.3-0.5-0.9,0.2-1.3l8.6-5c0.7-0.4,1.7-0.4,2.3-0.1l8.9,5.2
			c0.6,0.3,0.5,0.9-0.2,1.3l-8.6,5C481.9,219.3,480.9,219.4,480.3,219z"/>
	</g>
	<g>
		<linearGradient id="SVGID_16_" gradientUnits="userSpaceOnUse" x1="332.6167" y1="116.9228" x2="370.5535" y2="116.9228">
			<stop  offset="0.4032" style="stop-color:#40FF90"/>
			<stop  offset="0.4601" style="stop-color:#34F083"/>
			<stop  offset="0.5793" style="stop-color:#21D86E"/>
			<stop  offset="0.7049" style="stop-color:#13C75E"/>
			<stop  offset="0.8397" style="stop-color:#0BBC55"/>
			<stop  offset="1" style="stop-color:#08B952"/>
		</linearGradient>
		<path class="st19" d="M370.6,99.8h-37.9v23.3h0c0,0.4,0.2,0.8,0.7,1.1l16.3,9.4c1.1,0.6,2.9,0.5,4.1-0.2l15.7-9.1
			c0.6-0.4,1-0.8,1-1.3h0V99.8z"/>
		<linearGradient id="SVGID_17_" gradientUnits="userSpaceOnUse" x1="334.8517" y1="74.5851" x2="375.3519" y2="135.6615">
			<stop  offset="0.4032" style="stop-color:#40FF90"/>
			<stop  offset="0.4601" style="stop-color:#34F083"/>
			<stop  offset="0.5793" style="stop-color:#21D86E"/>
			<stop  offset="0.7049" style="stop-color:#13C75E"/>
			<stop  offset="0.8397" style="stop-color:#0BBC55"/>
			<stop  offset="1" style="stop-color:#08B952"/>
		</linearGradient>
		<path class="st20" d="M349.7,110.4l-16.3-9.4c-1.1-0.6-0.9-1.7,0.3-2.4l15.7-9.1c1.2-0.7,3.1-0.8,4.1-0.2l16.3,9.4
			c1.1,0.6,0.9,1.7-0.3,2.4l-15.7,9.1C352.6,110.9,350.7,111,349.7,110.4z"/>
		<path class="st4" d="M369.5,100.4l-15.7,9.1c-1.2,0.7-3.1,0.8-4.1,0.2l-16.3-9.4c-0.3-0.2-0.5-0.4-0.6-0.7c-0.2,0.5,0,1,0.6,1.4
			l16.3,9.4c1.1,0.6,2.9,0.5,4.1-0.2l15.7-9.1c0.8-0.5,1.1-1.1,0.9-1.7C370.4,99.8,370,100.1,369.5,100.4z"/>
	</g>
	<g>
		<linearGradient id="SVGID_18_" gradientUnits="userSpaceOnUse" x1="358.5742" y1="122.6822" x2="396.511" y2="122.6822">
			<stop  offset="0.4032" style="stop-color:#40FF90"/>
			<stop  offset="0.4601" style="stop-color:#34F083"/>
			<stop  offset="0.5793" style="stop-color:#21D86E"/>
			<stop  offset="0.7049" style="stop-color:#13C75E"/>
			<stop  offset="0.8397" style="stop-color:#0BBC55"/>
			<stop  offset="1" style="stop-color:#08B952"/>
		</linearGradient>
		<path class="st21" d="M396.5,96.2h-37.9v42h0c0,0.4,0.2,0.8,0.7,1.1l16.3,9.4c1.1,0.6,2.9,0.5,4.1-0.2l15.7-9.1
			c0.6-0.4,1-0.8,1-1.3h0V96.2z"/>
		<linearGradient id="SVGID_19_" gradientUnits="userSpaceOnUse" x1="360.8093" y1="70.9769" x2="401.3094" y2="132.0533">
			<stop  offset="0.4032" style="stop-color:#40FF90"/>
			<stop  offset="0.4601" style="stop-color:#34F083"/>
			<stop  offset="0.5793" style="stop-color:#21D86E"/>
			<stop  offset="0.7049" style="stop-color:#13C75E"/>
			<stop  offset="0.8397" style="stop-color:#0BBC55"/>
			<stop  offset="1" style="stop-color:#08B952"/>
		</linearGradient>
		<path class="st22" d="M375.6,106.8l-16.3-9.4c-1.1-0.6-0.9-1.7,0.3-2.4l15.7-9.1c1.2-0.7,3.1-0.8,4.1-0.2l16.3,9.4
			c1.1,0.6,0.9,1.7-0.3,2.4l-15.7,9.1C378.5,107.3,376.7,107.4,375.6,106.8z"/>
		<path class="st4" d="M395.5,96.8l-15.7,9.1c-1.2,0.7-3.1,0.8-4.1,0.2l-16.3-9.4c-0.3-0.2-0.5-0.4-0.6-0.7c-0.2,0.5,0,1,0.6,1.4
			l16.3,9.4c1.1,0.6,2.9,0.5,4.1-0.2l15.7-9.1c0.8-0.5,1.1-1.1,0.9-1.7C396.3,96.2,396,96.5,395.5,96.8z"/>
	</g>
	<g>
		<linearGradient id="SVGID_20_" gradientUnits="userSpaceOnUse" x1="384.5317" y1="139.0906" x2="422.4685" y2="139.0906">
			<stop  offset="0.4032" style="stop-color:#40FF90"/>
			<stop  offset="0.4601" style="stop-color:#34F083"/>
			<stop  offset="0.5793" style="stop-color:#21D86E"/>
			<stop  offset="0.7049" style="stop-color:#13C75E"/>
			<stop  offset="0.8397" style="stop-color:#0BBC55"/>
			<stop  offset="1" style="stop-color:#08B952"/>
		</linearGradient>
		<path class="st23" d="M422.5,113.9h-37.9v39.4h0c0,0.4,0.2,0.8,0.7,1.1l16.3,9.4c1.1,0.6,2.9,0.5,4.1-0.2l15.7-9.1
			c0.6-0.4,1-0.8,1-1.3h0V113.9z"/>
		<linearGradient id="SVGID_21_" gradientUnits="userSpaceOnUse" x1="386.7668" y1="88.6666" x2="427.2668" y2="149.7428">
			<stop  offset="0.4032" style="stop-color:#40FF90"/>
			<stop  offset="0.4601" style="stop-color:#34F083"/>
			<stop  offset="0.5793" style="stop-color:#21D86E"/>
			<stop  offset="0.7049" style="stop-color:#13C75E"/>
			<stop  offset="0.8397" style="stop-color:#0BBC55"/>
			<stop  offset="1" style="stop-color:#08B952"/>
		</linearGradient>
		<path class="st24" d="M401.6,124.4l-16.3-9.4c-1.1-0.6-0.9-1.7,0.3-2.4l15.7-9.1c1.2-0.7,3.1-0.8,4.1-0.2l16.3,9.4
			c1.1,0.6,0.9,1.7-0.3,2.4l-15.7,9.1C404.5,125,402.6,125.1,401.6,124.4z"/>
		<path class="st4" d="M421.5,114.5l-15.7,9.1c-1.2,0.7-3.1,0.8-4.1,0.2l-16.3-9.4c-0.3-0.2-0.5-0.4-0.6-0.7c-0.2,0.5,0,1,0.6,1.4
			l16.3,9.4c1.1,0.6,2.9,0.5,4.1-0.2l15.7-9.1c0.8-0.5,1.1-1.1,0.9-1.7C422.3,113.8,422,114.2,421.5,114.5z"/>
	</g>
	<g>
		<linearGradient id="SVGID_22_" gradientUnits="userSpaceOnUse" x1="410.4892" y1="146.4486" x2="448.426" y2="146.4486">
			<stop  offset="0.4032" style="stop-color:#40FF90"/>
			<stop  offset="0.4601" style="stop-color:#34F083"/>
			<stop  offset="0.5793" style="stop-color:#21D86E"/>
			<stop  offset="0.7049" style="stop-color:#13C75E"/>
			<stop  offset="0.8397" style="stop-color:#0BBC55"/>
			<stop  offset="1" style="stop-color:#08B952"/>
		</linearGradient>
		<path class="st25" d="M448.4,113.5h-37.9v55h0c0,0.4,0.2,0.8,0.7,1.1l16.3,9.4c1.1,0.6,2.9,0.5,4.1-0.2l15.7-9.1
			c0.6-0.4,1-0.8,1-1.3h0V113.5z"/>
		<linearGradient id="SVGID_23_" gradientUnits="userSpaceOnUse" x1="412.7243" y1="88.2556" x2="453.2244" y2="149.332">
			<stop  offset="0.4032" style="stop-color:#40FF90"/>
			<stop  offset="0.4601" style="stop-color:#34F083"/>
			<stop  offset="0.5793" style="stop-color:#21D86E"/>
			<stop  offset="0.7049" style="stop-color:#13C75E"/>
			<stop  offset="0.8397" style="stop-color:#0BBC55"/>
			<stop  offset="1" style="stop-color:#08B952"/>
		</linearGradient>
		<path class="st26" d="M427.5,124l-16.3-9.4c-1.1-0.6-0.9-1.7,0.3-2.4l15.7-9.1c1.2-0.7,3.1-0.8,4.1-0.2l16.3,9.4
			c1.1,0.6,0.9,1.7-0.3,2.4l-15.7,9.1C430.5,124.6,428.6,124.6,427.5,124z"/>
		<path class="st4" d="M447.4,114.1l-15.7,9.1c-1.2,0.7-3.1,0.8-4.1,0.2l-16.3-9.4c-0.3-0.2-0.5-0.4-0.6-0.7c-0.2,0.5,0,1,0.6,1.4
			l16.3,9.4c1.1,0.6,2.9,0.5,4.1-0.2l15.7-9.1c0.8-0.5,1.1-1.1,0.9-1.7C448.2,113.4,447.9,113.8,447.4,114.1z"/>
	</g>
	<g>
		<linearGradient id="SVGID_24_" gradientUnits="userSpaceOnUse" x1="436.4467" y1="155.7264" x2="474.3835" y2="155.7264">
			<stop  offset="0.4032" style="stop-color:#40FF90"/>
			<stop  offset="0.4601" style="stop-color:#34F083"/>
			<stop  offset="0.5793" style="stop-color:#21D86E"/>
			<stop  offset="0.7049" style="stop-color:#13C75E"/>
			<stop  offset="0.8397" style="stop-color:#0BBC55"/>
			<stop  offset="1" style="stop-color:#08B952"/>
		</linearGradient>
		<path class="st27" d="M474.4,116.9h-37.9v66.7h0c0,0.4,0.2,0.8,0.7,1.1l16.3,9.4c1.1,0.6,2.9,0.5,4.1-0.2l15.7-9.1
			c0.6-0.4,1-0.8,1-1.3h0V116.9z"/>
		<linearGradient id="SVGID_25_" gradientUnits="userSpaceOnUse" x1="438.6819" y1="91.684" x2="479.1819" y2="152.7602">
			<stop  offset="0.4032" style="stop-color:#40FF90"/>
			<stop  offset="0.4601" style="stop-color:#34F083"/>
			<stop  offset="0.5793" style="stop-color:#21D86E"/>
			<stop  offset="0.7049" style="stop-color:#13C75E"/>
			<stop  offset="0.8397" style="stop-color:#0BBC55"/>
			<stop  offset="1" style="stop-color:#08B952"/>
		</linearGradient>
		<path class="st28" d="M453.5,127.5l-16.3-9.4c-1.1-0.6-0.9-1.7,0.3-2.4l15.7-9.1c1.2-0.7,3.1-0.8,4.1-0.2l16.3,9.4
			c1.1,0.6,0.9,1.7-0.3,2.4l-15.7,9.1C456.4,128,454.6,128.1,453.5,127.5z"/>
		<path class="st4" d="M473.4,117.5l-15.7,9.1c-1.2,0.7-3.1,0.8-4.1,0.2l-16.3-9.4c-0.3-0.2-0.5-0.4-0.6-0.7c-0.2,0.5,0,1,0.6,1.4
			l16.3,9.4c1.1,0.6,2.9,0.5,4.1-0.2l15.7-9.1c0.8-0.5,1.1-1.1,0.9-1.7C474.2,116.9,473.9,117.2,473.4,117.5z"/>
	</g>
	<g>
		<linearGradient id="SVGID_26_" gradientUnits="userSpaceOnUse" x1="462.4042" y1="154.7405" x2="500.341" y2="154.7405">
			<stop  offset="0.4032" style="stop-color:#40FF90"/>
			<stop  offset="0.4601" style="stop-color:#34F083"/>
			<stop  offset="0.5793" style="stop-color:#21D86E"/>
			<stop  offset="0.7049" style="stop-color:#13C75E"/>
			<stop  offset="0.8397" style="stop-color:#0BBC55"/>
			<stop  offset="1" style="stop-color:#08B952"/>
		</linearGradient>
		<path class="st29" d="M500.3,99.8h-37.9v98.9h0c0,0.4,0.2,0.8,0.7,1.1l16.3,9.4c1.1,0.6,2.9,0.5,4.1-0.2l15.7-9.1
			c0.6-0.4,1-0.8,1-1.3h0V99.8z"/>
		<linearGradient id="SVGID_27_" gradientUnits="userSpaceOnUse" x1="464.6393" y1="74.5851" x2="505.1394" y2="135.6615">
			<stop  offset="0.4032" style="stop-color:#40FF90"/>
			<stop  offset="0.4601" style="stop-color:#34F083"/>
			<stop  offset="0.5793" style="stop-color:#21D86E"/>
			<stop  offset="0.7049" style="stop-color:#13C75E"/>
			<stop  offset="0.8397" style="stop-color:#0BBC55"/>
			<stop  offset="1" style="stop-color:#08B952"/>
		</linearGradient>
		<path class="st30" d="M479.5,110.4l-16.3-9.4c-1.1-0.6-0.9-1.7,0.3-2.4l15.7-9.1c1.2-0.7,3.1-0.8,4.1-0.2l16.3,9.4
			c1.1,0.6,0.9,1.7-0.3,2.4l-15.7,9.1C482.4,110.9,480.5,111,479.5,110.4z"/>
		<path class="st4" d="M499.3,100.4l-15.7,9.1c-1.2,0.7-3.1,0.8-4.1,0.2l-16.3-9.4c-0.3-0.2-0.5-0.4-0.6-0.7c-0.2,0.5,0,1,0.6,1.4
			l16.3,9.4c1.1,0.6,2.9,0.5,4.1-0.2l15.7-9.1c0.8-0.5,1.1-1.1,0.9-1.7C500.1,99.8,499.8,100.1,499.3,100.4z"/>
	</g>
</g>
<linearGradient id="SVGID_28_" gradientUnits="userSpaceOnUse" x1="447.8539" y1="291.4138" x2="500.5836" y2="370.933" gradientTransform="matrix(0.9897 0.1429 -0.1429 0.9897 -51.1609 -95.5831)">
	<stop  offset="0" style="stop-color:#59BDEF"/>
	<stop  offset="1" style="stop-color:#090D28"/>
</linearGradient>
<path class="st31" d="M362.9,305.7l-19.3-15.2c-1.2-1-0.9-2.3,0.8-3l22-8.8c1.7-0.7,4.1-0.4,5.3,0.5l19.3,15.2c1.2,1,0.9,2.3-0.8,3
	l-22,8.8C366.5,306.9,364.1,306.7,362.9,305.7z"/>
<g>
	
		<linearGradient id="SVGID_29_" gradientUnits="userSpaceOnUse" x1="450.023" y1="276.0533" x2="499.4154" y2="276.0533" gradientTransform="matrix(0.9933 -0.1157 0.1157 0.9933 -137.1566 58.8603)">
		<stop  offset="0.4032" style="stop-color:#40FF90"/>
		<stop  offset="0.4601" style="stop-color:#34F083"/>
		<stop  offset="0.5793" style="stop-color:#21D86E"/>
		<stop  offset="0.7049" style="stop-color:#13C75E"/>
		<stop  offset="0.8397" style="stop-color:#0BBC55"/>
		<stop  offset="1" style="stop-color:#08B952"/>
	</linearGradient>
	<path class="st32" d="M388.3,253.2l-49.1,5.7l3.5,30.1l0,0c0,0.5,0.4,1,1.1,1.3l22.6,9.7c1.5,0.6,3.8,0.3,5.3-0.8l19-14.1
		c0.8-0.6,1.1-1.2,1.1-1.8l0,0L388.3,253.2z"/>
	
		<linearGradient id="SVGID_30_" gradientUnits="userSpaceOnUse" x1="452.933" y1="220.9312" x2="505.6626" y2="300.4504" gradientTransform="matrix(0.9933 -0.1157 0.1157 0.9933 -137.1566 58.8603)">
		<stop  offset="0.4032" style="stop-color:#40FF90"/>
		<stop  offset="0.4601" style="stop-color:#34F083"/>
		<stop  offset="0.5793" style="stop-color:#21D86E"/>
		<stop  offset="0.7049" style="stop-color:#13C75E"/>
		<stop  offset="0.8397" style="stop-color:#0BBC55"/>
		<stop  offset="1" style="stop-color:#08B952"/>
	</linearGradient>
	<path class="st33" d="M362.9,269.9l-22.6-9.7c-1.5-0.6-1.4-2,0-3.1l19-14.1c1.5-1.1,3.9-1.5,5.3-0.8l22.6,9.7c1.5,0.6,1.4,2,0,3.1
		l-19,14.1C366.7,270.2,364.3,270.6,362.9,269.9z"/>
	<path class="st4" d="M387.1,254.1l-19,14.1c-1.5,1.1-3.9,1.5-5.3,0.8l-22.6-9.7c-0.5-0.2-0.8-0.5-0.9-0.8c-0.2,0.7,0.2,1.3,1,1.7
		l22.6,9.7c1.5,0.6,3.8,0.3,5.3-0.8l19-14.1c1-0.7,1.3-1.6,1-2.3C388,253.1,387.7,253.6,387.1,254.1z"/>
</g>
</svg>
