<svg width="47" height="47" viewBox="0 0 47 47" fill="none" xmlns="http://www.w3.org/2000/svg">
<g filter="url(#filter0_d)">
<path d="M22 14.6667C18.9622 14.6667 16.5 16.3075 16.5 18.3333C16.5 20.3592 18.9622 22 22 22C25.0378 22 27.5 23.6408 27.5 25.6667C27.5 27.6925 25.0378 29.3333 22 29.3333V14.6667ZM22 14.6667C24.035 14.6667 25.8133 15.4037 26.7648 16.5L22 14.6667ZM22 14.6667V12.8333V14.6667ZM22 14.6667V29.3333V14.6667ZM22 29.3333V31.1667V29.3333ZM22 29.3333C19.965 29.3333 18.1867 28.5963 17.2352 27.5L22 29.3333ZM38.5 22C38.5 24.1668 38.0732 26.3124 37.244 28.3143C36.4148 30.3161 35.1994 32.1351 33.6673 33.6673C32.1351 35.1994 30.3161 36.4148 28.3143 37.244C26.3124 38.0732 24.1668 38.5 22 38.5C19.8332 38.5 17.6876 38.0732 15.6857 37.244C13.6839 36.4148 11.8649 35.1994 10.3327 33.6673C8.80057 32.1351 7.58519 30.3161 6.75599 28.3143C5.92678 26.3124 5.5 24.1668 5.5 22C5.5 17.6239 7.23839 13.4271 10.3327 10.3327C13.4271 7.23839 17.6239 5.5 22 5.5C26.3761 5.5 30.5729 7.23839 33.6673 10.3327C36.7616 13.4271 38.5 17.6239 38.5 22Z" stroke="#40FF90" stroke-width="2" stroke-linecap="round" stroke-linejoin="round"/>
</g>
<defs>
<filter id="filter0_d" x="-1" y="-1" width="52" height="52" filterUnits="userSpaceOnUse" color-interpolation-filters="sRGB">
<feFlood flood-opacity="0" result="BackgroundImageFix"/>
<feColorMatrix in="SourceAlpha" type="matrix" values="0 0 0 0 0 0 0 0 0 0 0 0 0 0 0 0 0 0 127 0"/>
<feOffset dx="3" dy="3"/>
<feGaussianBlur stdDeviation="2"/>
<feColorMatrix type="matrix" values="0 0 0 0 0.25098 0 0 0 0 1 0 0 0 0 0.564706 0 0 0 1 0"/>
<feBlend mode="normal" in2="BackgroundImageFix" result="effect1_dropShadow"/>
<feBlend mode="normal" in="SourceGraphic" in2="effect1_dropShadow" result="shape"/>
</filter>
</defs>
</svg>
