<svg width="622" height="420" viewBox="0 0 622 420" fill="none" xmlns="http://www.w3.org/2000/svg">
<g clip-path="url(#clip0)">
<path d="M584.2 358.232C582.6 358.232 581 357.857 579.533 357.108L563.933 348.617C563 348.117 562.467 347.243 562.467 346.244C562.467 345.245 563 344.371 563.933 343.871L579.533 335.38C582.333 333.881 585.933 333.881 588.867 335.38L604.467 343.871C605.4 344.371 605.933 345.245 605.933 346.244C605.933 347.243 605.4 348.117 604.467 348.617L588.867 357.108C587.4 357.857 585.8 358.232 584.2 358.232ZM584.2 336.629C583 336.629 581.8 336.878 580.733 337.503L565.133 345.994C565 346.119 564.867 346.244 564.867 346.369C564.867 346.494 564.867 346.619 565.133 346.743L580.733 355.235C582.867 356.359 585.4 356.359 587.533 355.235L603.133 346.743C603.267 346.619 603.4 346.494 603.4 346.369C603.4 346.244 603.4 346.119 603.133 345.994L587.533 337.503C586.467 336.878 585.267 336.629 584.2 336.629Z" fill="url(#paint0_linear)"/>
<path d="M539.4 310.28C536.733 310.28 534.2 309.655 531.8 308.407L504.867 293.796C503.533 293.047 502.867 291.923 502.867 290.424C502.867 289.051 503.667 287.802 504.867 287.053L531.8 272.442C536.467 269.945 542.2 269.945 546.867 272.442L573.8 287.053C575.133 287.802 575.8 288.926 575.8 290.424C575.8 291.798 575 293.047 573.8 293.796L546.867 308.407C544.6 309.53 542.067 310.28 539.4 310.28ZM533.133 306.284C537 308.407 541.8 308.407 545.8 306.284L572.733 291.673C573.4 291.299 573.533 290.674 573.533 290.424C573.533 290.175 573.4 289.55 572.733 289.176L545.8 274.565C541.933 272.442 537.133 272.442 533.133 274.565L506.2 289.176C505.533 289.55 505.4 290.175 505.4 290.424C505.4 290.674 505.533 291.299 506.2 291.673L533.133 306.284Z" fill="url(#paint1_linear)"/>
<path d="M57.7999 333.132C55.1333 333.132 52.5999 332.508 50.1999 331.259L23.2666 316.648C21.9333 315.899 21.2666 314.775 21.2666 313.277C21.2666 311.903 22.0666 310.654 23.2666 309.905L50.1999 295.295C54.8666 292.797 60.5999 292.797 65.2666 295.295L92.1999 309.905C93.5333 310.654 94.1999 311.778 94.1999 313.277C94.1999 314.65 93.3999 315.899 92.1999 316.648L65.2666 331.259C62.9999 332.508 60.3333 333.132 57.7999 333.132ZM57.7999 295.919C55.6666 295.919 53.3999 296.418 51.5333 297.542L24.5999 312.153C23.9333 312.527 23.7999 313.152 23.7999 313.402C23.7999 313.651 23.9333 314.276 24.5999 314.65L51.5333 329.261C55.3999 331.384 60.1999 331.384 64.1999 329.261L91.1333 314.65C91.7999 314.276 91.9333 313.651 91.9333 313.402C91.9333 313.152 91.7999 312.527 91.1333 312.153L64.1999 297.542C62.0666 296.418 59.9333 295.919 57.7999 295.919Z" fill="url(#paint2_linear)"/>
<path opacity="0.6" d="M330.467 396.694L137.933 292.547C135.133 291.049 135.533 288.426 138.733 286.678L262.333 219.869C265.533 218.121 270.467 217.871 273.267 219.495L465.8 323.641C468.6 325.14 468.2 327.762 465 329.51L341.4 396.319C338.2 397.942 333.267 398.192 330.467 396.694Z" fill="#020230"/>
<path d="M334.867 415.425C332.6 415.425 330.467 414.926 328.867 414.051L109 295.295C107.267 294.296 106.2 292.922 106.2 291.298C106.2 289.55 107.533 287.677 109.933 286.428L259.8 204.26C263.933 202.012 269.933 201.763 273.533 203.761L493.267 322.642C495 323.641 496.067 325.015 496.067 326.638C496.067 328.387 494.733 330.26 492.333 331.509L342.467 413.677C340.333 414.801 337.533 415.425 334.867 415.425ZM267.533 204.884C265.267 204.884 262.867 205.384 261 206.383L111.133 288.551C109.533 289.425 108.733 290.424 108.733 291.423C108.733 292.298 109.533 292.922 110.333 293.297L330.067 412.178C332.867 413.677 338.067 413.427 341.267 411.679L491.133 329.51C492.733 328.636 493.533 327.637 493.533 326.638C493.533 325.764 492.733 325.14 491.933 324.765L272.2 205.883C271 205.134 269.267 204.884 267.533 204.884Z" fill="url(#paint3_linear)"/>
<path d="M330.467 366.599L137.933 262.452C135.133 260.954 135.533 258.331 138.733 256.583L262.333 189.774C265.533 188.026 270.467 187.776 273.267 189.4L465.8 293.546C468.6 295.045 468.2 297.667 465 299.415L341.4 366.224C338.2 367.847 333.267 368.097 330.467 366.599Z" fill="url(#paint4_radial)"/>
<path d="M465 297.917L341.4 364.726C338.2 366.474 333.267 366.724 330.467 365.1L137.933 260.954C137 260.454 136.467 259.83 136.2 259.081C135.8 260.329 136.333 261.453 137.933 262.327L330.467 366.474C333.267 367.972 338.2 367.847 341.4 366.099L465 299.291C467.133 298.167 467.933 296.543 467.533 295.295C467.267 296.169 466.467 297.168 465 297.917Z" fill="white"/>
<g opacity="0.4">
<path opacity="0.4" d="M229.8 245.594L223.267 242.097C222.733 241.848 222.867 241.348 223.4 240.974L231.133 236.853C231.8 236.478 232.6 236.478 233.133 236.728L239.667 240.224C240.2 240.474 240.067 240.974 239.533 241.348L231.8 245.469C231.267 245.719 230.333 245.844 229.8 245.594Z" fill="#06033E"/>
<path opacity="0.4" d="M239.8 250.964L233.267 247.467C232.733 247.217 232.867 246.718 233.4 246.343L241.133 242.222C241.8 241.848 242.6 241.848 243.133 242.097L249.667 245.594C250.2 245.844 250.067 246.343 249.533 246.718L241.8 250.839C241.267 251.213 240.333 251.213 239.8 250.964Z" fill="#06033E"/>
<path opacity="0.4" d="M249.8 256.333L243.267 252.837C242.733 252.587 242.867 252.088 243.4 251.713L251.133 247.592C251.8 247.217 252.6 247.217 253.133 247.467L259.667 250.964C260.2 251.213 260.067 251.713 259.533 252.088L251.8 256.208C251.267 256.583 250.333 256.708 249.8 256.333Z" fill="#06033E"/>
<path opacity="0.4" d="M263.8 251.963L257.267 248.466C256.733 248.216 256.867 247.717 257.4 247.342L263.8 243.846C264.467 243.471 265.267 243.471 265.8 243.721L272.333 247.217C272.867 247.467 272.733 247.967 272.2 248.341L265.8 251.838C265.133 252.212 264.2 252.212 263.8 251.963Z" fill="#06033E"/>
<path opacity="0.4" d="M273.8 257.332L267.267 253.836C266.733 253.586 266.867 253.086 267.4 252.712L273.8 249.215C274.467 248.841 275.267 248.841 275.8 249.09L282.333 252.587C282.867 252.837 282.733 253.336 282.2 253.711L275.8 257.207C275.267 257.582 274.333 257.582 273.8 257.332Z" fill="#06033E"/>
<path opacity="0.4" d="M283.8 262.827L277.267 259.33C276.733 259.08 276.867 258.581 277.4 258.206L283.8 254.71C284.467 254.335 285.267 254.335 285.8 254.585L292.333 258.081C292.867 258.331 292.733 258.831 292.2 259.205L285.8 262.702C285.267 262.952 284.333 263.077 283.8 262.827Z" fill="#06033E"/>
<path opacity="0.4" d="M293.8 268.196L287.267 264.7C286.733 264.45 286.867 263.951 287.4 263.576L293.8 260.08C294.467 259.705 295.267 259.705 295.8 259.955L302.333 263.451C302.867 263.701 302.733 264.2 302.2 264.575L295.8 268.072C295.267 268.446 294.333 268.446 293.8 268.196Z" fill="#06033E"/>
<path opacity="0.4" d="M303.933 273.566L297.4 270.07C296.867 269.82 297 269.32 297.533 268.946L303.933 265.449C304.6 265.075 305.4 265.075 305.933 265.324L312.467 268.821C313 269.071 312.867 269.57 312.333 269.945L305.933 273.441C305.4 273.816 304.467 273.941 303.933 273.566Z" fill="#06033E"/>
<path opacity="0.4" d="M313.933 279.061L307.4 275.564C306.867 275.314 307 274.815 307.533 274.44L313.933 270.944C314.6 270.569 315.4 270.569 315.933 270.819L322.467 274.315C323 274.565 322.867 275.065 322.333 275.439L315.933 278.936C315.4 279.31 314.467 279.31 313.933 279.061Z" fill="#06033E"/>
<path opacity="0.4" d="M323.933 284.43L317.4 280.934C316.867 280.684 317 280.185 317.533 279.81L323.933 276.313C324.6 275.939 325.4 275.939 325.933 276.189L332.467 279.685C333 279.935 332.867 280.434 332.333 280.809L325.933 284.305C325.4 284.68 324.467 284.805 323.933 284.43Z" fill="#06033E"/>
<path opacity="0.4" d="M334.067 289.925L327.533 286.428C327 286.179 327.133 285.679 327.667 285.304L334.067 281.808C334.733 281.433 335.533 281.433 336.067 281.683L342.6 285.18C343.133 285.429 343 285.929 342.467 286.303L336.067 289.8C335.4 290.175 334.6 290.175 334.067 289.925Z" fill="#06033E"/>
<path opacity="0.4" d="M344.067 295.295L337.533 291.798C337 291.548 337.133 291.049 337.667 290.674L344.067 287.178C344.733 286.803 345.533 286.803 346.067 287.053L352.6 290.549C353.133 290.799 353 291.299 352.467 291.673L346.067 295.17C345.533 295.544 344.6 295.669 344.067 295.295Z" fill="#06033E"/>
<path opacity="0.4" d="M354.067 300.789L347.533 297.293C347 297.043 347.133 296.543 347.667 296.169L354.067 292.672C354.733 292.297 355.533 292.297 356.067 292.547L362.6 296.044C363.133 296.294 363 296.793 362.467 297.168L356.067 300.664C355.533 301.039 354.6 301.039 354.067 300.789Z" fill="#06033E"/>
<path opacity="0.4" d="M278.6 249.34L272.067 245.844C271.533 245.594 271.667 245.094 272.2 244.72L278.6 241.223C279.267 240.849 280.067 240.849 280.6 241.098L287.133 244.595C287.667 244.845 287.533 245.344 287 245.719L280.6 249.215C279.933 249.59 279 249.59 278.6 249.34Z" fill="#06033E"/>
<path opacity="0.4" d="M268.333 243.846L261.8 240.349C261.267 240.099 261.4 239.6 261.933 239.225L268.333 235.729C269 235.354 269.8 235.354 270.333 235.604L276.867 239.1C277.4 239.35 277.267 239.85 276.733 240.224L270.333 243.721C269.8 244.095 268.867 244.095 268.333 243.846Z" fill="#06033E"/>
<path opacity="0.4" d="M258.2 238.351L244.2 230.734C243.667 230.484 243.8 229.985 244.333 229.61L250.733 226.113C251.4 225.739 252.2 225.739 252.733 225.989L266.733 233.606C267.267 233.856 267.133 234.355 266.6 234.73L260.2 238.226C259.533 238.601 258.6 238.601 258.2 238.351Z" fill="#06033E"/>
<path opacity="0.4" d="M265.267 231.608L253.933 225.489C253.4 225.239 253.533 224.74 254.067 224.365L260.467 220.869C261.133 220.494 261.933 220.494 262.467 220.744L273.8 226.863C274.333 227.112 274.2 227.612 273.667 227.986L267.267 231.483C266.733 231.858 265.8 231.858 265.267 231.608Z" fill="#06033E"/>
<path opacity="0.4" d="M288.6 254.71L282.067 251.213C281.533 250.964 281.667 250.464 282.2 250.089L288.6 246.593C289.267 246.218 290.067 246.218 290.6 246.468L297.133 249.965C297.667 250.214 297.533 250.714 297 251.088L290.6 254.585C290.067 254.96 289.133 255.084 288.6 254.71Z" fill="#06033E"/>
<path opacity="0.4" d="M298.6 260.204L292.067 256.708C291.533 256.458 291.667 255.959 292.2 255.584L298.6 252.088C299.267 251.713 300.067 251.713 300.6 251.963L307.133 255.459C307.667 255.709 307.533 256.208 307 256.583L300.6 260.08C300.067 260.454 299.133 260.454 298.6 260.204Z" fill="#06033E"/>
<path opacity="0.4" d="M308.6 265.574L302.067 262.078C301.533 261.828 301.667 261.328 302.2 260.954L308.6 257.457C309.267 257.083 310.067 257.083 310.6 257.332L317.133 260.829C317.667 261.079 317.533 261.578 317 261.953L310.6 265.449C310.067 265.824 309.133 265.949 308.6 265.574Z" fill="#06033E"/>
<path opacity="0.4" d="M318.733 271.069L312.2 267.572C311.667 267.322 311.8 266.823 312.333 266.448L318.733 262.952C319.4 262.577 320.2 262.577 320.733 262.827L327.267 266.323C327.8 266.573 327.667 267.073 327.133 267.447L320.733 270.944C320.067 271.318 319.267 271.318 318.733 271.069Z" fill="#06033E"/>
<path opacity="0.4" d="M328.733 276.438L322.2 272.942C321.667 272.692 321.8 272.192 322.333 271.818L328.733 268.321C329.4 267.947 330.2 267.947 330.733 268.196L337.267 271.693C337.8 271.943 337.667 272.442 337.133 272.817L330.733 276.313C330.2 276.688 329.267 276.813 328.733 276.438Z" fill="#06033E"/>
<path opacity="0.4" d="M338.733 281.933L332.2 278.436C331.667 278.187 331.8 277.687 332.333 277.312L338.733 273.816C339.4 273.441 340.2 273.441 340.733 273.691L347.267 277.188C347.8 277.437 347.667 277.937 347.133 278.311L340.733 281.808C340.2 282.183 339.267 282.183 338.733 281.933Z" fill="#06033E"/>
<path opacity="0.4" d="M348.867 287.302L342.333 283.806C341.8 283.556 341.933 283.057 342.467 282.682L348.867 279.186C349.533 278.811 350.333 278.811 350.867 279.061L357.4 282.557C357.933 282.807 357.8 283.306 357.267 283.681L350.867 287.178C350.2 287.552 349.4 287.677 348.867 287.302Z" fill="#06033E"/>
<path opacity="0.4" d="M358.867 292.797L352.333 289.3C351.8 289.051 351.933 288.551 352.467 288.177L358.867 284.68C359.533 284.305 360.333 284.305 360.867 284.555L367.4 288.052C367.933 288.301 367.8 288.801 367.267 289.176L360.867 292.672C360.333 293.047 359.4 293.047 358.867 292.797Z" fill="#06033E"/>
<path opacity="0.4" d="M368.867 298.167L362.333 294.67C361.8 294.42 361.933 293.921 362.467 293.546L368.867 290.05C369.533 289.675 370.333 289.675 370.867 289.925L377.4 293.421C377.933 293.671 377.8 294.171 377.267 294.545L370.867 298.042C370.333 298.416 369.4 298.541 368.867 298.167Z" fill="#06033E"/>
<path opacity="0.4" d="M386.733 307.907L372.6 300.29C372.067 300.04 372.2 299.54 372.733 299.166L379.133 295.669C379.8 295.295 380.6 295.295 381.133 295.544L395.267 303.162C395.8 303.411 395.667 303.911 395.133 304.286L388.733 307.782C388.2 308.157 387.267 308.157 386.733 307.907Z" fill="#06033E"/>
<path opacity="0.4" d="M406.333 297.293L394.333 290.799C393.8 290.549 393.933 290.05 394.467 289.675L400.867 286.179C401.533 285.804 402.333 285.804 402.867 286.054L414.867 292.547C415.4 292.797 415.267 293.296 414.733 293.671L408.333 297.168C407.667 297.542 406.867 297.542 406.333 297.293Z" fill="#06033E"/>
<path opacity="0.4" d="M306.2 253.711L299.667 250.214C299.133 249.965 299.267 249.465 299.8 249.091L306.2 245.594C306.867 245.219 307.667 245.219 308.2 245.469L314.733 248.966C315.267 249.215 315.133 249.715 314.6 250.09L308.2 253.586C307.533 253.961 306.733 253.961 306.2 253.711Z" fill="#06033E"/>
<path opacity="0.4" d="M295.933 248.091L289.4 244.595C288.867 244.345 289 243.846 289.533 243.471L295.933 239.975C296.6 239.6 297.4 239.6 297.933 239.85L304.467 243.346C305 243.596 304.867 244.095 304.333 244.47L297.933 247.967C297.267 248.341 296.333 248.466 295.933 248.091Z" fill="#06033E"/>
<path opacity="0.4" d="M285.533 242.597L279 239.1C278.467 238.851 278.6 238.351 279.133 237.977L285.533 234.48C286.2 234.105 287 234.105 287.533 234.355L294.067 237.852C294.6 238.101 294.467 238.601 293.933 238.976L287.533 242.472C287 242.847 286.067 242.847 285.533 242.597Z" fill="#06033E"/>
<path opacity="0.4" d="M275.267 236.977L268.733 233.481C268.2 233.231 268.333 232.732 268.867 232.357L275.267 228.861C275.933 228.486 276.733 228.486 277.267 228.736L283.8 232.232C284.333 232.482 284.2 232.981 283.667 233.356L277.267 236.853C276.733 237.227 275.8 237.352 275.267 236.977Z" fill="#06033E"/>
<path opacity="0.4" d="M316.2 259.081L309.667 255.584C309.133 255.334 309.267 254.835 309.8 254.46L316.2 250.964C316.867 250.589 317.667 250.589 318.2 250.839L324.733 254.335C325.267 254.585 325.133 255.085 324.6 255.459L318.2 258.956C317.667 259.33 316.733 259.455 316.2 259.081Z" fill="#06033E"/>
<path opacity="0.4" d="M326.2 264.575L319.667 261.079C319.133 260.829 319.267 260.329 319.8 259.955L326.2 256.458C326.867 256.083 327.667 256.083 328.2 256.333L334.733 259.83C335.267 260.08 335.133 260.579 334.6 260.954L328.2 264.45C327.667 264.825 326.733 264.825 326.2 264.575Z" fill="#06033E"/>
<path opacity="0.4" d="M336.333 269.945L329.8 266.448C329.267 266.199 329.4 265.699 329.933 265.324L336.333 261.828C337 261.453 337.8 261.453 338.333 261.703L344.867 265.2C345.4 265.449 345.267 265.949 344.733 266.323L338.333 269.82C337.667 270.195 336.867 270.319 336.333 269.945Z" fill="#06033E"/>
<path opacity="0.4" d="M346.333 275.439L339.8 271.943C339.267 271.693 339.4 271.194 339.933 270.819L346.333 267.322C347 266.948 347.8 266.948 348.333 267.198L354.867 270.694C355.4 270.944 355.267 271.443 354.733 271.818L348.333 275.314C347.8 275.689 346.867 275.689 346.333 275.439Z" fill="#06033E"/>
<path opacity="0.4" d="M356.333 280.809L349.8 277.312C349.267 277.063 349.4 276.563 349.933 276.189L356.333 272.692C357 272.317 357.8 272.317 358.333 272.567L364.867 276.064C365.4 276.313 365.267 276.813 364.733 277.188L358.333 280.684C357.8 281.059 356.867 281.184 356.333 280.809Z" fill="#06033E"/>
<path opacity="0.4" d="M366.467 286.304L359.933 282.807C359.4 282.557 359.533 282.058 360.067 281.683L366.467 278.187C367.133 277.812 367.933 277.812 368.467 278.062L375 281.558C375.533 281.808 375.4 282.308 374.867 282.682L368.467 286.179C367.8 286.553 366.867 286.553 366.467 286.304Z" fill="#06033E"/>
<path opacity="0.4" d="M376.467 291.673L369.933 288.177C369.4 287.927 369.533 287.427 370.067 287.053L376.467 283.556C377.133 283.182 377.933 283.182 378.467 283.431L385 286.928C385.533 287.178 385.4 287.677 384.867 288.052L378.467 291.548C377.933 291.923 377 292.048 376.467 291.673Z" fill="#06033E"/>
<path opacity="0.4" d="M386.467 297.168L379.933 293.671C379.4 293.421 379.533 292.922 380.067 292.547L386.467 289.051C387.133 288.676 387.933 288.676 388.467 288.926L395 292.422C395.533 292.672 395.4 293.172 394.867 293.546L388.467 297.043C387.933 297.417 387 297.417 386.467 297.168Z" fill="#06033E"/>
<path opacity="0.4" d="M396.467 302.537L389.933 299.041C389.4 298.791 389.533 298.292 390.067 297.917L396.467 294.42C397.133 294.046 397.933 294.046 398.467 294.296L405 297.792C405.533 298.042 405.4 298.541 404.867 298.916L398.467 302.412C397.933 302.787 397 302.787 396.467 302.537Z" fill="#06033E"/>
<path opacity="0.4" d="M300.867 240.224L294.333 236.728C293.8 236.478 293.933 235.978 294.467 235.604L300.867 232.107C301.533 231.733 302.333 231.733 302.867 231.982L309.4 235.479C309.933 235.729 309.8 236.228 309.267 236.603L302.867 240.099C302.333 240.474 301.4 240.599 300.867 240.224Z" fill="#06033E"/>
<path opacity="0.4" d="M290.867 234.855L284.333 231.358C283.8 231.108 283.933 230.609 284.467 230.234L290.867 226.738C291.533 226.363 292.333 226.363 292.867 226.613L299.4 230.109C299.933 230.359 299.8 230.859 299.267 231.233L292.867 234.73C292.333 235.104 291.4 235.104 290.867 234.855Z" fill="#06033E"/>
<path opacity="0.4" d="M280.867 229.485L274.333 225.988C273.8 225.739 273.933 225.239 274.467 224.865L280.867 221.368C281.533 220.993 282.333 220.993 282.867 221.243L289.4 224.74C289.933 224.989 289.8 225.489 289.267 225.864L282.867 229.36C282.333 229.735 281.4 229.735 280.867 229.485Z" fill="#06033E"/>
<path opacity="0.4" d="M270.867 224.115L264.333 220.619C263.8 220.369 263.933 219.87 264.467 219.495L270.867 215.998C271.533 215.624 272.333 215.624 272.867 215.874L279.4 219.37C279.933 219.62 279.8 220.119 279.267 220.494L273 223.99C272.333 224.365 271.4 224.365 270.867 224.115Z" fill="#06033E"/>
<path opacity="0.4" d="M281.133 218.496L274.6 214.999C274.067 214.75 274.2 214.25 274.733 213.875L276.867 212.752C277.533 212.377 278.333 212.377 278.867 212.627L285.4 216.123C285.933 216.373 285.8 216.873 285.267 217.247L283.133 218.371C282.6 218.746 281.667 218.746 281.133 218.496Z" fill="#06033E"/>
<path opacity="0.4" d="M294.2 225.614L287.667 222.117C287.133 221.868 287.267 221.368 287.8 220.993L289.933 219.87C290.6 219.495 291.4 219.495 291.933 219.745L298.467 223.241C299 223.491 298.867 223.99 298.333 224.365L296.2 225.489C295.667 225.864 294.733 225.864 294.2 225.614Z" fill="#06033E"/>
<path opacity="0.4" d="M304.2 230.983L297.667 227.487C297.133 227.237 297.267 226.738 297.8 226.363L299.933 225.239C300.6 224.864 301.4 224.864 301.933 225.114L308.467 228.611C309 228.861 308.867 229.36 308.333 229.735L306.2 230.859C305.533 231.233 304.733 231.233 304.2 230.983Z" fill="#06033E"/>
<path opacity="0.4" d="M314.067 236.353L307.533 232.857C307 232.607 307.133 232.107 307.667 231.733L309.8 230.609C310.467 230.234 311.267 230.234 311.8 230.484L318.333 233.981C318.867 234.23 318.733 234.73 318.2 235.104L316.067 236.228C315.533 236.603 314.6 236.603 314.067 236.353Z" fill="#06033E"/>
<path opacity="0.4" d="M324.067 241.723L317.533 238.226C317 237.977 317.133 237.477 317.667 237.102L319.8 235.979C320.467 235.604 321.267 235.604 321.8 235.854L328.333 239.35C328.867 239.6 328.733 240.099 328.2 240.474L326.067 241.598C325.533 241.973 324.6 241.973 324.067 241.723Z" fill="#06033E"/>
<path opacity="0.4" d="M379.667 271.693L373.133 268.196C372.6 267.947 372.733 267.447 373.267 267.073L375.4 265.949C376.067 265.574 376.867 265.574 377.4 265.824L383.933 269.32C384.467 269.57 384.333 270.07 383.8 270.444L381.667 271.568C381 271.943 380.067 272.068 379.667 271.693Z" fill="#06033E"/>
<path opacity="0.4" d="M389.533 277.063L383 273.566C382.467 273.316 382.6 272.817 383.133 272.442L385.267 271.318C385.933 270.944 386.733 270.944 387.267 271.193L393.8 274.69C394.333 274.94 394.2 275.439 393.667 275.814L391.533 276.938C391 277.312 390.067 277.437 389.533 277.063Z" fill="#06033E"/>
<path opacity="0.4" d="M399.533 282.557L393 278.936C392.467 278.686 392.6 278.187 393.133 277.812L395.267 276.688C395.933 276.313 396.733 276.313 397.267 276.563L403.8 280.06C404.333 280.309 404.2 280.809 403.667 281.184L401.533 282.307C400.867 282.682 400.067 282.807 399.533 282.557Z" fill="#06033E"/>
<path opacity="0.4" d="M409.4 287.927L402.867 284.43C402.333 284.181 402.467 283.681 403 283.306L405.133 282.183C405.8 281.808 406.6 281.808 407.133 282.058L413.667 285.554C414.2 285.804 414.067 286.304 413.533 286.678L411.4 287.802C410.867 288.177 409.933 288.177 409.4 287.927Z" fill="#06033E"/>
<path opacity="0.4" d="M310.867 245.719L304.333 242.222C303.8 241.973 303.933 241.473 304.467 241.098L310.867 237.602C311.533 237.227 312.333 237.227 312.867 237.477L319.4 240.974C319.933 241.223 319.8 241.723 319.267 242.097L312.867 245.594C312.333 245.969 311.4 245.969 310.867 245.719Z" fill="#06033E"/>
<path opacity="0.4" d="M321 251.088L314.467 247.592C313.933 247.342 314.067 246.843 314.6 246.468L321 242.972C321.667 242.597 322.467 242.597 323 242.847L329.533 246.343C330.067 246.593 329.933 247.092 329.4 247.467L323 250.964C322.333 251.338 321.533 251.463 321 251.088Z" fill="#06033E"/>
<path opacity="0.4" d="M331 256.583L324.467 253.086C323.933 252.837 324.067 252.337 324.6 251.963L331 248.466C331.667 248.091 332.467 248.091 333 248.341L339.533 251.838C340.067 252.087 339.933 252.587 339.4 252.962L333 256.458C332.467 256.833 331.533 256.833 331 256.583Z" fill="#06033E"/>
<path opacity="0.4" d="M341 261.953L334.467 258.456C333.933 258.206 334.067 257.707 334.6 257.332L341 253.836C341.667 253.461 342.467 253.461 343 253.711L349.533 257.207C350.067 257.457 349.933 257.957 349.4 258.331L343 261.828C342.467 262.202 341.533 262.327 341 261.953Z" fill="#06033E"/>
<path opacity="0.4" d="M351.133 267.447L344.6 263.951C344.067 263.701 344.2 263.201 344.733 262.827L351.133 259.33C351.8 258.956 352.6 258.956 353.133 259.205L359.667 262.702C360.2 262.952 360.067 263.451 359.533 263.826L353.133 267.322C352.467 267.697 351.533 267.697 351.133 267.447Z" fill="#06033E"/>
<path opacity="0.4" d="M361.133 272.817L354.6 269.32C354.067 269.071 354.2 268.571 354.733 268.196L361.133 264.7C361.8 264.325 362.6 264.325 363.133 264.575L369.667 268.072C370.2 268.321 370.067 268.821 369.533 269.195L363.133 272.692C362.6 273.067 361.667 273.192 361.133 272.817Z" fill="#06033E"/>
<path opacity="0.4" d="M371.133 278.311L364.6 274.815C364.067 274.565 364.2 274.066 364.733 273.691L371.133 270.194C371.8 269.82 372.6 269.82 373.133 270.07L379.667 273.566C380.2 273.816 380.067 274.315 379.533 274.69L373.133 278.186C372.6 278.561 371.667 278.561 371.133 278.311Z" fill="#06033E"/>
<path opacity="0.4" d="M381.133 283.681L374.6 280.185C374.067 279.935 374.2 279.435 374.733 279.061L381.133 275.564C381.8 275.19 382.6 275.19 383.133 275.439L389.667 278.936C390.2 279.186 390.067 279.685 389.533 280.06L383.133 283.556C382.6 283.931 381.667 283.931 381.133 283.681Z" fill="#06033E"/>
<path opacity="0.4" d="M391.267 289.176L384.733 285.679C384.2 285.429 384.333 284.93 384.867 284.555L391.267 281.059C391.933 280.684 392.733 280.684 393.267 280.934L399.8 284.43C400.333 284.68 400.2 285.18 399.667 285.554L393.267 289.051C392.733 289.425 391.8 289.425 391.267 289.176Z" fill="#06033E"/>
<path opacity="0.4" d="M253.533 246.343L234.333 235.979C233.8 235.729 233.933 235.229 234.467 234.855L240.867 231.358C241.533 230.984 242.333 230.984 242.867 231.233L262.067 241.598C262.6 241.848 262.467 242.347 261.933 242.722L255.533 246.218C255 246.593 254.067 246.718 253.533 246.343Z" fill="#06033E"/>
<path opacity="0.4" d="M376.867 313.027L357.667 302.662C357.133 302.412 357.267 301.913 357.8 301.538L364.2 298.042C364.867 297.667 365.667 297.667 366.2 297.917L385.4 308.282C385.933 308.531 385.8 309.031 385.267 309.406L378.867 312.902C378.333 313.277 377.4 313.402 376.867 313.027Z" fill="#06033E"/>
<path opacity="0.4" d="M336.733 303.411L330.2 299.915C329.667 299.665 329.8 299.166 330.333 298.791L338.067 294.67C338.733 294.296 339.533 294.296 340.067 294.545L346.6 298.042C347.133 298.292 347 298.791 346.467 299.166L338.733 303.287C338.2 303.661 337.267 303.661 336.733 303.411Z" fill="#06033E"/>
<path opacity="0.4" d="M263.8 263.951L253.4 258.331C252.867 258.082 253 257.582 253.533 257.207L261.267 253.087C261.933 252.712 262.733 252.712 263.267 252.962L273.667 258.581C274.2 258.831 274.067 259.33 273.533 259.705L265.8 263.826C265.267 264.2 264.333 264.2 263.8 263.951Z" fill="#06033E"/>
<path opacity="0.4" d="M327 298.167L316.6 292.547C316.067 292.297 316.2 291.798 316.733 291.423L324.467 287.302C325.133 286.928 325.933 286.928 326.467 287.178L336.867 292.797C337.4 293.047 337.267 293.546 336.733 293.921L329 298.042C328.467 298.416 327.533 298.416 327 298.167Z" fill="#06033E"/>
<path opacity="0.4" d="M278.333 271.818L267.933 266.198C267.4 265.949 267.533 265.449 268.067 265.075L275.8 260.954C276.467 260.579 277.267 260.579 277.8 260.829L288.2 266.448C288.733 266.698 288.6 267.197 288.067 267.572L280.333 271.693C279.667 272.068 278.867 272.068 278.333 271.818Z" fill="#06033E"/>
<path opacity="0.4" d="M277.8 260.829L323 285.304C323.533 285.554 323.533 286.054 323 286.428L315.133 290.674C314.6 290.924 313.667 290.924 313.133 290.674L267.933 266.198L277.8 260.829Z" fill="#06033E"/>
<path opacity="0.4" d="M364.733 313.152L371.933 317.023C372.333 317.273 372.333 317.647 371.8 317.897L368.6 319.645C368.067 319.895 367.4 319.895 366.867 319.77L359.667 315.899C359.267 315.649 359.267 315.275 359.8 315.025L363 313.277C363.533 313.027 364.333 313.027 364.733 313.152Z" fill="#06033E"/>
<path opacity="0.4" d="M354.6 307.782L361.8 311.653C362.2 311.903 362.2 312.278 361.667 312.527L358.467 314.276C357.933 314.525 357.267 314.525 356.733 314.4L349.533 310.529C349.133 310.28 349.133 309.905 349.667 309.655L352.867 307.907C353.533 307.532 354.2 307.532 354.6 307.782Z" fill="#06033E"/>
<path opacity="0.4" d="M344.6 302.288L351.8 306.159C352.2 306.408 352.2 306.783 351.667 307.033L348.467 308.781C347.933 309.031 347.267 309.031 346.733 308.906L339.533 305.035C339.133 304.785 339.133 304.41 339.667 304.161L342.867 302.412C343.4 302.038 344.2 302.038 344.6 302.288Z" fill="#06033E"/>
<path opacity="0.4" d="M360.2 304.785L367.4 308.656C367.8 308.906 367.8 309.281 367.267 309.53L364.067 311.279C363.533 311.528 362.867 311.528 362.333 311.404L355.133 307.532C354.733 307.283 354.733 306.908 355.267 306.658L358.467 304.91C359 304.535 359.8 304.535 360.2 304.785Z" fill="#06033E"/>
</g>
<g opacity="0.4">
<path opacity="0.4" d="M229.8 245.594L223.267 242.097C222.733 241.848 222.867 241.348 223.4 240.974L231.133 236.853C231.8 236.478 232.6 236.478 233.133 236.728L239.667 240.224C240.2 240.474 240.067 240.974 239.533 241.348L231.8 245.469C231.267 245.719 230.333 245.844 229.8 245.594Z" fill="#06033E"/>
<path opacity="0.4" d="M239.8 250.964L233.267 247.467C232.733 247.217 232.867 246.718 233.4 246.343L241.133 242.222C241.8 241.848 242.6 241.848 243.133 242.097L249.667 245.594C250.2 245.844 250.067 246.343 249.533 246.718L241.8 250.839C241.267 251.213 240.333 251.213 239.8 250.964Z" fill="#06033E"/>
<path opacity="0.4" d="M249.8 256.333L243.267 252.837C242.733 252.587 242.867 252.088 243.4 251.713L251.133 247.592C251.8 247.217 252.6 247.217 253.133 247.467L259.667 250.964C260.2 251.213 260.067 251.713 259.533 252.088L251.8 256.208C251.267 256.583 250.333 256.708 249.8 256.333Z" fill="#06033E"/>
<path opacity="0.4" d="M263.8 251.963L257.267 248.466C256.733 248.216 256.867 247.717 257.4 247.342L263.8 243.846C264.467 243.471 265.267 243.471 265.8 243.721L272.333 247.217C272.867 247.467 272.733 247.967 272.2 248.341L265.8 251.838C265.133 252.212 264.2 252.212 263.8 251.963Z" fill="#06033E"/>
<path opacity="0.4" d="M273.8 257.332L267.267 253.836C266.733 253.586 266.867 253.086 267.4 252.712L273.8 249.215C274.467 248.841 275.267 248.841 275.8 249.09L282.333 252.587C282.867 252.837 282.733 253.336 282.2 253.711L275.8 257.207C275.267 257.582 274.333 257.582 273.8 257.332Z" fill="#06033E"/>
<path opacity="0.4" d="M283.8 262.827L277.267 259.33C276.733 259.08 276.867 258.581 277.4 258.206L283.8 254.71C284.467 254.335 285.267 254.335 285.8 254.585L292.333 258.081C292.867 258.331 292.733 258.831 292.2 259.205L285.8 262.702C285.267 262.952 284.333 263.077 283.8 262.827Z" fill="#06033E"/>
<path opacity="0.4" d="M293.8 268.196L287.267 264.7C286.733 264.45 286.867 263.951 287.4 263.576L293.8 260.08C294.467 259.705 295.267 259.705 295.8 259.955L302.333 263.451C302.867 263.701 302.733 264.2 302.2 264.575L295.8 268.072C295.267 268.446 294.333 268.446 293.8 268.196Z" fill="#06033E"/>
<path opacity="0.4" d="M303.933 273.566L297.4 270.07C296.867 269.82 297 269.32 297.533 268.946L303.933 265.449C304.6 265.075 305.4 265.075 305.933 265.324L312.467 268.821C313 269.071 312.867 269.57 312.333 269.945L305.933 273.441C305.4 273.816 304.467 273.941 303.933 273.566Z" fill="#06033E"/>
<path opacity="0.4" d="M313.933 279.061L307.4 275.564C306.867 275.314 307 274.815 307.533 274.44L313.933 270.944C314.6 270.569 315.4 270.569 315.933 270.819L322.467 274.315C323 274.565 322.867 275.065 322.333 275.439L315.933 278.936C315.4 279.31 314.467 279.31 313.933 279.061Z" fill="#06033E"/>
<path opacity="0.4" d="M323.933 284.43L317.4 280.934C316.867 280.684 317 280.185 317.533 279.81L323.933 276.313C324.6 275.939 325.4 275.939 325.933 276.189L332.467 279.685C333 279.935 332.867 280.434 332.333 280.809L325.933 284.305C325.4 284.68 324.467 284.805 323.933 284.43Z" fill="#06033E"/>
<path opacity="0.4" d="M334.067 289.925L327.533 286.428C327 286.179 327.133 285.679 327.667 285.304L334.067 281.808C334.733 281.433 335.533 281.433 336.067 281.683L342.6 285.18C343.133 285.429 343 285.929 342.467 286.303L336.067 289.8C335.4 290.175 334.6 290.175 334.067 289.925Z" fill="#06033E"/>
<path opacity="0.4" d="M344.067 295.295L337.533 291.798C337 291.548 337.133 291.049 337.667 290.674L344.067 287.178C344.733 286.803 345.533 286.803 346.067 287.053L352.6 290.549C353.133 290.799 353 291.299 352.467 291.673L346.067 295.17C345.533 295.544 344.6 295.669 344.067 295.295Z" fill="#06033E"/>
<path opacity="0.4" d="M354.067 300.789L347.533 297.293C347 297.043 347.133 296.543 347.667 296.169L354.067 292.672C354.733 292.297 355.533 292.297 356.067 292.547L362.6 296.044C363.133 296.294 363 296.793 362.467 297.168L356.067 300.664C355.533 301.039 354.6 301.039 354.067 300.789Z" fill="#06033E"/>
<path opacity="0.4" d="M278.6 249.34L272.067 245.844C271.533 245.594 271.667 245.094 272.2 244.72L278.6 241.223C279.267 240.849 280.067 240.849 280.6 241.098L287.133 244.595C287.667 244.845 287.533 245.344 287 245.719L280.6 249.215C279.933 249.59 279 249.59 278.6 249.34Z" fill="#06033E"/>
<path opacity="0.4" d="M268.333 243.846L261.8 240.349C261.267 240.099 261.4 239.6 261.933 239.225L268.333 235.729C269 235.354 269.8 235.354 270.333 235.604L276.867 239.1C277.4 239.35 277.267 239.85 276.733 240.224L270.333 243.721C269.8 244.095 268.867 244.095 268.333 243.846Z" fill="#06033E"/>
<path opacity="0.4" d="M258.2 238.351L244.2 230.734C243.667 230.484 243.8 229.985 244.333 229.61L250.733 226.113C251.4 225.739 252.2 225.739 252.733 225.989L266.733 233.606C267.267 233.856 267.133 234.355 266.6 234.73L260.2 238.226C259.533 238.601 258.6 238.601 258.2 238.351Z" fill="#06033E"/>
<path opacity="0.4" d="M265.267 231.608L253.933 225.489C253.4 225.239 253.533 224.74 254.067 224.365L260.467 220.869C261.133 220.494 261.933 220.494 262.467 220.744L273.8 226.863C274.333 227.112 274.2 227.612 273.667 227.986L267.267 231.483C266.733 231.858 265.8 231.858 265.267 231.608Z" fill="#06033E"/>
<path opacity="0.4" d="M288.6 254.71L282.067 251.213C281.533 250.964 281.667 250.464 282.2 250.089L288.6 246.593C289.267 246.218 290.067 246.218 290.6 246.468L297.133 249.965C297.667 250.214 297.533 250.714 297 251.088L290.6 254.585C290.067 254.96 289.133 255.084 288.6 254.71Z" fill="#06033E"/>
<path opacity="0.4" d="M298.6 260.204L292.067 256.708C291.533 256.458 291.667 255.959 292.2 255.584L298.6 252.088C299.267 251.713 300.067 251.713 300.6 251.963L307.133 255.459C307.667 255.709 307.533 256.208 307 256.583L300.6 260.08C300.067 260.454 299.133 260.454 298.6 260.204Z" fill="#06033E"/>
<path opacity="0.4" d="M308.6 265.574L302.067 262.078C301.533 261.828 301.667 261.328 302.2 260.954L308.6 257.457C309.267 257.083 310.067 257.083 310.6 257.332L317.133 260.829C317.667 261.079 317.533 261.578 317 261.953L310.6 265.449C310.067 265.824 309.133 265.949 308.6 265.574Z" fill="#06033E"/>
<path opacity="0.4" d="M318.733 271.069L312.2 267.572C311.667 267.322 311.8 266.823 312.333 266.448L318.733 262.952C319.4 262.577 320.2 262.577 320.733 262.827L327.267 266.323C327.8 266.573 327.667 267.073 327.133 267.447L320.733 270.944C320.067 271.318 319.267 271.318 318.733 271.069Z" fill="#06033E"/>
<path opacity="0.4" d="M328.733 276.438L322.2 272.942C321.667 272.692 321.8 272.192 322.333 271.818L328.733 268.321C329.4 267.947 330.2 267.947 330.733 268.196L337.267 271.693C337.8 271.943 337.667 272.442 337.133 272.817L330.733 276.313C330.2 276.688 329.267 276.813 328.733 276.438Z" fill="#06033E"/>
<path opacity="0.4" d="M338.733 281.933L332.2 278.436C331.667 278.187 331.8 277.687 332.333 277.312L338.733 273.816C339.4 273.441 340.2 273.441 340.733 273.691L347.267 277.188C347.8 277.437 347.667 277.937 347.133 278.311L340.733 281.808C340.2 282.183 339.267 282.183 338.733 281.933Z" fill="#06033E"/>
<path opacity="0.4" d="M348.867 287.302L342.333 283.806C341.8 283.556 341.933 283.057 342.467 282.682L348.867 279.186C349.533 278.811 350.333 278.811 350.867 279.061L357.4 282.557C357.933 282.807 357.8 283.306 357.267 283.681L350.867 287.178C350.2 287.552 349.4 287.677 348.867 287.302Z" fill="#06033E"/>
<path opacity="0.4" d="M358.867 292.797L352.333 289.3C351.8 289.051 351.933 288.551 352.467 288.177L358.867 284.68C359.533 284.305 360.333 284.305 360.867 284.555L367.4 288.052C367.933 288.301 367.8 288.801 367.267 289.176L360.867 292.672C360.333 293.047 359.4 293.047 358.867 292.797Z" fill="#06033E"/>
<path opacity="0.4" d="M368.867 298.167L362.333 294.67C361.8 294.42 361.933 293.921 362.467 293.546L368.867 290.05C369.533 289.675 370.333 289.675 370.867 289.925L377.4 293.421C377.933 293.671 377.8 294.171 377.267 294.545L370.867 298.042C370.333 298.416 369.4 298.541 368.867 298.167Z" fill="#06033E"/>
<path opacity="0.4" d="M386.733 307.907L372.6 300.29C372.067 300.04 372.2 299.54 372.733 299.166L379.133 295.669C379.8 295.295 380.6 295.295 381.133 295.544L395.267 303.162C395.8 303.411 395.667 303.911 395.133 304.286L388.733 307.782C388.2 308.157 387.267 308.157 386.733 307.907Z" fill="#06033E"/>
<path opacity="0.4" d="M406.333 297.293L394.333 290.799C393.8 290.549 393.933 290.05 394.467 289.675L400.867 286.179C401.533 285.804 402.333 285.804 402.867 286.054L414.867 292.547C415.4 292.797 415.267 293.296 414.733 293.671L408.333 297.168C407.667 297.542 406.867 297.542 406.333 297.293Z" fill="#06033E"/>
<path opacity="0.4" d="M306.2 253.711L299.667 250.214C299.133 249.965 299.267 249.465 299.8 249.091L306.2 245.594C306.867 245.219 307.667 245.219 308.2 245.469L314.733 248.966C315.267 249.215 315.133 249.715 314.6 250.09L308.2 253.586C307.533 253.961 306.733 253.961 306.2 253.711Z" fill="#06033E"/>
<path opacity="0.4" d="M295.933 248.091L289.4 244.595C288.867 244.345 289 243.846 289.533 243.471L295.933 239.975C296.6 239.6 297.4 239.6 297.933 239.85L304.467 243.346C305 243.596 304.867 244.095 304.333 244.47L297.933 247.967C297.267 248.341 296.333 248.466 295.933 248.091Z" fill="#06033E"/>
<path opacity="0.4" d="M285.533 242.597L279 239.1C278.467 238.851 278.6 238.351 279.133 237.977L285.533 234.48C286.2 234.105 287 234.105 287.533 234.355L294.067 237.852C294.6 238.101 294.467 238.601 293.933 238.976L287.533 242.472C287 242.847 286.067 242.847 285.533 242.597Z" fill="#06033E"/>
<path opacity="0.4" d="M275.267 236.977L268.733 233.481C268.2 233.231 268.333 232.732 268.867 232.357L275.267 228.861C275.933 228.486 276.733 228.486 277.267 228.736L283.8 232.232C284.333 232.482 284.2 232.981 283.667 233.356L277.267 236.853C276.733 237.227 275.8 237.352 275.267 236.977Z" fill="#06033E"/>
<path opacity="0.4" d="M316.2 259.081L309.667 255.584C309.133 255.334 309.267 254.835 309.8 254.46L316.2 250.964C316.867 250.589 317.667 250.589 318.2 250.839L324.733 254.335C325.267 254.585 325.133 255.085 324.6 255.459L318.2 258.956C317.667 259.33 316.733 259.455 316.2 259.081Z" fill="#06033E"/>
<path opacity="0.4" d="M326.2 264.575L319.667 261.079C319.133 260.829 319.267 260.329 319.8 259.955L326.2 256.458C326.867 256.083 327.667 256.083 328.2 256.333L334.733 259.83C335.267 260.08 335.133 260.579 334.6 260.954L328.2 264.45C327.667 264.825 326.733 264.825 326.2 264.575Z" fill="#06033E"/>
<path opacity="0.4" d="M336.333 269.945L329.8 266.448C329.267 266.199 329.4 265.699 329.933 265.324L336.333 261.828C337 261.453 337.8 261.453 338.333 261.703L344.867 265.2C345.4 265.449 345.267 265.949 344.733 266.323L338.333 269.82C337.667 270.195 336.867 270.319 336.333 269.945Z" fill="#06033E"/>
<path opacity="0.4" d="M346.333 275.439L339.8 271.943C339.267 271.693 339.4 271.194 339.933 270.819L346.333 267.322C347 266.948 347.8 266.948 348.333 267.198L354.867 270.694C355.4 270.944 355.267 271.443 354.733 271.818L348.333 275.314C347.8 275.689 346.867 275.689 346.333 275.439Z" fill="#06033E"/>
<path opacity="0.4" d="M356.333 280.809L349.8 277.312C349.267 277.063 349.4 276.563 349.933 276.189L356.333 272.692C357 272.317 357.8 272.317 358.333 272.567L364.867 276.064C365.4 276.313 365.267 276.813 364.733 277.188L358.333 280.684C357.8 281.059 356.867 281.184 356.333 280.809Z" fill="#06033E"/>
<path opacity="0.4" d="M366.467 286.304L359.933 282.807C359.4 282.557 359.533 282.058 360.067 281.683L366.467 278.187C367.133 277.812 367.933 277.812 368.467 278.062L375 281.558C375.533 281.808 375.4 282.308 374.867 282.682L368.467 286.179C367.8 286.553 366.867 286.553 366.467 286.304Z" fill="#06033E"/>
<path opacity="0.4" d="M376.467 291.673L369.933 288.177C369.4 287.927 369.533 287.427 370.067 287.053L376.467 283.556C377.133 283.182 377.933 283.182 378.467 283.431L385 286.928C385.533 287.178 385.4 287.677 384.867 288.052L378.467 291.548C377.933 291.923 377 292.048 376.467 291.673Z" fill="#06033E"/>
<path opacity="0.4" d="M386.467 297.168L379.933 293.671C379.4 293.421 379.533 292.922 380.067 292.547L386.467 289.051C387.133 288.676 387.933 288.676 388.467 288.926L395 292.422C395.533 292.672 395.4 293.172 394.867 293.546L388.467 297.043C387.933 297.417 387 297.417 386.467 297.168Z" fill="#06033E"/>
<path opacity="0.4" d="M396.467 302.537L389.933 299.041C389.4 298.791 389.533 298.292 390.067 297.917L396.467 294.42C397.133 294.046 397.933 294.046 398.467 294.296L405 297.792C405.533 298.042 405.4 298.541 404.867 298.916L398.467 302.412C397.933 302.787 397 302.787 396.467 302.537Z" fill="#06033E"/>
<path opacity="0.4" d="M300.867 240.224L294.333 236.728C293.8 236.478 293.933 235.978 294.467 235.604L300.867 232.107C301.533 231.733 302.333 231.733 302.867 231.982L309.4 235.479C309.933 235.729 309.8 236.228 309.267 236.603L302.867 240.099C302.333 240.474 301.4 240.599 300.867 240.224Z" fill="#06033E"/>
<path opacity="0.4" d="M290.867 234.855L284.333 231.358C283.8 231.108 283.933 230.609 284.467 230.234L290.867 226.738C291.533 226.363 292.333 226.363 292.867 226.613L299.4 230.109C299.933 230.359 299.8 230.859 299.267 231.233L292.867 234.73C292.333 235.104 291.4 235.104 290.867 234.855Z" fill="#06033E"/>
<path opacity="0.4" d="M280.867 229.485L274.333 225.988C273.8 225.739 273.933 225.239 274.467 224.865L280.867 221.368C281.533 220.993 282.333 220.993 282.867 221.243L289.4 224.74C289.933 224.989 289.8 225.489 289.267 225.864L282.867 229.36C282.333 229.735 281.4 229.735 280.867 229.485Z" fill="#06033E"/>
<path opacity="0.4" d="M270.867 224.115L264.333 220.619C263.8 220.369 263.933 219.87 264.467 219.495L270.867 215.998C271.533 215.624 272.333 215.624 272.867 215.874L279.4 219.37C279.933 219.62 279.8 220.119 279.267 220.494L273 223.99C272.333 224.365 271.4 224.365 270.867 224.115Z" fill="#06033E"/>
<path opacity="0.4" d="M281.133 218.496L274.6 214.999C274.067 214.75 274.2 214.25 274.733 213.875L276.867 212.752C277.533 212.377 278.333 212.377 278.867 212.627L285.4 216.123C285.933 216.373 285.8 216.873 285.267 217.247L283.133 218.371C282.6 218.746 281.667 218.746 281.133 218.496Z" fill="#06033E"/>
<path opacity="0.4" d="M294.2 225.614L287.667 222.117C287.133 221.868 287.267 221.368 287.8 220.993L289.933 219.87C290.6 219.495 291.4 219.495 291.933 219.745L298.467 223.241C299 223.491 298.867 223.99 298.333 224.365L296.2 225.489C295.667 225.864 294.733 225.864 294.2 225.614Z" fill="#06033E"/>
<path opacity="0.4" d="M304.2 230.983L297.667 227.487C297.133 227.237 297.267 226.738 297.8 226.363L299.933 225.239C300.6 224.864 301.4 224.864 301.933 225.114L308.467 228.611C309 228.861 308.867 229.36 308.333 229.735L306.2 230.859C305.533 231.233 304.733 231.233 304.2 230.983Z" fill="#06033E"/>
<path opacity="0.4" d="M314.067 236.353L307.533 232.857C307 232.607 307.133 232.107 307.667 231.733L309.8 230.609C310.467 230.234 311.267 230.234 311.8 230.484L318.333 233.981C318.867 234.23 318.733 234.73 318.2 235.104L316.067 236.228C315.533 236.603 314.6 236.603 314.067 236.353Z" fill="#06033E"/>
<path opacity="0.4" d="M324.067 241.723L317.533 238.226C317 237.977 317.133 237.477 317.667 237.102L319.8 235.979C320.467 235.604 321.267 235.604 321.8 235.854L328.333 239.35C328.867 239.6 328.733 240.099 328.2 240.474L326.067 241.598C325.533 241.973 324.6 241.973 324.067 241.723Z" fill="#06033E"/>
<path opacity="0.4" d="M379.667 271.693L373.133 268.196C372.6 267.947 372.733 267.447 373.267 267.073L375.4 265.949C376.067 265.574 376.867 265.574 377.4 265.824L383.933 269.32C384.467 269.57 384.333 270.07 383.8 270.444L381.667 271.568C381 271.943 380.067 272.068 379.667 271.693Z" fill="#06033E"/>
<path opacity="0.4" d="M389.533 277.063L383 273.566C382.467 273.316 382.6 272.817 383.133 272.442L385.267 271.318C385.933 270.944 386.733 270.944 387.267 271.193L393.8 274.69C394.333 274.94 394.2 275.439 393.667 275.814L391.533 276.938C391 277.312 390.067 277.437 389.533 277.063Z" fill="#06033E"/>
<path opacity="0.4" d="M399.533 282.557L393 278.936C392.467 278.686 392.6 278.187 393.133 277.812L395.267 276.688C395.933 276.313 396.733 276.313 397.267 276.563L403.8 280.06C404.333 280.309 404.2 280.809 403.667 281.184L401.533 282.307C400.867 282.682 400.067 282.807 399.533 282.557Z" fill="#06033E"/>
<path opacity="0.4" d="M409.4 287.927L402.867 284.43C402.333 284.181 402.467 283.681 403 283.306L405.133 282.183C405.8 281.808 406.6 281.808 407.133 282.058L413.667 285.554C414.2 285.804 414.067 286.304 413.533 286.678L411.4 287.802C410.867 288.177 409.933 288.177 409.4 287.927Z" fill="#06033E"/>
<path opacity="0.4" d="M310.867 245.719L304.333 242.222C303.8 241.973 303.933 241.473 304.467 241.098L310.867 237.602C311.533 237.227 312.333 237.227 312.867 237.477L319.4 240.974C319.933 241.223 319.8 241.723 319.267 242.097L312.867 245.594C312.333 245.969 311.4 245.969 310.867 245.719Z" fill="#06033E"/>
<path opacity="0.4" d="M321 251.088L314.467 247.592C313.933 247.342 314.067 246.843 314.6 246.468L321 242.972C321.667 242.597 322.467 242.597 323 242.847L329.533 246.343C330.067 246.593 329.933 247.092 329.4 247.467L323 250.964C322.333 251.338 321.533 251.463 321 251.088Z" fill="#06033E"/>
<path opacity="0.4" d="M331 256.583L324.467 253.086C323.933 252.837 324.067 252.337 324.6 251.963L331 248.466C331.667 248.091 332.467 248.091 333 248.341L339.533 251.838C340.067 252.087 339.933 252.587 339.4 252.962L333 256.458C332.467 256.833 331.533 256.833 331 256.583Z" fill="#06033E"/>
<path opacity="0.4" d="M341 261.953L334.467 258.456C333.933 258.206 334.067 257.707 334.6 257.332L341 253.836C341.667 253.461 342.467 253.461 343 253.711L349.533 257.207C350.067 257.457 349.933 257.957 349.4 258.331L343 261.828C342.467 262.202 341.533 262.327 341 261.953Z" fill="#06033E"/>
<path opacity="0.4" d="M351.133 267.447L344.6 263.951C344.067 263.701 344.2 263.201 344.733 262.827L351.133 259.33C351.8 258.956 352.6 258.956 353.133 259.205L359.667 262.702C360.2 262.952 360.067 263.451 359.533 263.826L353.133 267.322C352.467 267.697 351.533 267.697 351.133 267.447Z" fill="#06033E"/>
<path opacity="0.4" d="M361.133 272.817L354.6 269.32C354.067 269.071 354.2 268.571 354.733 268.196L361.133 264.7C361.8 264.325 362.6 264.325 363.133 264.575L369.667 268.072C370.2 268.321 370.067 268.821 369.533 269.195L363.133 272.692C362.6 273.067 361.667 273.192 361.133 272.817Z" fill="#06033E"/>
<path opacity="0.4" d="M371.133 278.311L364.6 274.815C364.067 274.565 364.2 274.066 364.733 273.691L371.133 270.194C371.8 269.82 372.6 269.82 373.133 270.07L379.667 273.566C380.2 273.816 380.067 274.315 379.533 274.69L373.133 278.186C372.6 278.561 371.667 278.561 371.133 278.311Z" fill="#06033E"/>
<path opacity="0.4" d="M381.133 283.681L374.6 280.185C374.067 279.935 374.2 279.435 374.733 279.061L381.133 275.564C381.8 275.19 382.6 275.19 383.133 275.439L389.667 278.936C390.2 279.186 390.067 279.685 389.533 280.06L383.133 283.556C382.6 283.931 381.667 283.931 381.133 283.681Z" fill="#06033E"/>
<path opacity="0.4" d="M391.267 289.176L384.733 285.679C384.2 285.429 384.333 284.93 384.867 284.555L391.267 281.059C391.933 280.684 392.733 280.684 393.267 280.934L399.8 284.43C400.333 284.68 400.2 285.18 399.667 285.554L393.267 289.051C392.733 289.425 391.8 289.425 391.267 289.176Z" fill="#06033E"/>
<path opacity="0.4" d="M253.533 246.343L234.333 235.979C233.8 235.729 233.933 235.229 234.467 234.855L240.867 231.358C241.533 230.984 242.333 230.984 242.867 231.233L262.067 241.598C262.6 241.848 262.467 242.347 261.933 242.722L255.533 246.218C255 246.593 254.067 246.718 253.533 246.343Z" fill="#06033E"/>
<path opacity="0.4" d="M376.867 313.027L357.667 302.662C357.133 302.412 357.267 301.913 357.8 301.538L364.2 298.042C364.867 297.667 365.667 297.667 366.2 297.917L385.4 308.282C385.933 308.531 385.8 309.031 385.267 309.406L378.867 312.902C378.333 313.277 377.4 313.402 376.867 313.027Z" fill="#06033E"/>
<path opacity="0.4" d="M336.733 303.411L330.2 299.915C329.667 299.665 329.8 299.166 330.333 298.791L338.067 294.67C338.733 294.296 339.533 294.296 340.067 294.545L346.6 298.042C347.133 298.292 347 298.791 346.467 299.166L338.733 303.287C338.2 303.661 337.267 303.661 336.733 303.411Z" fill="#06033E"/>
<path opacity="0.4" d="M263.8 263.951L253.4 258.331C252.867 258.082 253 257.582 253.533 257.207L261.267 253.087C261.933 252.712 262.733 252.712 263.267 252.962L273.667 258.581C274.2 258.831 274.067 259.33 273.533 259.705L265.8 263.826C265.267 264.2 264.333 264.2 263.8 263.951Z" fill="#06033E"/>
<path opacity="0.4" d="M327 298.167L316.6 292.547C316.067 292.297 316.2 291.798 316.733 291.423L324.467 287.302C325.133 286.928 325.933 286.928 326.467 287.178L336.867 292.797C337.4 293.047 337.267 293.546 336.733 293.921L329 298.042C328.467 298.416 327.533 298.416 327 298.167Z" fill="#06033E"/>
<path opacity="0.4" d="M278.333 271.818L267.933 266.198C267.4 265.949 267.533 265.449 268.067 265.075L275.8 260.954C276.467 260.579 277.267 260.579 277.8 260.829L288.2 266.448C288.733 266.698 288.6 267.197 288.067 267.572L280.333 271.693C279.667 272.068 278.867 272.068 278.333 271.818Z" fill="#06033E"/>
<path opacity="0.4" d="M277.8 260.829L323 285.304C323.533 285.554 323.533 286.054 323 286.428L315.133 290.674C314.6 290.924 313.667 290.924 313.133 290.674L267.933 266.198L277.8 260.829Z" fill="#06033E"/>
<path opacity="0.4" d="M364.733 313.152L371.933 317.023C372.333 317.273 372.333 317.647 371.8 317.897L368.6 319.645C368.067 319.895 367.4 319.895 366.867 319.77L359.667 315.899C359.267 315.649 359.267 315.275 359.8 315.025L363 313.277C363.533 313.027 364.333 313.027 364.733 313.152Z" fill="#06033E"/>
<path opacity="0.4" d="M354.6 307.782L361.8 311.653C362.2 311.903 362.2 312.278 361.667 312.527L358.467 314.276C357.933 314.525 357.267 314.525 356.733 314.4L349.533 310.529C349.133 310.28 349.133 309.905 349.667 309.655L352.867 307.907C353.533 307.532 354.2 307.532 354.6 307.782Z" fill="#06033E"/>
<path opacity="0.4" d="M344.6 302.288L351.8 306.159C352.2 306.408 352.2 306.783 351.667 307.033L348.467 308.781C347.933 309.031 347.267 309.031 346.733 308.906L339.533 305.035C339.133 304.785 339.133 304.41 339.667 304.161L342.867 302.412C343.4 302.038 344.2 302.038 344.6 302.288Z" fill="#06033E"/>
<path opacity="0.4" d="M360.2 304.785L367.4 308.656C367.8 308.906 367.8 309.281 367.267 309.53L364.067 311.279C363.533 311.528 362.867 311.528 362.333 311.404L355.133 307.532C354.733 307.283 354.733 306.908 355.267 306.658L358.467 304.91C359 304.535 359.8 304.535 360.2 304.785Z" fill="#06033E"/>
</g>
<path d="M466.467 293.796L274.6 190.024C271.533 188.401 270.067 184.405 271.133 181.158L314.467 49.2891C315.533 46.0424 318.867 44.6687 321.933 46.2921L513.8 150.064C516.867 151.687 518.333 155.683 517.267 158.93L473.933 290.799C472.733 294.046 469.4 295.419 466.467 293.796Z" fill="url(#paint5_radial)"/>
<path d="M464.6 289.176L278.6 188.526C275.667 187.027 274.2 183.156 275.267 180.034L316.733 53.9096C317.8 50.7877 321 49.5389 323.8 51.0374L509.8 151.687C512.733 153.186 514.2 157.057 513.133 160.179L471.667 286.303C470.733 289.425 467.533 290.674 464.6 289.176Z" fill="url(#paint6_linear)"/>
<path opacity="0.4" d="M464.6 289.176L278.6 188.526C275.667 187.027 274.2 183.156 275.267 180.034L316.733 53.9096C317.8 50.7877 321 49.5389 323.8 51.0374L509.8 151.687C512.733 153.186 514.2 157.057 513.133 160.179L471.667 286.303C470.733 289.425 467.533 290.674 464.6 289.176Z" fill="#06033E"/>
<path opacity="0.4" d="M464.6 289.176L278.6 188.526C275.667 187.027 274.2 183.156 275.267 180.034L316.733 53.9096C317.8 50.7877 321 49.5389 323.8 51.0374L509.8 151.687C512.733 153.186 514.2 157.057 513.133 160.179L471.667 286.303C470.733 289.425 467.533 290.674 464.6 289.176Z" fill="#06033E"/>
<path opacity="0.5" d="M454.6 250.589L328.6 182.532C326.6 181.408 325.533 178.91 326.333 176.663L354.867 89.9987C355.533 87.8758 357.8 87.0017 359.667 88.0007L485.667 156.058C487.667 157.182 488.733 159.679 487.933 161.927L459.4 248.591C458.867 250.839 456.6 251.713 454.6 250.589Z" fill="#06033E"/>
<path d="M437.667 252.712L311.667 184.53C309.667 183.406 308.6 180.908 309.4 178.66L337.933 91.9966C338.6 89.8737 340.867 88.9996 342.733 89.9986L468.733 158.056C470.733 159.18 471.8 161.677 471 163.925L442.467 250.589C441.8 252.837 439.667 253.711 437.667 252.712Z" fill="url(#paint7_radial)"/>
<g opacity="0.5">
<path opacity="0.5" d="M437.667 252.712L311.667 184.53C309.667 183.406 308.6 180.908 309.4 178.66L337.933 91.9966C338.6 89.8737 340.867 88.9996 342.733 89.9986L468.733 158.056C470.733 159.18 471.8 161.677 471 163.925L442.467 250.589C441.8 252.837 439.667 253.711 437.667 252.712Z" fill="#06033E"/>
</g>
<path d="M468.6 158.306L342.6 90.2484C341.4 89.624 340.067 89.624 339 90.3733C339.533 90.3733 340.2 90.4982 340.867 90.7479L466.867 158.805C468.867 159.929 469.933 162.427 469.133 164.674L440.6 251.338C440.333 252.087 439.933 252.712 439.267 253.211C440.6 253.211 441.8 252.337 442.333 250.839L470.867 164.175C471.667 161.927 470.6 159.305 468.6 158.306Z" fill="white"/>
<path opacity="0.4" d="M278.733 323.392C277 323.392 275.4 323.017 274.067 322.393L223.667 295.045C222.333 294.295 221.533 293.297 221.533 292.173C221.533 290.799 222.6 289.55 224.333 288.551L250.333 274.565C253.533 272.817 258.2 272.692 261 274.191L311.4 301.413C312.733 302.163 313.533 303.162 313.533 304.286C313.533 305.659 312.467 306.908 310.733 307.907L284.733 321.893C283 322.892 280.867 323.392 278.733 323.392ZM256.333 274.44C254.467 274.44 252.6 274.815 251.133 275.689L225.133 289.675C223.8 290.424 223.133 291.298 223.133 292.048C223.133 292.922 223.8 293.421 224.467 293.796L274.867 321.144C277.133 322.393 281.4 322.268 284.067 320.769L310.067 306.783C311.4 306.034 312.067 305.16 312.067 304.41C312.067 303.536 311.4 303.037 310.733 302.662L260.333 275.439C259.133 274.815 257.8 274.44 256.333 274.44Z" fill="#06033E"/>
<path d="M373.4 135.578L365.667 131.333C365 130.958 364.6 129.959 364.867 129.21C365.133 128.46 365.933 128.086 366.6 128.585L374.333 132.831C375 133.206 375.4 134.205 375.133 134.954C374.867 135.703 374.067 135.953 373.4 135.578Z" fill="white"/>
<path d="M391.933 145.693L380.467 139.449C379.8 139.075 379.4 138.076 379.667 137.327C379.933 136.577 380.733 136.203 381.4 136.702L392.867 142.946C393.533 143.321 393.933 144.32 393.667 145.069C393.4 145.693 392.6 146.068 391.933 145.693Z" fill="white"/>
<path d="M357.667 168.046L349.933 163.8C349.267 163.426 348.867 162.427 349.133 161.677C349.4 160.928 350.2 160.553 350.867 161.053L358.6 165.299C359.267 165.673 359.667 166.672 359.4 167.422C359.133 168.171 358.467 168.421 357.667 168.046Z" fill="white"/>
<path d="M374.2 177.037L362.733 170.793C362.067 170.419 361.667 169.42 361.933 168.67C362.2 167.921 363 167.547 363.667 168.046L375.133 174.29C375.8 174.664 376.2 175.663 375.933 176.413C375.667 177.162 375 177.412 374.2 177.037Z" fill="white"/>
<path d="M350.067 129.834L345.267 127.212C344.6 126.837 344.2 125.838 344.467 125.089C344.733 124.34 345.533 123.965 346.2 124.464L351 127.087C351.667 127.461 352.067 128.46 351.8 129.21C351.533 129.959 350.733 130.209 350.067 129.834Z" fill="white"/>
<path d="M364.733 144.569L349.933 136.577C349.267 136.203 348.867 135.204 349.133 134.454C349.4 133.705 350.2 133.331 350.867 133.83L365.667 141.822C366.333 142.197 366.733 143.196 366.467 143.945C366.2 144.694 365.4 144.944 364.733 144.569Z" fill="white"/>
<path d="M351 150.813L346.2 148.191C345.533 147.816 345.133 146.817 345.4 146.068C345.667 145.319 346.467 144.944 347.133 145.444L351.933 148.066C352.6 148.441 353 149.44 352.733 150.189C352.467 150.938 351.667 151.188 351 150.813Z" fill="white"/>
<path d="M376.067 191.648L363.133 184.655C362.467 184.28 362.067 183.281 362.333 182.532C362.6 181.782 363.4 181.408 364.067 181.907L377 188.9C377.667 189.275 378.067 190.274 377.8 191.023C377.533 191.772 376.733 192.022 376.067 191.648Z" fill="white"/>
<path d="M345.533 161.552L342.467 159.804C341.8 159.43 341.4 158.431 341.667 157.681C341.933 156.932 342.733 156.557 343.4 157.057L346.467 158.805C347.133 159.18 347.533 160.179 347.267 160.928C347 161.552 346.333 161.927 345.533 161.552Z" fill="white"/>
<path d="M342.6 173.541L338.733 171.418C338.067 171.043 337.667 170.044 337.933 169.295C338.2 168.546 339 168.171 339.667 168.67L343.533 170.793C344.2 171.168 344.6 172.167 344.333 172.916C344.067 173.665 343.267 173.915 342.6 173.541Z" fill="white"/>
<path d="M357.667 181.782L347.4 176.288C346.733 175.913 346.333 174.914 346.6 174.165C346.867 173.416 347.667 173.041 348.333 173.541L358.6 179.035C359.267 179.41 359.667 180.409 359.4 181.158C359.133 181.782 358.333 182.157 357.667 181.782Z" fill="white"/>
<path d="M344.2 181.283L336.867 177.287C336.2 176.912 335.8 175.913 336.067 175.164C336.333 174.415 337.133 174.04 337.8 174.54L345.133 178.536C345.8 178.91 346.2 179.909 345.933 180.659C345.667 181.408 344.867 181.658 344.2 181.283Z" fill="white"/>
<path d="M387.133 197.766L382.467 195.269C381.8 194.894 381.4 193.895 381.667 193.146C381.933 192.397 382.733 192.022 383.4 192.522L388.067 195.019C388.733 195.394 389.133 196.393 388.867 197.142C388.733 197.766 387.933 198.141 387.133 197.766Z" fill="white"/>
<path d="M369.133 160.553L356.2 153.56C355.533 153.186 355.133 152.187 355.4 151.438C355.667 150.688 356.467 150.314 357.133 150.813L370.067 157.806C370.733 158.181 371.133 159.18 370.867 159.929C370.6 160.678 369.8 161.053 369.133 160.553Z" fill="white"/>
<path d="M370.6 154.559L347.933 142.322C347.267 141.947 346.867 140.948 347.133 140.199C347.4 139.449 348.2 139.075 348.867 139.574L371.533 151.812C372.2 152.187 372.6 153.186 372.333 153.935C372.2 154.684 371.4 155.059 370.6 154.559Z" fill="#E8975B"/>
<path d="M357.267 161.053L344.333 154.06C343.667 153.685 343.267 152.686 343.533 151.937C343.8 151.188 344.6 150.813 345.267 151.313L358.2 158.306C358.867 158.68 359.267 159.679 359 160.429C358.733 161.178 357.933 161.428 357.267 161.053Z" fill="#E8975B"/>
<path d="M379 165.923L374.333 163.426C373.667 163.051 373.267 162.052 373.533 161.303C373.8 160.553 374.6 160.179 375.267 160.678L379.933 163.176C380.6 163.551 381 164.55 380.733 165.299C380.467 166.048 379.667 166.298 379 165.923Z" fill="#E8975B"/>
<path d="M427 164.55L399 149.44C398.333 149.065 397.933 148.066 398.2 147.317C398.467 146.567 399.267 146.193 399.933 146.692L427.933 161.802C428.6 162.177 429 163.176 428.733 163.925C428.467 164.674 427.667 164.924 427 164.55Z" fill="#E8975B"/>
<path d="M356.2 174.165L340.6 165.673C339.933 165.299 339.533 164.3 339.8 163.551C340.067 162.801 340.867 162.427 341.533 162.926L357.133 171.418C357.8 171.792 358.2 172.791 357.933 173.541C357.667 174.165 356.867 174.54 356.2 174.165Z" fill="#F8359E"/>
<path d="M358.6 127.586L347.133 121.343C346.467 120.968 346.067 119.969 346.333 119.22C346.6 118.47 347.4 118.096 348.067 118.595L359.533 124.839C360.2 125.214 360.6 126.213 360.333 126.962C360.067 127.711 359.267 127.961 358.6 127.586Z" fill="#F8359E"/>
<path d="M341.8 186.777L328.467 179.535C327.8 179.16 327.4 178.161 327.667 177.412C327.933 176.662 328.733 176.288 329.4 176.787L342.733 184.03C343.4 184.405 343.8 185.404 343.533 186.153C343.267 186.902 342.467 187.152 341.8 186.777Z" fill="#E8975B"/>
<path d="M430.067 151.063L424.333 147.941C423.8 147.691 423.533 146.942 423.667 146.443C423.8 145.943 424.467 145.693 425 145.943L430.733 149.065C431.267 149.315 431.533 150.064 431.4 150.563C431.133 151.188 430.6 151.438 430.067 151.063Z" fill="white"/>
<path d="M441 156.932L435.267 153.81C434.733 153.56 434.467 152.811 434.6 152.312C434.733 151.812 435.4 151.562 435.933 151.812L441.667 154.934C442.2 155.184 442.467 155.933 442.333 156.433C442.067 157.057 441.533 157.307 441 156.932Z" fill="white"/>
<path d="M451.8 162.926L446.067 159.804C445.533 159.555 445.267 158.805 445.4 158.306C445.533 157.806 446.2 157.556 446.733 157.806L452.467 160.928C453 161.178 453.267 161.927 453.133 162.427C452.867 162.926 452.333 163.176 451.8 162.926Z" fill="white"/>
<path d="M457.133 165.798L457 165.673C456.467 165.424 456.2 164.674 456.333 164.175C456.467 163.675 457.133 163.426 457.667 163.675L457.8 163.8C458.333 164.05 458.6 164.799 458.467 165.299C458.2 165.798 457.667 166.048 457.133 165.798Z" fill="#F8359E"/>
<path d="M163.4 228.111C159.8 228.111 156.2 227.237 153 225.489L114.867 204.884C113.267 204.01 112.2 202.387 112.2 200.639C112.2 198.89 113.133 197.267 114.867 196.393L153 175.788C159.4 172.292 167.4 172.292 173.8 175.788L211.933 196.393C213.533 197.267 214.6 198.89 214.6 200.639C214.6 202.387 213.667 204.01 211.933 204.884L173.8 225.489C170.6 227.237 167 228.111 163.4 228.111ZM154.2 223.491C159.8 226.613 166.867 226.613 172.6 223.491L210.733 202.886C211.667 202.387 212.067 201.513 212.067 200.639C212.067 199.765 211.533 198.89 210.733 198.391L172.6 177.786C167 174.665 159.933 174.665 154.2 177.786L116.067 198.391C115.133 198.89 114.733 199.765 114.733 200.639C114.733 201.638 115.267 202.387 116.067 202.886L154.2 223.491Z" fill="url(#paint8_linear)"/>
<path opacity="0.6" d="M163.267 215.249C177.7 215.249 189.4 208.931 189.4 201.138C189.4 193.345 177.7 187.027 163.267 187.027C148.834 187.027 137.133 193.345 137.133 201.138C137.133 208.931 148.834 215.249 163.267 215.249Z" fill="#020230"/>
<path d="M202.067 100.239H127.533L134.467 175.913C134.467 180.159 137.4 184.28 143.4 187.527C155.267 193.895 174.467 193.895 186.333 187.527C192.2 184.28 195.267 180.159 195.267 175.913L202.067 100.239Z" fill="url(#paint9_radial)"/>
<path opacity="0.4" d="M202.067 100.239H127.533L128.733 112.726C130.467 114.724 132.733 116.722 135.667 118.595C149.933 127.461 173.4 129.21 189.533 122.841L187 178.161C186.867 180.534 186.067 182.906 184.333 184.779C181.933 187.402 177.267 190.524 168.333 192.397C174.867 192.022 181.267 190.399 186.333 187.652C192.2 184.405 195.267 180.284 195.267 176.038L200.867 115.349L202.067 100.239Z" fill="#06033E"/>
<path opacity="0.4" d="M164.733 120.344C185.352 120.344 202.067 111.342 202.067 100.239C202.067 89.1349 185.352 80.1335 164.733 80.1335C144.115 80.1335 127.4 89.1349 127.4 100.239C127.4 111.342 144.115 120.344 164.733 120.344Z" fill="#06033E"/>
<path opacity="0.4" d="M164.733 110.478C182.48 110.478 196.867 102.707 196.867 93.1207C196.867 83.5343 182.48 75.7629 164.733 75.7629C146.987 75.7629 132.6 83.5343 132.6 93.1207C132.6 102.707 146.987 110.478 164.733 110.478Z" fill="#06033E"/>
<path d="M204.2 99.2396C204.2 99.1147 204.2 99.1147 204.2 99.1147L203.533 92.3714V92.4963C203.267 87.3764 199.4 82.2565 192.2 78.3853C177 70.1435 152.467 70.1435 137.4 78.3853C129.933 82.3814 126.2 87.6261 126.067 92.8709L125.4 98.865C125.4 98.9898 125.4 99.2396 125.4 99.3645V99.4893C125 105.234 128.867 111.103 137 115.473C152.467 123.84 177.533 123.84 192.867 115.473C200.867 110.853 204.733 104.984 204.2 99.2396Z" fill="url(#paint10_linear)"/>
<path d="M164.733 110.478C182.48 110.478 196.867 102.707 196.867 93.1207C196.867 83.5343 182.48 75.7629 164.733 75.7629C146.987 75.7629 132.6 83.5343 132.6 93.1207C132.6 102.707 146.987 110.478 164.733 110.478Z" fill="url(#paint11_linear)"/>
<path d="M163.267 110.478C181.013 110.478 195.4 102.707 195.4 93.1207C195.4 83.5343 181.013 75.7629 163.267 75.7629C145.52 75.7629 131.133 83.5343 131.133 93.1207C131.133 102.707 145.52 110.478 163.267 110.478Z" fill="url(#paint12_linear)"/>
<path opacity="0.4" d="M145.8 83.3803C158.333 76.637 178.733 76.637 191.267 83.3803C191.4 83.5052 191.533 83.5052 191.667 83.63C190.467 82.631 189 81.632 187.4 80.7579C174.867 74.0146 154.467 74.0146 141.933 80.7579C129.533 87.5012 129.4 98.2405 141.533 105.109C133.533 98.3654 134.867 89.2495 145.8 83.3803Z" fill="#06033E"/>
<path d="M142.067 83.7549C154.6 77.0116 175 77.0116 187.533 83.7549C193.133 86.7519 196.2 90.6231 196.867 94.4942C197.667 89.4992 194.6 84.5042 187.533 80.7579C175 74.0146 154.6 74.0146 142.067 80.7579C135.133 84.5042 131.933 89.6241 132.733 94.4942C133.4 90.6231 136.467 86.8768 142.067 83.7549Z" fill="url(#paint13_linear)"/>
<path d="M192.333 78.3853C177.267 70.0186 152.6 69.8937 137.267 77.8858C121.933 86.0027 121.933 99.3644 137 107.606C152.067 115.973 176.733 116.098 192.067 108.106C207.4 100.114 207.533 86.752 192.333 78.3853ZM187.4 105.358C183.267 107.606 178.2 109.105 172.733 109.854L172.2 108.106C171.933 107.356 171.267 106.857 170.467 106.857H158.867C158.067 106.857 157.4 107.356 157.133 108.106L156.6 109.854C151.267 109.105 146.2 107.606 141.933 105.358C129.4 98.6152 129.4 87.6261 141.933 80.7579C154.467 74.0146 174.867 74.0146 187.4 80.7579C199.933 87.6261 199.933 98.6152 187.4 105.358Z" fill="url(#paint14_radial)"/>
<path d="M187.4 79.5091C174.867 72.7658 154.467 72.7658 141.933 79.5091C135.4 83.0057 132.2 87.7509 132.6 92.3714C132.867 88.1256 136.067 84.0047 141.933 80.7579C154.467 74.0146 174.867 74.0146 187.4 80.7579C193.4 84.0047 196.467 88.1256 196.733 92.3714C197.133 87.7509 194.067 83.1305 187.4 79.5091Z" fill="white"/>
<path d="M192.067 106.857C176.733 114.974 152.2 114.724 137 106.357C129.8 102.361 126.067 97.2415 125.8 92.1216C125.533 97.6161 129.267 103.36 137 107.606C152.067 115.973 176.733 116.098 192.067 108.106C200.067 103.86 203.933 98.2405 203.533 92.4962C203.4 97.8659 199.533 102.986 192.067 106.857Z" fill="white"/>
<path d="M168.2 110.853H161.267C160.733 110.853 160.333 110.478 160.333 109.979V109.854C160.333 109.354 160.733 108.98 161.267 108.98H168.2C168.733 108.98 169.133 109.354 169.133 109.854V109.979C169 110.478 168.6 110.853 168.2 110.853Z" fill="#0C0A78"/>
<path d="M168.2 109.105H161.267C160.733 109.105 160.333 109.479 160.333 109.979V110.104C160.333 110.229 160.333 110.229 160.333 110.354C160.467 109.979 160.733 109.729 161.133 109.729H168.067C168.467 109.729 168.733 109.979 168.867 110.354C168.867 110.229 168.867 110.229 168.867 110.104V109.979C169 109.479 168.6 109.105 168.2 109.105Z" fill="url(#paint15_linear)"/>
<path opacity="0.5" d="M167.133 109.979C167.133 109.979 187.933 103.485 179.533 81.0076C171.133 58.53 154.733 51.6618 161.267 33.6797C161.267 33.6797 150.867 48.1653 160.6 67.8957C170.333 87.5012 172.467 85.2534 172.333 94.7439C172.2 105.858 162.6 109.979 162.6 109.979H167.133Z" fill="white"/>
<path opacity="0.5" d="M169 36.8017C169 36.8017 166.867 23.3151 180.333 9.82849C180.333 9.82849 168.467 34.6788 172.333 46.9166C172.333 47.0415 169.133 39.1743 169 36.8017Z" fill="white"/>
</g>
<defs>
<linearGradient id="paint0_linear" x1="562.412" y1="346.264" x2="605.894" y2="346.264" gradientUnits="userSpaceOnUse">
<stop stop-color="#08B952"/>
<stop offset="1" stop-color="#40FF90"/>
</linearGradient>
<linearGradient id="paint1_linear" x1="502.877" y1="290.453" x2="575.915" y2="290.453" gradientUnits="userSpaceOnUse">
<stop stop-color="#08B952"/>
<stop offset="1" stop-color="#40FF90"/>
</linearGradient>
<linearGradient id="paint2_linear" x1="21.2466" y1="313.371" x2="94.2843" y2="313.371" gradientUnits="userSpaceOnUse">
<stop stop-color="#08B952"/>
<stop offset="1" stop-color="#40FF90"/>
</linearGradient>
<linearGradient id="paint3_linear" x1="106.279" y1="308.983" x2="496.09" y2="308.983" gradientUnits="userSpaceOnUse">
<stop stop-color="#08B952"/>
<stop offset="1" stop-color="#40FF90"/>
</linearGradient>
<radialGradient id="paint4_radial" cx="0" cy="0" r="1" gradientUnits="userSpaceOnUse" gradientTransform="translate(169.441 201.414) scale(291.947 273.428)">
<stop stop-color="#6507FA"/>
<stop offset="1" stop-color="#40FF90"/>
</radialGradient>
<radialGradient id="paint5_radial" cx="0" cy="0" r="1" gradientUnits="userSpaceOnUse" gradientTransform="translate(242.171 96.8477) scale(297.788 278.899)">
<stop stop-color="#A92FFB"/>
<stop offset="0.0735467" stop-color="#8152D1"/>
<stop offset="0.2385" stop-color="#2A9C76"/>
<stop offset="0.3131" stop-color="#08B952"/>
<stop offset="1" stop-color="#40FF90"/>
</radialGradient>
<linearGradient id="paint6_linear" x1="274.901" y1="170.059" x2="513.523" y2="170.059" gradientUnits="userSpaceOnUse">
<stop stop-color="#3919BB"/>
<stop offset="0.2416" stop-color="#40FF90"/>
</linearGradient>
<radialGradient id="paint7_radial" cx="0" cy="0" r="1" gradientUnits="userSpaceOnUse" gradientTransform="translate(133.462 37.2903) scale(463.797 434.377)">
<stop stop-color="#E39A65"/>
<stop offset="0.3714" stop-color="#A92FFB"/>
<stop offset="0.4783" stop-color="#8080D1"/>
<stop offset="0.604" stop-color="#52DBA3"/>
<stop offset="0.6611" stop-color="#40FF90"/>
<stop offset="0.9078" stop-color="#40FF90"/>
</radialGradient>
<linearGradient id="paint8_linear" x1="112.213" y1="200.631" x2="214.58" y2="200.631" gradientUnits="userSpaceOnUse">
<stop stop-color="#08B952"/>
<stop offset="1" stop-color="#40FF90"/>
</linearGradient>
<radialGradient id="paint9_radial" cx="0" cy="0" r="1" gradientUnits="userSpaceOnUse" gradientTransform="translate(121.288 122.426) scale(220.465 206.481)">
<stop stop-color="#3924B9"/>
<stop offset="0.3244" stop-color="#40FF90"/>
<stop offset="1" stop-color="#3919BB"/>
</radialGradient>
<linearGradient id="paint10_linear" x1="125.19" y1="96.8477" x2="204.269" y2="96.8477" gradientUnits="userSpaceOnUse">
<stop stop-color="#00AA3A"/>
<stop offset="0.4263" stop-color="#40FF90"/>
</linearGradient>
<linearGradient id="paint11_linear" x1="132.605" y1="93.0845" x2="196.851" y2="93.0845" gradientUnits="userSpaceOnUse">
<stop stop-color="#4F1FEC"/>
<stop offset="1" stop-color="#40FF90"/>
</linearGradient>
<linearGradient id="paint12_linear" x1="131.081" y1="93.0845" x2="195.326" y2="93.0845" gradientUnits="userSpaceOnUse">
<stop stop-color="#4F1FEC"/>
<stop offset="1" stop-color="#40FF90"/>
</linearGradient>
<linearGradient id="paint13_linear" x1="132.61" y1="85.1535" x2="213.613" y2="85.1535" gradientUnits="userSpaceOnUse">
<stop stop-color="#131060"/>
<stop offset="0.1857" stop-color="#141062"/>
<stop offset="0.2823" stop-color="#19106A"/>
<stop offset="0.3584" stop-color="#221078"/>
<stop offset="0.4238" stop-color="#2E0F8B"/>
<stop offset="0.4823" stop-color="#3E0FA3"/>
<stop offset="0.5359" stop-color="#510EC2"/>
<stop offset="0.5847" stop-color="#680DE5"/>
<stop offset="0.6071" stop-color="#740DF8"/>
<stop offset="0.6179" stop-color="#7A14F0"/>
<stop offset="0.6826" stop-color="#9B3CC3"/>
<stop offset="0.7477" stop-color="#B75D9D"/>
<stop offset="0.8123" stop-color="#CC7680"/>
<stop offset="0.8762" stop-color="#DC886C"/>
<stop offset="0.9391" stop-color="#E5935F"/>
<stop offset="1" stop-color="#E8975B"/>
</linearGradient>
<radialGradient id="paint14_radial" cx="0" cy="0" r="1" gradientUnits="userSpaceOnUse" gradientTransform="translate(115.32 75.8934) scale(144.219 135.071)">
<stop stop-color="#E39A65"/>
<stop offset="0.252" stop-color="#40FF90"/>
<stop offset="0.7357" stop-color="#08B952"/>
</radialGradient>
<linearGradient id="paint15_linear" x1="159.644" y1="109.638" x2="170.85" y2="109.638" gradientUnits="userSpaceOnUse">
<stop stop-color="#131060"/>
<stop offset="0.1857" stop-color="#141062"/>
<stop offset="0.2823" stop-color="#19106A"/>
<stop offset="0.3584" stop-color="#221078"/>
<stop offset="0.4238" stop-color="#2E0F8B"/>
<stop offset="0.4823" stop-color="#3E0FA3"/>
<stop offset="0.5359" stop-color="#510EC2"/>
<stop offset="0.5847" stop-color="#680DE5"/>
<stop offset="0.6071" stop-color="#740DF8"/>
<stop offset="0.6179" stop-color="#7A14F0"/>
<stop offset="0.6826" stop-color="#9B3CC3"/>
<stop offset="0.7477" stop-color="#B75D9D"/>
<stop offset="0.8123" stop-color="#CC7680"/>
<stop offset="0.8762" stop-color="#DC886C"/>
<stop offset="0.9391" stop-color="#E5935F"/>
<stop offset="1" stop-color="#E8975B"/>
</linearGradient>
<clipPath id="clip0">
<rect width="622" height="420" fill="white"/>
</clipPath>
</defs>
</svg>
