<svg width="60" height="60" viewBox="0 0 60 60" fill="none" xmlns="http://www.w3.org/2000/svg">
<path fill-rule="evenodd" clip-rule="evenodd" d="M30 0C13.435 0 0 13.43 0 30C0 46.5675 13.435 60 30 60C46.5675 60 60 46.5675 60 30C60 13.43 46.5675 0 30 0ZM38.06 44.6775C38.53 45.01 39.135 45.0925 39.675 44.89C40.2125 44.685 40.61 44.2225 40.73 43.6625C41.9975 37.7075 45.0725 22.6325 46.225 17.2175C46.3125 16.8075 46.1675 16.3825 45.8475 16.11C45.525 15.8375 45.08 15.76 44.685 15.905C38.57 18.17 19.7375 25.235 12.04 28.0825C11.5525 28.265 11.235 28.7325 11.25 29.25C11.2675 29.765 11.615 30.2125 12.115 30.3625C15.5675 31.395 20.0975 32.8325 20.0975 32.8325C20.0975 32.8325 22.215 39.2275 23.3175 42.4775C23.4575 42.8875 23.7775 43.2075 24.1975 43.3175C24.62 43.4275 25.0675 43.3125 25.3825 43.015C27.155 41.3425 29.895 38.755 29.895 38.755C29.895 38.755 35.105 42.5725 38.06 44.6775ZM22.0025 32.0225L24.4525 40.1L24.9975 34.985C24.9975 34.985 34.455 26.4525 39.85 21.59C40.0075 21.4475 40.0275 21.2075 39.8975 21.04C39.7675 20.8725 39.5275 20.8325 39.35 20.9475C33.1 24.9375 22.0025 32.0225 22.0025 32.0225Z" fill="white"/>
</svg>
