<svg xmlns="http://www.w3.org/2000/svg" viewBox="0 0 104 104"><path d="M84.52 52A32.5 32.5 0 1 1 75 29a32.54 32.54 0 0 1 9.52 23zM50.68 97.5c-.84 0-1.69-.07-2.54-.14l.21-2.5c.8.07 1.61.12 2.41.14zm3.06 0l-.09-2.5c.8 0 1.6-.08 2.4-.16l.23 2.49c-.84.07-1.7.13-2.54.16zm-8.63-.5c-.83-.13-1.68-.29-2.51-.46l.52-2.45c.78.17 1.58.31 2.37.43zm14.2-.06l-.4-2.47c.79-.13 1.58-.28 2.36-.45l.54 2.44c-.81.18-1.67.34-2.5.48zm-19.67-1.13c-.81-.23-1.63-.49-2.43-.77l.79-2.36c.76.26 1.53.5 2.3.72zm25.13-.11l-.7-2.4c.76-.22 1.53-.47 2.29-.74l.83 2.36c-.8.28-1.61.54-2.42.78zM34.35 94c-.78-.33-1.56-.69-2.32-1.06l1.1-2.25c.72.36 1.46.7 2.19 1zM70 93.8l-1-2.29c.73-.32 1.47-.66 2.18-1l1.12 2.23c-.71.36-1.49.72-2.3 1.06zm-40.7-2.35c-.73-.42-1.46-.87-2.17-1.34l1.4-2.11c.67.44 1.36.86 2 1.26zm45.7-.18l-1.27-2.16c.69-.4 1.38-.83 2-1.28l1.39 2.08c-.64.47-1.36.93-2.12 1.36zm-50.34-2.92c-.67-.51-1.34-1-2-1.59l1.61-1.91c.61.52 1.24 1 1.88 1.51zm55-.21l-1.52-2c.64-.49 1.27-1 1.87-1.52l1.63 1.9c-.64.57-1.3 1.11-1.97 1.62zm-59.25-3.43c-.61-.59-1.21-1.2-1.78-1.82l1.84-1.7c.54.59 1.1 1.17 1.68 1.72zm63.5-.24l-1.76-1.78.27-.27c.48-.47.94-1 1.4-1.47l1.85 1.68c-.48.54-1 1.05-1.48 1.56zm-67.27-3.89c-.54-.66-1.05-1.34-1.55-2l2-1.46c.47.65 1 1.3 1.46 1.92zm71-.28l-2-1.55c.49-.63 1-1.28 1.44-1.93l2 1.44c-.39.74-.91 1.38-1.43 2.04zM13.39 76c-.44-.72-.88-1.46-1.28-2.2l2.19-1.2c.38.7.79 1.4 1.22 2.08zm77.46-.31l-2.13-1.3c.41-.68.82-1.39 1.19-2.09l2.21 1.18c-.4.76-.83 1.52-1.27 2.23zM10.73 71.1c-.35-.77-.69-1.56-1-2.34l2.32-.92c.3.74.62 1.48.95 2.2zm82.74-.34l-2.28-1c.33-.73.65-1.48.93-2.22l2.33.9c-.3.76-.63 1.56-.98 2.32zM8.7 65.88c-.26-.8-.5-1.62-.71-2.44l2.42-.63c.2.77.43 1.55.67 2.31zm86.76-.36l-2.39-.74c.24-.76.46-1.54.65-2.32l2.43.61c-.21.82-.44 1.65-.69 2.45zM7.32 60.46c-.15-.83-.29-1.68-.4-2.52l2.48-.32c.1.79.23 1.59.38 2.37zm89.47-.38l-2.46-.44c.14-.78.26-1.58.36-2.38l2.48.3c-.1.85-.23 1.69-.38 2.52zM6.63 54.9c-.06-.84-.09-1.7-.1-2.54h2.5c0 .8 0 1.61.09 2.4zm90.81-.38L95 54.38c0-.8.06-1.61.06-2.41v-.14h2.5V52c-.05.82-.07 1.68-.12 2.52zM9.11 49.45l-2.5-.15c0-.84.12-1.7.22-2.54l2.48.29c-.09.79-.16 1.6-.2 2.4zm85.8-.5c-.06-.8-.14-1.61-.24-2.4l2.48-.31c.11.84.19 1.69.25 2.53zM9.74 44.19l-2.46-.45c.15-.83.33-1.67.53-2.49l2.43.59c-.19.77-.36 1.57-.5 2.35zm84.48-.49c-.16-.78-.34-1.57-.53-2.34l2.42-.62c.21.82.4 1.65.56 2.48zM11 39.05l-2.37-.75c.25-.8.53-1.61.83-2.41l2.34.89c-.29.75-.55 1.51-.8 2.27zm81.87-.46c-.25-.76-.53-1.53-.82-2.27l2.33-.91c.31.78.6 1.59.86 2.39zm-80-4.48l-2.27-1c.35-.77.73-1.54 1.12-2.28L14 32c-.4.66-.76 1.38-1.09 2.11zm78-.44c-.34-.72-.71-1.45-1.09-2.15L92 30.33c.4.74.79 1.51 1.15 2.27zm-75.46-4.23l-2.13-1.31c.44-.72.91-1.43 1.39-2.13l2.06 1.43c-.46.66-.91 1.33-1.32 2.01zm73-.41c-.42-.67-.88-1.35-1.34-2l2-1.45c.49.69 1 1.4 1.42 2.12zm-69.96-3.91l-1.95-1.57c.53-.66 1.09-1.31 1.65-1.94L20 23.28c-.52.6-1 1.21-1.55 1.84zm66.83-.38c-.51-.62-1-1.23-1.58-1.82l1.85-1.69c.57.63 1.13 1.28 1.66 1.93zM22 21.2l-1.74-1.79c.61-.59 1.24-1.17 1.87-1.73l1.64 1.89c-.59.52-1.19 1.07-1.77 1.63zm59.67-.34a45.61 45.61 0 0 0-1.79-1.61l1.62-1.91q1 .82 1.89 1.71zM26 17.75l-1.51-2c.68-.52 1.37-1 2.07-1.49L28 16.34c-.68.45-1.34.92-2 1.41zm51.61-.3c-.64-.48-1.31-.94-2-1.38L77 14c.71.47 1.41 1 2.09 1.46zm-47.2-2.64l-1.26-2.16c.73-.43 1.48-.84 2.23-1.22l1.14 2.22c-.69.35-1.4.75-2.09 1.16zm42.76-.25c-.69-.39-1.41-.77-2.12-1.13l1.11-2.24c.75.38 1.51.78 2.25 1.2zm-38-2.13l-1-2.3c.78-.33 1.58-.65 2.37-.94l.85 2.35c-.75.27-1.5.57-2.24.89zm33.29-.19c-.74-.31-1.5-.6-2.25-.86L67 9c.8.28 1.6.58 2.38.91zm-28.33-1.59l-.69-2.4c.81-.24 1.64-.45 2.47-.64l.55 2.44c-.77.18-1.56.38-2.33.6zm23.3-.13c-.77-.21-1.56-.41-2.34-.58l.53-2.44c.83.18 1.66.38 2.47.61zm-18.13-1L44.91 7c.83-.14 1.68-.25 2.52-.33l.25 2.49c-.79.12-1.6.22-2.38.35zm13-.08c-.79-.11-1.6-.21-2.39-.28l.22-2.49c.84.08 1.69.18 2.53.3zM50.56 9l-.08-2.49h2.55L53 9h-2.44z" fill="#00c087"/><path fill="#fff" d="M46.04 64.5L34.97 53.43l2.12-2.12 8.95 8.95 20.91-20.91 2.13 2.13L46.04 64.5z"/><path fill="none" d="M0 0h104v104H0z"/></svg>