<svg width="60" height="60" viewBox="0 0 60 60" fill="none" xmlns="http://www.w3.org/2000/svg">
<path d="M30 0C13.4325 0 0 13.4325 0 30C0 46.5675 13.4325 60 30 60C46.5675 60 60 46.5675 60 30C60 13.4325 46.5675 0 30 0ZM45.165 24.1125C45.6225 34.2125 38.09 45.4725 24.755 45.4725C20.7 45.4725 16.9275 44.2825 13.75 42.245C17.56 42.695 21.3625 41.635 24.38 39.2725C21.24 39.215 18.5875 37.1375 17.67 34.285C18.7975 34.5 19.9075 34.4375 20.915 34.1625C17.4625 33.4675 15.0775 30.3575 15.155 27.03C16.125 27.5675 17.23 27.89 18.4075 27.9275C15.21 25.79 14.305 21.5675 16.185 18.34C19.725 22.685 25.0175 25.5425 30.985 25.8425C29.9375 21.3525 33.345 17.025 37.9825 17.025C40.045 17.025 41.9125 17.8975 43.2225 19.2925C44.8575 18.9725 46.3975 18.3725 47.7825 17.55C47.245 19.2275 46.1075 20.6325 44.625 21.5225C46.0775 21.3475 47.4625 20.9625 48.7475 20.39C47.7875 21.835 46.5725 23.1 45.165 24.1125Z" fill="white"/>
</svg>
